G04 (created by PCBNEW-RS274X (2011-07-19)-testing) date Tue 31 Jan 2012 04:13:43 PM PST*
G01*
G70*
G90*
%MOIN*%
G04 Gerber Fmt 3.4, Leading zero omitted, Abs format*
%FSLAX34Y34*%
G04 APERTURE LIST*
%ADD10C,0.006000*%
%ADD11O,0.060000X0.100000*%
%ADD12C,0.155000*%
%ADD13C,0.060000*%
%ADD14C,0.300000*%
%ADD15C,0.035000*%
%ADD16C,0.015000*%
%ADD17C,0.010000*%
G04 APERTURE END LIST*
G54D10*
G54D11*
X37500Y-84000D03*
X38500Y-84000D03*
X39500Y-84000D03*
X40500Y-84000D03*
X41500Y-84000D03*
X42500Y-84000D03*
X43500Y-84000D03*
X44500Y-84000D03*
X46500Y-65000D03*
X45500Y-65000D03*
X44500Y-65000D03*
X43500Y-65000D03*
X39500Y-65000D03*
X37500Y-65000D03*
X36500Y-65000D03*
X40500Y-65000D03*
X41500Y-65000D03*
X42500Y-65000D03*
X35500Y-65000D03*
X34500Y-65000D03*
X33500Y-65000D03*
X30500Y-65000D03*
X31500Y-65000D03*
X32500Y-65000D03*
X28500Y-65000D03*
X27500Y-65000D03*
X26500Y-65000D03*
X24500Y-65000D03*
X23500Y-65000D03*
X35500Y-84000D03*
X34500Y-84000D03*
X33500Y-84000D03*
X32500Y-84000D03*
X31500Y-84000D03*
X30500Y-84000D03*
X29500Y-84000D03*
X28500Y-84000D03*
X26900Y-84000D03*
X25900Y-84000D03*
X24900Y-84000D03*
X23900Y-84000D03*
X22900Y-84000D03*
X21900Y-84000D03*
X20900Y-84000D03*
X19900Y-84000D03*
X25500Y-65000D03*
G54D12*
X48500Y-65000D03*
X46000Y-84000D03*
X16500Y-84000D03*
X16000Y-65000D03*
G54D13*
X47500Y-83000D03*
X48500Y-83000D03*
X47500Y-82000D03*
X48500Y-82000D03*
X47500Y-81000D03*
X48500Y-81000D03*
X47500Y-80000D03*
X48500Y-80000D03*
X47500Y-84000D03*
X48500Y-84000D03*
X48500Y-79000D03*
X47500Y-79000D03*
X47500Y-78000D03*
X48500Y-78000D03*
X47500Y-77000D03*
X48500Y-77000D03*
X47500Y-76000D03*
X48500Y-76000D03*
X47500Y-75000D03*
X48500Y-75000D03*
X47500Y-74000D03*
X48500Y-74000D03*
X47500Y-73000D03*
X48500Y-73000D03*
X47500Y-72000D03*
X48500Y-72000D03*
X47500Y-71000D03*
X48500Y-71000D03*
X47500Y-70000D03*
X48500Y-70000D03*
X47500Y-69000D03*
X48500Y-69000D03*
X47500Y-68000D03*
X48500Y-68000D03*
X47500Y-67000D03*
X48500Y-67000D03*
G54D14*
X25000Y-25000D03*
X150000Y-25000D03*
X25000Y-150000D03*
X150000Y-150000D03*
G54D15*
X47164Y-39351D03*
X114439Y-87860D03*
X56317Y-80562D03*
X50246Y-109626D03*
X87454Y-111781D03*
X139587Y-112677D03*
X64587Y-137677D03*
X60639Y-119599D03*
X51859Y-77908D03*
X158203Y-137812D03*
X39772Y-162492D03*
X90186Y-15927D03*
X51873Y-78622D03*
X89422Y-162842D03*
X49212Y-139490D03*
X46214Y-19655D03*
X55446Y-75115D03*
X114634Y-13228D03*
X34883Y-62235D03*
X57914Y-79235D03*
X64942Y-68529D03*
X78828Y-74669D03*
X157710Y-37950D03*
X64295Y-62847D03*
X41416Y-87855D03*
X39434Y-137709D03*
X35078Y-93501D03*
X17294Y-162789D03*
X43881Y-144178D03*
X30500Y-141907D03*
X44002Y-20580D03*
X28000Y-22061D03*
X27000Y-51728D03*
X44977Y-44319D03*
X15949Y-63637D03*
X23522Y-82958D03*
X64312Y-87812D03*
G54D16*
X49495Y-41682D02*
X47164Y-39351D01*
X49495Y-67005D02*
X49495Y-41682D01*
X48500Y-68000D02*
X49495Y-67005D01*
X65979Y-87860D02*
X114439Y-87860D01*
X49619Y-71500D02*
X65979Y-87860D01*
X48000Y-71500D02*
X49619Y-71500D01*
X47500Y-72000D02*
X48000Y-71500D01*
X48755Y-73000D02*
X56317Y-80562D01*
X48500Y-73000D02*
X48755Y-73000D01*
X47014Y-73486D02*
X47500Y-73000D01*
X47014Y-75399D02*
X47014Y-73486D01*
X47115Y-75500D02*
X47014Y-75399D01*
X48956Y-75500D02*
X47115Y-75500D01*
X50246Y-76790D02*
X48956Y-75500D01*
X50246Y-109626D02*
X50246Y-76790D01*
X48764Y-74000D02*
X48500Y-74000D01*
X86545Y-111781D02*
X48764Y-74000D01*
X87454Y-111781D02*
X86545Y-111781D01*
X115209Y-88299D02*
X139587Y-112677D01*
X63484Y-88299D02*
X115209Y-88299D01*
X48685Y-73500D02*
X63484Y-88299D01*
X48000Y-73500D02*
X48685Y-73500D01*
X47500Y-74000D02*
X48000Y-73500D01*
X64587Y-92083D02*
X64587Y-137677D01*
X51506Y-79002D02*
X64587Y-92083D01*
X51506Y-77323D02*
X51506Y-79002D01*
X48683Y-74500D02*
X51506Y-77323D01*
X48000Y-74500D02*
X48683Y-74500D01*
X47500Y-75000D02*
X48000Y-74500D01*
X59193Y-119599D02*
X60639Y-119599D01*
X49893Y-110299D02*
X59193Y-119599D01*
X49893Y-77393D02*
X49893Y-110299D01*
X48500Y-76000D02*
X49893Y-77393D01*
X111763Y-137812D02*
X158203Y-137812D01*
X51859Y-77908D02*
X111763Y-137812D01*
X49591Y-78091D02*
X48500Y-77000D01*
X49591Y-152673D02*
X49591Y-78091D01*
X39772Y-162492D02*
X49591Y-152673D01*
X90186Y-27035D02*
X90186Y-15927D01*
X48721Y-68500D02*
X90186Y-27035D01*
X48000Y-68500D02*
X48721Y-68500D01*
X47500Y-68000D02*
X48000Y-68500D01*
X89422Y-116171D02*
X89422Y-162842D01*
X51873Y-78622D02*
X89422Y-116171D01*
X49212Y-78712D02*
X49212Y-139490D01*
X48500Y-78000D02*
X49212Y-78712D01*
X46000Y-19869D02*
X46214Y-19655D01*
X46000Y-76500D02*
X46000Y-19869D01*
X47500Y-78000D02*
X46000Y-76500D01*
X114634Y-15927D02*
X114634Y-13228D01*
X55446Y-75115D02*
X114634Y-15927D01*
X35021Y-62373D02*
X34883Y-62235D01*
X35021Y-66521D02*
X35021Y-62373D01*
X47500Y-79000D02*
X35021Y-66521D01*
X64942Y-72207D02*
X64942Y-68529D01*
X57914Y-79235D02*
X64942Y-72207D01*
X120991Y-74669D02*
X157710Y-37950D01*
X78828Y-74669D02*
X120991Y-74669D01*
X57642Y-69500D02*
X64295Y-62847D01*
X48064Y-69500D02*
X57642Y-69500D01*
X48000Y-69564D02*
X48064Y-69500D01*
X48000Y-70202D02*
X48000Y-69564D01*
X47681Y-70521D02*
X48000Y-70202D01*
X46802Y-70521D02*
X47681Y-70521D01*
X46749Y-70574D02*
X46802Y-70521D01*
X46749Y-75951D02*
X46749Y-70574D01*
X47319Y-76521D02*
X46749Y-75951D01*
X47957Y-76521D02*
X47319Y-76521D01*
X48000Y-76564D02*
X47957Y-76521D01*
X48000Y-80500D02*
X48000Y-76564D01*
X48500Y-81000D02*
X48000Y-80500D01*
X43797Y-87855D02*
X41416Y-87855D01*
X47021Y-84631D02*
X43797Y-87855D01*
X47021Y-83565D02*
X47021Y-84631D01*
X47064Y-83522D02*
X47021Y-83565D01*
X47892Y-83522D02*
X47064Y-83522D01*
X47978Y-83436D02*
X47892Y-83522D01*
X47978Y-82522D02*
X47978Y-83436D01*
X48500Y-82000D02*
X47978Y-82522D01*
X38500Y-136775D02*
X39434Y-137709D01*
X38500Y-84000D02*
X38500Y-136775D01*
X37500Y-91079D02*
X35078Y-93501D01*
X37500Y-84000D02*
X37500Y-91079D01*
X17294Y-154867D02*
X17294Y-162789D01*
X29714Y-142447D02*
X17294Y-154867D01*
X30540Y-142447D02*
X29714Y-142447D01*
X32500Y-140487D02*
X30540Y-142447D01*
X32500Y-84000D02*
X32500Y-140487D01*
X32995Y-133292D02*
X43881Y-144178D01*
X32995Y-83365D02*
X32995Y-133292D01*
X32952Y-83322D02*
X32995Y-83365D01*
X31500Y-83322D02*
X32952Y-83322D01*
X31500Y-84000D02*
X31500Y-83322D01*
X30500Y-84000D02*
X30500Y-141907D01*
X44002Y-50621D02*
X44002Y-20580D01*
X28500Y-66123D02*
X44002Y-50621D01*
X28500Y-84000D02*
X28500Y-66123D01*
X28000Y-82222D02*
X28000Y-22061D01*
X26900Y-83322D02*
X28000Y-82222D01*
X26900Y-84000D02*
X26900Y-83322D01*
X27000Y-67965D02*
X27000Y-51728D01*
X25900Y-69065D02*
X27000Y-67965D01*
X25900Y-84000D02*
X25900Y-69065D01*
X44977Y-50204D02*
X44977Y-44319D01*
X33000Y-62181D02*
X44977Y-50204D01*
X33000Y-65402D02*
X33000Y-62181D01*
X28979Y-69423D02*
X33000Y-65402D01*
X28979Y-84646D02*
X28979Y-69423D01*
X28947Y-84678D02*
X28979Y-84646D01*
X24900Y-84678D02*
X28947Y-84678D01*
X24900Y-84000D02*
X24900Y-84678D01*
X16289Y-63637D02*
X15949Y-63637D01*
X23900Y-71248D02*
X16289Y-63637D01*
X23900Y-83322D02*
X23900Y-71248D01*
X23900Y-84000D02*
X23900Y-83322D01*
X23158Y-83322D02*
X23522Y-82958D01*
X21900Y-83322D02*
X23158Y-83322D01*
X21900Y-84000D02*
X21900Y-83322D01*
X64312Y-87812D02*
X48500Y-72000D01*
X48500Y-67000D02*
X48500Y-65000D01*
X20900Y-84000D02*
X20900Y-84678D01*
X44398Y-82398D02*
X46000Y-84000D01*
X30735Y-82398D02*
X44398Y-82398D01*
X30022Y-83111D02*
X30735Y-82398D01*
X30022Y-84380D02*
X30022Y-83111D01*
X29459Y-84943D02*
X30022Y-84380D01*
X21165Y-84943D02*
X29459Y-84943D01*
X20900Y-84678D02*
X21165Y-84943D01*
G54D10*
G36*
X164675Y-164675D02*
X158628Y-164675D01*
X158628Y-137897D01*
X158628Y-137728D01*
X158564Y-137572D01*
X158444Y-137452D01*
X158288Y-137387D01*
X158135Y-137387D01*
X158135Y-38035D01*
X158135Y-37866D01*
X158071Y-37710D01*
X157951Y-37590D01*
X157795Y-37525D01*
X157626Y-37525D01*
X157470Y-37589D01*
X157350Y-37709D01*
X157285Y-37865D01*
X157285Y-37915D01*
X151750Y-43450D01*
X151750Y-25349D01*
X151750Y-24653D01*
X151484Y-24010D01*
X150992Y-23517D01*
X150349Y-23250D01*
X149653Y-23250D01*
X149010Y-23516D01*
X148517Y-24008D01*
X148250Y-24651D01*
X148250Y-25347D01*
X148516Y-25990D01*
X149008Y-26483D01*
X149651Y-26750D01*
X150347Y-26750D01*
X150990Y-26484D01*
X151483Y-25992D01*
X151750Y-25349D01*
X151750Y-43450D01*
X120856Y-74344D01*
X115059Y-74344D01*
X115059Y-13313D01*
X115059Y-13144D01*
X114995Y-12988D01*
X114875Y-12868D01*
X114719Y-12803D01*
X114550Y-12803D01*
X114394Y-12867D01*
X114274Y-12987D01*
X114209Y-13143D01*
X114209Y-13312D01*
X114273Y-13468D01*
X114309Y-13504D01*
X114309Y-15792D01*
X55411Y-74690D01*
X55362Y-74690D01*
X55206Y-74754D01*
X55086Y-74874D01*
X55021Y-75030D01*
X55021Y-75199D01*
X55085Y-75355D01*
X55205Y-75475D01*
X55361Y-75540D01*
X55530Y-75540D01*
X55686Y-75476D01*
X55806Y-75356D01*
X55871Y-75200D01*
X55871Y-75149D01*
X114861Y-16158D01*
X114863Y-16157D01*
X114864Y-16157D01*
X114933Y-16052D01*
X114934Y-16051D01*
X114959Y-15927D01*
X114959Y-13504D01*
X114994Y-13469D01*
X115059Y-13313D01*
X115059Y-74344D01*
X79104Y-74344D01*
X79069Y-74309D01*
X78913Y-74244D01*
X78744Y-74244D01*
X78588Y-74308D01*
X78468Y-74428D01*
X78403Y-74584D01*
X78403Y-74753D01*
X78467Y-74909D01*
X78587Y-75029D01*
X78743Y-75094D01*
X78912Y-75094D01*
X79068Y-75030D01*
X79104Y-74994D01*
X120991Y-74994D01*
X121115Y-74969D01*
X121221Y-74899D01*
X157744Y-38375D01*
X157794Y-38375D01*
X157950Y-38311D01*
X158070Y-38191D01*
X158135Y-38035D01*
X158135Y-137387D01*
X158119Y-137387D01*
X157963Y-137451D01*
X157927Y-137487D01*
X111898Y-137487D01*
X86510Y-112099D01*
X86545Y-112106D01*
X87178Y-112106D01*
X87213Y-112141D01*
X87369Y-112206D01*
X87538Y-112206D01*
X87694Y-112142D01*
X87814Y-112022D01*
X87879Y-111866D01*
X87879Y-111697D01*
X87815Y-111541D01*
X87695Y-111421D01*
X87539Y-111356D01*
X87370Y-111356D01*
X87214Y-111420D01*
X87178Y-111456D01*
X86680Y-111456D01*
X63848Y-88624D01*
X115074Y-88624D01*
X139162Y-112711D01*
X139162Y-112761D01*
X139226Y-112917D01*
X139346Y-113037D01*
X139502Y-113102D01*
X139671Y-113102D01*
X139827Y-113038D01*
X139947Y-112918D01*
X140012Y-112762D01*
X140012Y-112593D01*
X139948Y-112437D01*
X139828Y-112317D01*
X139672Y-112252D01*
X139621Y-112252D01*
X115439Y-88069D01*
X115333Y-87999D01*
X115209Y-87974D01*
X114851Y-87974D01*
X114864Y-87945D01*
X114864Y-87776D01*
X114800Y-87620D01*
X114680Y-87500D01*
X114524Y-87435D01*
X114355Y-87435D01*
X114199Y-87499D01*
X114163Y-87535D01*
X66113Y-87535D01*
X58164Y-79585D01*
X58274Y-79476D01*
X58339Y-79320D01*
X58339Y-79270D01*
X65172Y-72437D01*
X65242Y-72332D01*
X65242Y-72331D01*
X65267Y-72207D01*
X65267Y-68805D01*
X65302Y-68770D01*
X65367Y-68614D01*
X65367Y-68445D01*
X65303Y-68289D01*
X65183Y-68169D01*
X65027Y-68104D01*
X64858Y-68104D01*
X64702Y-68168D01*
X64582Y-68288D01*
X64517Y-68444D01*
X64517Y-68613D01*
X64581Y-68769D01*
X64617Y-68805D01*
X64617Y-72072D01*
X57879Y-78810D01*
X57830Y-78810D01*
X57674Y-78874D01*
X57563Y-78984D01*
X49849Y-71270D01*
X49743Y-71200D01*
X49619Y-71175D01*
X49021Y-71175D01*
X49049Y-71109D01*
X49049Y-70891D01*
X48965Y-70689D01*
X48811Y-70535D01*
X48726Y-70500D01*
X48811Y-70465D01*
X48965Y-70311D01*
X49049Y-70109D01*
X49049Y-69891D01*
X49021Y-69825D01*
X57642Y-69825D01*
X57766Y-69800D01*
X57872Y-69730D01*
X64329Y-63272D01*
X64379Y-63272D01*
X64535Y-63208D01*
X64655Y-63088D01*
X64720Y-62932D01*
X64720Y-62763D01*
X64656Y-62607D01*
X64536Y-62487D01*
X64380Y-62422D01*
X64211Y-62422D01*
X64055Y-62486D01*
X63935Y-62606D01*
X63870Y-62762D01*
X63870Y-62812D01*
X57507Y-69175D01*
X49021Y-69175D01*
X49049Y-69109D01*
X49049Y-68891D01*
X48972Y-68708D01*
X90416Y-27265D01*
X90486Y-27160D01*
X90486Y-27159D01*
X90511Y-27035D01*
X90511Y-16203D01*
X90546Y-16168D01*
X90611Y-16012D01*
X90611Y-15843D01*
X90547Y-15687D01*
X90427Y-15567D01*
X90271Y-15502D01*
X90102Y-15502D01*
X89946Y-15566D01*
X89826Y-15686D01*
X89761Y-15842D01*
X89761Y-16011D01*
X89825Y-16167D01*
X89861Y-16203D01*
X89861Y-26900D01*
X49820Y-66941D01*
X49820Y-41682D01*
X49795Y-41558D01*
X49794Y-41557D01*
X49725Y-41452D01*
X49722Y-41450D01*
X47589Y-39316D01*
X47589Y-39267D01*
X47525Y-39111D01*
X47405Y-38991D01*
X47249Y-38926D01*
X47080Y-38926D01*
X46924Y-38990D01*
X46804Y-39110D01*
X46739Y-39266D01*
X46739Y-39435D01*
X46803Y-39591D01*
X46923Y-39711D01*
X47079Y-39776D01*
X47129Y-39776D01*
X49170Y-41816D01*
X49170Y-64193D01*
X49168Y-64191D01*
X49118Y-64240D01*
X49061Y-64143D01*
X48691Y-63993D01*
X48291Y-63997D01*
X47939Y-64143D01*
X47856Y-64285D01*
X48465Y-64894D01*
X48500Y-64929D01*
X48571Y-65000D01*
X48500Y-65071D01*
X48465Y-65106D01*
X48429Y-65142D01*
X48429Y-65000D01*
X47785Y-64356D01*
X47643Y-64439D01*
X47493Y-64809D01*
X47497Y-65209D01*
X47643Y-65561D01*
X47785Y-65644D01*
X48429Y-65000D01*
X48429Y-65142D01*
X47856Y-65715D01*
X47939Y-65857D01*
X48309Y-66007D01*
X48709Y-66003D01*
X49061Y-65857D01*
X49118Y-65759D01*
X49144Y-65785D01*
X49168Y-65809D01*
X49170Y-65807D01*
X49170Y-66870D01*
X49144Y-66895D01*
X49038Y-67001D01*
X49032Y-66866D01*
X48972Y-66719D01*
X48878Y-66692D01*
X48808Y-66762D01*
X48808Y-66622D01*
X48781Y-66528D01*
X48579Y-66457D01*
X48366Y-66468D01*
X48219Y-66528D01*
X48192Y-66622D01*
X48500Y-66929D01*
X48808Y-66622D01*
X48808Y-66762D01*
X48571Y-67000D01*
X48500Y-67071D01*
X48429Y-67141D01*
X48429Y-67000D01*
X48122Y-66692D01*
X48028Y-66719D01*
X48002Y-66792D01*
X47972Y-66719D01*
X47878Y-66692D01*
X47808Y-66762D01*
X47808Y-66622D01*
X47781Y-66528D01*
X47579Y-66457D01*
X47366Y-66468D01*
X47219Y-66528D01*
X47192Y-66622D01*
X47500Y-66929D01*
X47808Y-66622D01*
X47808Y-66762D01*
X47571Y-67000D01*
X47878Y-67308D01*
X47972Y-67281D01*
X47997Y-67207D01*
X48028Y-67281D01*
X48122Y-67308D01*
X48429Y-67000D01*
X48429Y-67141D01*
X48192Y-67378D01*
X48219Y-67472D01*
X48284Y-67495D01*
X48189Y-67535D01*
X48035Y-67689D01*
X48000Y-67773D01*
X47965Y-67689D01*
X47811Y-67535D01*
X47719Y-67497D01*
X47781Y-67472D01*
X47808Y-67378D01*
X47500Y-67071D01*
X47429Y-67141D01*
X47429Y-67000D01*
X47122Y-66692D01*
X47028Y-66719D01*
X46957Y-66921D01*
X46968Y-67134D01*
X47028Y-67281D01*
X47122Y-67308D01*
X47429Y-67000D01*
X47429Y-67141D01*
X47192Y-67378D01*
X47219Y-67472D01*
X47284Y-67495D01*
X47189Y-67535D01*
X47035Y-67689D01*
X46951Y-67891D01*
X46951Y-68109D01*
X47035Y-68311D01*
X47189Y-68465D01*
X47273Y-68500D01*
X47189Y-68535D01*
X47035Y-68689D01*
X46951Y-68891D01*
X46951Y-69109D01*
X47035Y-69311D01*
X47189Y-69465D01*
X47273Y-69500D01*
X47189Y-69535D01*
X47035Y-69689D01*
X46951Y-69891D01*
X46951Y-70109D01*
X46987Y-70196D01*
X46802Y-70196D01*
X46801Y-70196D01*
X46776Y-70201D01*
X46678Y-70221D01*
X46572Y-70291D01*
X46570Y-70293D01*
X46519Y-70344D01*
X46449Y-70450D01*
X46424Y-70574D01*
X46424Y-75951D01*
X46449Y-76075D01*
X46519Y-76181D01*
X47032Y-76694D01*
X46951Y-76891D01*
X46951Y-76991D01*
X46325Y-76365D01*
X46325Y-65725D01*
X46392Y-65754D01*
X46607Y-65754D01*
X46806Y-65672D01*
X46957Y-65520D01*
X47040Y-65322D01*
X47040Y-65107D01*
X47040Y-64679D01*
X46958Y-64480D01*
X46806Y-64329D01*
X46608Y-64246D01*
X46393Y-64246D01*
X46325Y-64274D01*
X46325Y-20068D01*
X46454Y-20016D01*
X46574Y-19896D01*
X46639Y-19740D01*
X46639Y-19571D01*
X46575Y-19415D01*
X46455Y-19295D01*
X46299Y-19230D01*
X46130Y-19230D01*
X45974Y-19294D01*
X45854Y-19414D01*
X45789Y-19570D01*
X45789Y-19620D01*
X45770Y-19639D01*
X45700Y-19745D01*
X45675Y-19869D01*
X45675Y-64274D01*
X45608Y-64246D01*
X45393Y-64246D01*
X45194Y-64328D01*
X45043Y-64480D01*
X45000Y-64582D01*
X44958Y-64480D01*
X44806Y-64329D01*
X44608Y-64246D01*
X44393Y-64246D01*
X44194Y-64328D01*
X44043Y-64480D01*
X44000Y-64582D01*
X43958Y-64480D01*
X43806Y-64329D01*
X43608Y-64246D01*
X43393Y-64246D01*
X43194Y-64328D01*
X43043Y-64480D01*
X43000Y-64582D01*
X42958Y-64480D01*
X42806Y-64329D01*
X42608Y-64246D01*
X42393Y-64246D01*
X42194Y-64328D01*
X42043Y-64480D01*
X42000Y-64582D01*
X41958Y-64480D01*
X41806Y-64329D01*
X41608Y-64246D01*
X41393Y-64246D01*
X41194Y-64328D01*
X41043Y-64480D01*
X41000Y-64582D01*
X40958Y-64480D01*
X40806Y-64329D01*
X40608Y-64246D01*
X40393Y-64246D01*
X40194Y-64328D01*
X40043Y-64480D01*
X40000Y-64582D01*
X39958Y-64480D01*
X39806Y-64329D01*
X39608Y-64246D01*
X39393Y-64246D01*
X39194Y-64328D01*
X39043Y-64480D01*
X38960Y-64678D01*
X38960Y-64893D01*
X38960Y-65321D01*
X39042Y-65520D01*
X39194Y-65671D01*
X39392Y-65754D01*
X39607Y-65754D01*
X39806Y-65672D01*
X39957Y-65520D01*
X39999Y-65417D01*
X40042Y-65520D01*
X40194Y-65671D01*
X40392Y-65754D01*
X40607Y-65754D01*
X40806Y-65672D01*
X40957Y-65520D01*
X40999Y-65417D01*
X41042Y-65520D01*
X41194Y-65671D01*
X41392Y-65754D01*
X41607Y-65754D01*
X41806Y-65672D01*
X41957Y-65520D01*
X41999Y-65417D01*
X42042Y-65520D01*
X42194Y-65671D01*
X42392Y-65754D01*
X42607Y-65754D01*
X42806Y-65672D01*
X42957Y-65520D01*
X42999Y-65417D01*
X43042Y-65520D01*
X43194Y-65671D01*
X43392Y-65754D01*
X43607Y-65754D01*
X43806Y-65672D01*
X43957Y-65520D01*
X43999Y-65417D01*
X44042Y-65520D01*
X44194Y-65671D01*
X44392Y-65754D01*
X44607Y-65754D01*
X44806Y-65672D01*
X44957Y-65520D01*
X44999Y-65417D01*
X45042Y-65520D01*
X45194Y-65671D01*
X45392Y-65754D01*
X45607Y-65754D01*
X45675Y-65725D01*
X45675Y-76500D01*
X45700Y-76624D01*
X45770Y-76730D01*
X46951Y-77911D01*
X46951Y-77991D01*
X35346Y-66386D01*
X35346Y-65734D01*
X35392Y-65754D01*
X35607Y-65754D01*
X35806Y-65672D01*
X35957Y-65520D01*
X35999Y-65417D01*
X36042Y-65520D01*
X36194Y-65671D01*
X36392Y-65754D01*
X36607Y-65754D01*
X36806Y-65672D01*
X36957Y-65520D01*
X36999Y-65417D01*
X37042Y-65520D01*
X37194Y-65671D01*
X37392Y-65754D01*
X37607Y-65754D01*
X37806Y-65672D01*
X37957Y-65520D01*
X38040Y-65322D01*
X38040Y-65107D01*
X38040Y-64679D01*
X37958Y-64480D01*
X37806Y-64329D01*
X37608Y-64246D01*
X37393Y-64246D01*
X37194Y-64328D01*
X37043Y-64480D01*
X37000Y-64582D01*
X36958Y-64480D01*
X36806Y-64329D01*
X36608Y-64246D01*
X36393Y-64246D01*
X36194Y-64328D01*
X36043Y-64480D01*
X36000Y-64582D01*
X35958Y-64480D01*
X35806Y-64329D01*
X35608Y-64246D01*
X35393Y-64246D01*
X35346Y-64265D01*
X35346Y-62373D01*
X35321Y-62249D01*
X35321Y-62248D01*
X35308Y-62229D01*
X35308Y-62228D01*
X35308Y-62151D01*
X35244Y-61995D01*
X35124Y-61875D01*
X34968Y-61810D01*
X34799Y-61810D01*
X34643Y-61874D01*
X34523Y-61994D01*
X34458Y-62150D01*
X34458Y-62319D01*
X34522Y-62475D01*
X34642Y-62595D01*
X34696Y-62617D01*
X34696Y-64282D01*
X34608Y-64246D01*
X34393Y-64246D01*
X34194Y-64328D01*
X34043Y-64480D01*
X34000Y-64582D01*
X33958Y-64480D01*
X33806Y-64329D01*
X33608Y-64246D01*
X33393Y-64246D01*
X33325Y-64274D01*
X33325Y-62316D01*
X45207Y-50434D01*
X45277Y-50328D01*
X45302Y-50204D01*
X45302Y-44595D01*
X45337Y-44560D01*
X45402Y-44404D01*
X45402Y-44235D01*
X45338Y-44079D01*
X45218Y-43959D01*
X45062Y-43894D01*
X44893Y-43894D01*
X44737Y-43958D01*
X44617Y-44078D01*
X44552Y-44234D01*
X44552Y-44403D01*
X44616Y-44559D01*
X44652Y-44595D01*
X44652Y-50069D01*
X44327Y-50394D01*
X44327Y-20856D01*
X44362Y-20821D01*
X44427Y-20665D01*
X44427Y-20496D01*
X44363Y-20340D01*
X44243Y-20220D01*
X44087Y-20155D01*
X43918Y-20155D01*
X43762Y-20219D01*
X43642Y-20339D01*
X43577Y-20495D01*
X43577Y-20664D01*
X43641Y-20820D01*
X43677Y-20856D01*
X43677Y-50486D01*
X29040Y-65123D01*
X29040Y-65107D01*
X29040Y-64679D01*
X28958Y-64480D01*
X28806Y-64329D01*
X28608Y-64246D01*
X28393Y-64246D01*
X28325Y-64274D01*
X28325Y-22337D01*
X28360Y-22302D01*
X28425Y-22146D01*
X28425Y-21977D01*
X28361Y-21821D01*
X28241Y-21701D01*
X28085Y-21636D01*
X27916Y-21636D01*
X27760Y-21700D01*
X27640Y-21820D01*
X27575Y-21976D01*
X27575Y-22145D01*
X27639Y-22301D01*
X27675Y-22337D01*
X27675Y-64278D01*
X27663Y-64272D01*
X27635Y-64268D01*
X27550Y-64315D01*
X27550Y-64900D01*
X27550Y-64950D01*
X27550Y-65050D01*
X27550Y-65100D01*
X27550Y-65685D01*
X27635Y-65732D01*
X27663Y-65728D01*
X27675Y-65721D01*
X27675Y-82087D01*
X26670Y-83092D01*
X26600Y-83198D01*
X26575Y-83322D01*
X26575Y-83347D01*
X26443Y-83480D01*
X26400Y-83582D01*
X26358Y-83480D01*
X26225Y-83347D01*
X26225Y-69199D01*
X27227Y-68196D01*
X27229Y-68195D01*
X27230Y-68195D01*
X27299Y-68090D01*
X27300Y-68089D01*
X27325Y-67965D01*
X27325Y-65721D01*
X27337Y-65728D01*
X27365Y-65732D01*
X27450Y-65685D01*
X27450Y-65100D01*
X27450Y-65050D01*
X27450Y-64950D01*
X27450Y-64900D01*
X27450Y-64315D01*
X27365Y-64268D01*
X27337Y-64272D01*
X27325Y-64278D01*
X27325Y-52004D01*
X27360Y-51969D01*
X27425Y-51813D01*
X27425Y-51644D01*
X27361Y-51488D01*
X27241Y-51368D01*
X27085Y-51303D01*
X26916Y-51303D01*
X26760Y-51367D01*
X26750Y-51377D01*
X26750Y-25349D01*
X26750Y-24653D01*
X26484Y-24010D01*
X25992Y-23517D01*
X25349Y-23250D01*
X24653Y-23250D01*
X24010Y-23516D01*
X23517Y-24008D01*
X23250Y-24651D01*
X23250Y-25347D01*
X23516Y-25990D01*
X24008Y-26483D01*
X24651Y-26750D01*
X25347Y-26750D01*
X25990Y-26484D01*
X26483Y-25992D01*
X26750Y-25349D01*
X26750Y-51377D01*
X26640Y-51487D01*
X26575Y-51643D01*
X26575Y-51812D01*
X26639Y-51968D01*
X26675Y-52004D01*
X26675Y-64278D01*
X26663Y-64272D01*
X26635Y-64268D01*
X26550Y-64315D01*
X26550Y-64900D01*
X26550Y-64950D01*
X26550Y-65050D01*
X26550Y-65100D01*
X26550Y-65685D01*
X26635Y-65732D01*
X26663Y-65728D01*
X26675Y-65721D01*
X26675Y-67830D01*
X26450Y-68055D01*
X26450Y-65685D01*
X26450Y-65100D01*
X26450Y-65050D01*
X26450Y-64950D01*
X26450Y-64900D01*
X26450Y-64315D01*
X26365Y-64268D01*
X26337Y-64272D01*
X26147Y-64375D01*
X26011Y-64543D01*
X25999Y-64581D01*
X25958Y-64480D01*
X25806Y-64329D01*
X25608Y-64246D01*
X25393Y-64246D01*
X25194Y-64328D01*
X25043Y-64480D01*
X25000Y-64582D01*
X24958Y-64480D01*
X24806Y-64329D01*
X24608Y-64246D01*
X24393Y-64246D01*
X24194Y-64328D01*
X24043Y-64480D01*
X24000Y-64582D01*
X23958Y-64480D01*
X23806Y-64329D01*
X23608Y-64246D01*
X23393Y-64246D01*
X23194Y-64328D01*
X23043Y-64480D01*
X22960Y-64678D01*
X22960Y-64893D01*
X22960Y-65321D01*
X23042Y-65520D01*
X23194Y-65671D01*
X23392Y-65754D01*
X23607Y-65754D01*
X23806Y-65672D01*
X23957Y-65520D01*
X23999Y-65417D01*
X24042Y-65520D01*
X24194Y-65671D01*
X24392Y-65754D01*
X24607Y-65754D01*
X24806Y-65672D01*
X24957Y-65520D01*
X24999Y-65417D01*
X25042Y-65520D01*
X25194Y-65671D01*
X25392Y-65754D01*
X25607Y-65754D01*
X25806Y-65672D01*
X25957Y-65520D01*
X25999Y-65418D01*
X26011Y-65457D01*
X26147Y-65625D01*
X26337Y-65728D01*
X26365Y-65732D01*
X26450Y-65685D01*
X26450Y-68055D01*
X25670Y-68835D01*
X25600Y-68941D01*
X25575Y-69065D01*
X25575Y-83347D01*
X25443Y-83480D01*
X25400Y-83582D01*
X25358Y-83480D01*
X25206Y-83329D01*
X25008Y-83246D01*
X24793Y-83246D01*
X24594Y-83328D01*
X24443Y-83480D01*
X24400Y-83582D01*
X24358Y-83480D01*
X24225Y-83347D01*
X24225Y-83322D01*
X24225Y-71248D01*
X24200Y-71124D01*
X24199Y-71123D01*
X24130Y-71018D01*
X24127Y-71016D01*
X16519Y-63407D01*
X16413Y-63337D01*
X16289Y-63312D01*
X16225Y-63312D01*
X16190Y-63277D01*
X16034Y-63212D01*
X15865Y-63212D01*
X15709Y-63276D01*
X15589Y-63396D01*
X15524Y-63552D01*
X15524Y-63721D01*
X15588Y-63877D01*
X15708Y-63997D01*
X15749Y-64014D01*
X15439Y-64143D01*
X15356Y-64285D01*
X15965Y-64894D01*
X16000Y-64929D01*
X16071Y-65000D01*
X16106Y-65035D01*
X16715Y-65644D01*
X16857Y-65561D01*
X17007Y-65191D01*
X17003Y-64811D01*
X23575Y-71382D01*
X23575Y-82533D01*
X23438Y-82533D01*
X23282Y-82597D01*
X23162Y-82717D01*
X23097Y-82873D01*
X23097Y-82923D01*
X23023Y-82997D01*
X21900Y-82997D01*
X21776Y-83022D01*
X21670Y-83092D01*
X21600Y-83198D01*
X21575Y-83322D01*
X21575Y-83347D01*
X21443Y-83480D01*
X21400Y-83581D01*
X21389Y-83543D01*
X21253Y-83375D01*
X21063Y-83272D01*
X21035Y-83268D01*
X20950Y-83315D01*
X20950Y-83900D01*
X20950Y-83950D01*
X20950Y-84050D01*
X20950Y-84100D01*
X20950Y-84685D01*
X21035Y-84732D01*
X21063Y-84728D01*
X21253Y-84625D01*
X21389Y-84457D01*
X21400Y-84418D01*
X21442Y-84520D01*
X21594Y-84671D01*
X21792Y-84754D01*
X22007Y-84754D01*
X22206Y-84672D01*
X22357Y-84520D01*
X22399Y-84417D01*
X22442Y-84520D01*
X22594Y-84671D01*
X22792Y-84754D01*
X23007Y-84754D01*
X23206Y-84672D01*
X23357Y-84520D01*
X23399Y-84417D01*
X23442Y-84520D01*
X23594Y-84671D01*
X23792Y-84754D01*
X24007Y-84754D01*
X24206Y-84672D01*
X24357Y-84520D01*
X24399Y-84417D01*
X24442Y-84520D01*
X24575Y-84652D01*
X24575Y-84678D01*
X24600Y-84802D01*
X24670Y-84908D01*
X24776Y-84978D01*
X24900Y-85003D01*
X28947Y-85003D01*
X29071Y-84978D01*
X29177Y-84908D01*
X29209Y-84876D01*
X29279Y-84771D01*
X29279Y-84770D01*
X29290Y-84711D01*
X29392Y-84754D01*
X29607Y-84754D01*
X29806Y-84672D01*
X29957Y-84520D01*
X29999Y-84417D01*
X30042Y-84520D01*
X30175Y-84652D01*
X30175Y-141631D01*
X30140Y-141666D01*
X30075Y-141822D01*
X30075Y-141991D01*
X30128Y-142122D01*
X29714Y-142122D01*
X29590Y-142147D01*
X29484Y-142217D01*
X29482Y-142219D01*
X20850Y-150851D01*
X20850Y-84685D01*
X20850Y-84100D01*
X20850Y-84050D01*
X20850Y-83950D01*
X20850Y-83900D01*
X20850Y-83315D01*
X20765Y-83268D01*
X20737Y-83272D01*
X20547Y-83375D01*
X20411Y-83543D01*
X20399Y-83581D01*
X20358Y-83480D01*
X20206Y-83329D01*
X20008Y-83246D01*
X19793Y-83246D01*
X19594Y-83328D01*
X19443Y-83480D01*
X19360Y-83678D01*
X19360Y-83893D01*
X19360Y-84321D01*
X19442Y-84520D01*
X19594Y-84671D01*
X19792Y-84754D01*
X20007Y-84754D01*
X20206Y-84672D01*
X20357Y-84520D01*
X20399Y-84418D01*
X20411Y-84457D01*
X20547Y-84625D01*
X20737Y-84728D01*
X20765Y-84732D01*
X20850Y-84685D01*
X20850Y-150851D01*
X17507Y-154194D01*
X17507Y-84191D01*
X17503Y-83791D01*
X17357Y-83439D01*
X17215Y-83356D01*
X17144Y-83427D01*
X17144Y-83285D01*
X17061Y-83143D01*
X16691Y-82993D01*
X16644Y-82993D01*
X16644Y-65715D01*
X16000Y-65071D01*
X15929Y-65142D01*
X15929Y-65000D01*
X15285Y-64356D01*
X15143Y-64439D01*
X14993Y-64809D01*
X14997Y-65209D01*
X15143Y-65561D01*
X15285Y-65644D01*
X15929Y-65000D01*
X15929Y-65142D01*
X15356Y-65715D01*
X15439Y-65857D01*
X15809Y-66007D01*
X16209Y-66003D01*
X16561Y-65857D01*
X16644Y-65715D01*
X16644Y-82993D01*
X16291Y-82997D01*
X15939Y-83143D01*
X15856Y-83285D01*
X16500Y-83929D01*
X17144Y-83285D01*
X17144Y-83427D01*
X16571Y-84000D01*
X17215Y-84644D01*
X17357Y-84561D01*
X17507Y-84191D01*
X17507Y-154194D01*
X17144Y-154557D01*
X17144Y-84715D01*
X16500Y-84071D01*
X16429Y-84142D01*
X16429Y-84000D01*
X15785Y-83356D01*
X15643Y-83439D01*
X15493Y-83809D01*
X15497Y-84209D01*
X15643Y-84561D01*
X15785Y-84644D01*
X16429Y-84000D01*
X16429Y-84142D01*
X15856Y-84715D01*
X15939Y-84857D01*
X16309Y-85007D01*
X16709Y-85003D01*
X17061Y-84857D01*
X17144Y-84715D01*
X17144Y-154557D01*
X17064Y-154637D01*
X16994Y-154743D01*
X16969Y-154867D01*
X16969Y-162513D01*
X16934Y-162548D01*
X16869Y-162704D01*
X16869Y-162873D01*
X16933Y-163029D01*
X17053Y-163149D01*
X17209Y-163214D01*
X17378Y-163214D01*
X17534Y-163150D01*
X17654Y-163030D01*
X17719Y-162874D01*
X17719Y-162705D01*
X17655Y-162549D01*
X17619Y-162513D01*
X17619Y-155001D01*
X23449Y-149171D01*
X23250Y-149651D01*
X23250Y-150347D01*
X23516Y-150990D01*
X24008Y-151483D01*
X24651Y-151750D01*
X25347Y-151750D01*
X25990Y-151484D01*
X26483Y-150992D01*
X26750Y-150349D01*
X26750Y-149653D01*
X26484Y-149010D01*
X25992Y-148517D01*
X25349Y-148250D01*
X24653Y-148250D01*
X24171Y-148449D01*
X29848Y-142772D01*
X30540Y-142772D01*
X30664Y-142747D01*
X30770Y-142677D01*
X32727Y-140718D01*
X32729Y-140717D01*
X32730Y-140717D01*
X32799Y-140612D01*
X32800Y-140611D01*
X32819Y-140513D01*
X32825Y-140488D01*
X32824Y-140487D01*
X32825Y-140487D01*
X32825Y-133582D01*
X43456Y-144213D01*
X43456Y-144262D01*
X43520Y-144418D01*
X43640Y-144538D01*
X43796Y-144603D01*
X43965Y-144603D01*
X44121Y-144539D01*
X44241Y-144419D01*
X44306Y-144263D01*
X44306Y-144094D01*
X44242Y-143938D01*
X44122Y-143818D01*
X43966Y-143753D01*
X43916Y-143753D01*
X33320Y-133157D01*
X33320Y-84723D01*
X33392Y-84754D01*
X33607Y-84754D01*
X33806Y-84672D01*
X33957Y-84520D01*
X33999Y-84417D01*
X34042Y-84520D01*
X34194Y-84671D01*
X34392Y-84754D01*
X34607Y-84754D01*
X34806Y-84672D01*
X34957Y-84520D01*
X34999Y-84417D01*
X35042Y-84520D01*
X35194Y-84671D01*
X35392Y-84754D01*
X35607Y-84754D01*
X35806Y-84672D01*
X35957Y-84520D01*
X36040Y-84322D01*
X36040Y-84107D01*
X36040Y-83679D01*
X35958Y-83480D01*
X35806Y-83329D01*
X35608Y-83246D01*
X35393Y-83246D01*
X35194Y-83328D01*
X35043Y-83480D01*
X35000Y-83582D01*
X34958Y-83480D01*
X34806Y-83329D01*
X34608Y-83246D01*
X34393Y-83246D01*
X34194Y-83328D01*
X34043Y-83480D01*
X34000Y-83582D01*
X33958Y-83480D01*
X33806Y-83329D01*
X33608Y-83246D01*
X33393Y-83246D01*
X33303Y-83282D01*
X33295Y-83241D01*
X33294Y-83240D01*
X33225Y-83135D01*
X33222Y-83133D01*
X33182Y-83092D01*
X33076Y-83022D01*
X32952Y-82997D01*
X31500Y-82997D01*
X31376Y-83022D01*
X31270Y-83092D01*
X31200Y-83198D01*
X31175Y-83322D01*
X31175Y-83347D01*
X31043Y-83480D01*
X31000Y-83582D01*
X30958Y-83480D01*
X30806Y-83329D01*
X30608Y-83246D01*
X30393Y-83246D01*
X30194Y-83328D01*
X30043Y-83480D01*
X30000Y-83582D01*
X29958Y-83480D01*
X29806Y-83329D01*
X29608Y-83246D01*
X29393Y-83246D01*
X29304Y-83282D01*
X29304Y-69557D01*
X33191Y-65669D01*
X33194Y-65671D01*
X33392Y-65754D01*
X33607Y-65754D01*
X33806Y-65672D01*
X33957Y-65520D01*
X33999Y-65417D01*
X34042Y-65520D01*
X34194Y-65671D01*
X34392Y-65754D01*
X34607Y-65754D01*
X34696Y-65717D01*
X34696Y-66521D01*
X34721Y-66645D01*
X34791Y-66751D01*
X46951Y-78910D01*
X46951Y-79109D01*
X47035Y-79311D01*
X47189Y-79465D01*
X47273Y-79500D01*
X47189Y-79535D01*
X47035Y-79689D01*
X46951Y-79891D01*
X46951Y-80109D01*
X47035Y-80311D01*
X47189Y-80465D01*
X47273Y-80500D01*
X47189Y-80535D01*
X47035Y-80689D01*
X46951Y-80891D01*
X46951Y-81109D01*
X47035Y-81311D01*
X47189Y-81465D01*
X47273Y-81500D01*
X47189Y-81535D01*
X47035Y-81689D01*
X46951Y-81891D01*
X46951Y-82109D01*
X47035Y-82311D01*
X47189Y-82465D01*
X47273Y-82500D01*
X47189Y-82535D01*
X47035Y-82689D01*
X46951Y-82891D01*
X46951Y-83109D01*
X46993Y-83211D01*
X46940Y-83222D01*
X46834Y-83292D01*
X46832Y-83294D01*
X46791Y-83335D01*
X46759Y-83382D01*
X46715Y-83356D01*
X46644Y-83427D01*
X46644Y-83285D01*
X46561Y-83143D01*
X46191Y-82993D01*
X45791Y-82997D01*
X45439Y-83143D01*
X45356Y-83285D01*
X46000Y-83929D01*
X46644Y-83285D01*
X46644Y-83427D01*
X46106Y-83965D01*
X46071Y-84000D01*
X46000Y-84071D01*
X45965Y-84106D01*
X45929Y-84142D01*
X45929Y-84000D01*
X45285Y-83356D01*
X45143Y-83439D01*
X45040Y-83693D01*
X45040Y-83679D01*
X44958Y-83480D01*
X44806Y-83329D01*
X44608Y-83246D01*
X44393Y-83246D01*
X44194Y-83328D01*
X44043Y-83480D01*
X44000Y-83582D01*
X43958Y-83480D01*
X43806Y-83329D01*
X43608Y-83246D01*
X43393Y-83246D01*
X43194Y-83328D01*
X43043Y-83480D01*
X43000Y-83582D01*
X42958Y-83480D01*
X42806Y-83329D01*
X42608Y-83246D01*
X42393Y-83246D01*
X42194Y-83328D01*
X42043Y-83480D01*
X42000Y-83582D01*
X41958Y-83480D01*
X41806Y-83329D01*
X41608Y-83246D01*
X41393Y-83246D01*
X41194Y-83328D01*
X41043Y-83480D01*
X41000Y-83582D01*
X40958Y-83480D01*
X40806Y-83329D01*
X40608Y-83246D01*
X40393Y-83246D01*
X40194Y-83328D01*
X40043Y-83480D01*
X40000Y-83582D01*
X39958Y-83480D01*
X39806Y-83329D01*
X39608Y-83246D01*
X39393Y-83246D01*
X39194Y-83328D01*
X39043Y-83480D01*
X39000Y-83582D01*
X38958Y-83480D01*
X38806Y-83329D01*
X38608Y-83246D01*
X38393Y-83246D01*
X38194Y-83328D01*
X38043Y-83480D01*
X38000Y-83582D01*
X37958Y-83480D01*
X37806Y-83329D01*
X37608Y-83246D01*
X37393Y-83246D01*
X37194Y-83328D01*
X37043Y-83480D01*
X36960Y-83678D01*
X36960Y-83893D01*
X36960Y-84321D01*
X37042Y-84520D01*
X37175Y-84652D01*
X37175Y-90944D01*
X35043Y-93076D01*
X34994Y-93076D01*
X34838Y-93140D01*
X34718Y-93260D01*
X34653Y-93416D01*
X34653Y-93585D01*
X34717Y-93741D01*
X34837Y-93861D01*
X34993Y-93926D01*
X35162Y-93926D01*
X35318Y-93862D01*
X35438Y-93742D01*
X35503Y-93586D01*
X35503Y-93536D01*
X37730Y-91309D01*
X37800Y-91204D01*
X37800Y-91203D01*
X37825Y-91079D01*
X37825Y-84652D01*
X37957Y-84520D01*
X37999Y-84417D01*
X38042Y-84520D01*
X38175Y-84652D01*
X38175Y-136775D01*
X38200Y-136899D01*
X38270Y-137005D01*
X39009Y-137743D01*
X39009Y-137793D01*
X39073Y-137949D01*
X39193Y-138069D01*
X39349Y-138134D01*
X39518Y-138134D01*
X39674Y-138070D01*
X39794Y-137950D01*
X39859Y-137794D01*
X39859Y-137625D01*
X39795Y-137469D01*
X39675Y-137349D01*
X39519Y-137284D01*
X39468Y-137284D01*
X38825Y-136640D01*
X38825Y-84652D01*
X38957Y-84520D01*
X38999Y-84417D01*
X39042Y-84520D01*
X39194Y-84671D01*
X39392Y-84754D01*
X39607Y-84754D01*
X39806Y-84672D01*
X39957Y-84520D01*
X39999Y-84417D01*
X40042Y-84520D01*
X40194Y-84671D01*
X40392Y-84754D01*
X40607Y-84754D01*
X40806Y-84672D01*
X40957Y-84520D01*
X40999Y-84417D01*
X41042Y-84520D01*
X41194Y-84671D01*
X41392Y-84754D01*
X41607Y-84754D01*
X41806Y-84672D01*
X41957Y-84520D01*
X41999Y-84417D01*
X42042Y-84520D01*
X42194Y-84671D01*
X42392Y-84754D01*
X42607Y-84754D01*
X42806Y-84672D01*
X42957Y-84520D01*
X42999Y-84417D01*
X43042Y-84520D01*
X43194Y-84671D01*
X43392Y-84754D01*
X43607Y-84754D01*
X43806Y-84672D01*
X43957Y-84520D01*
X43999Y-84417D01*
X44042Y-84520D01*
X44194Y-84671D01*
X44392Y-84754D01*
X44607Y-84754D01*
X44806Y-84672D01*
X44957Y-84520D01*
X45040Y-84322D01*
X45040Y-84312D01*
X45143Y-84561D01*
X45285Y-84644D01*
X45929Y-84000D01*
X45929Y-84142D01*
X45356Y-84715D01*
X45439Y-84857D01*
X45809Y-85007D01*
X46188Y-85003D01*
X43662Y-87530D01*
X41692Y-87530D01*
X41657Y-87495D01*
X41501Y-87430D01*
X41332Y-87430D01*
X41176Y-87494D01*
X41056Y-87614D01*
X40991Y-87770D01*
X40991Y-87939D01*
X41055Y-88095D01*
X41175Y-88215D01*
X41331Y-88280D01*
X41500Y-88280D01*
X41656Y-88216D01*
X41692Y-88180D01*
X43797Y-88180D01*
X43921Y-88155D01*
X44027Y-88085D01*
X47251Y-84861D01*
X47321Y-84756D01*
X47321Y-84755D01*
X47346Y-84631D01*
X47346Y-84530D01*
X47391Y-84549D01*
X47609Y-84549D01*
X47811Y-84465D01*
X47965Y-84311D01*
X48000Y-84226D01*
X48035Y-84311D01*
X48189Y-84465D01*
X48391Y-84549D01*
X48609Y-84549D01*
X48811Y-84465D01*
X48887Y-84389D01*
X48887Y-139214D01*
X48852Y-139249D01*
X48787Y-139405D01*
X48787Y-139574D01*
X48851Y-139730D01*
X48971Y-139850D01*
X49127Y-139915D01*
X49266Y-139915D01*
X49266Y-152538D01*
X39737Y-162067D01*
X39688Y-162067D01*
X39532Y-162131D01*
X39412Y-162251D01*
X39347Y-162407D01*
X39347Y-162576D01*
X39411Y-162732D01*
X39531Y-162852D01*
X39687Y-162917D01*
X39856Y-162917D01*
X40012Y-162853D01*
X40132Y-162733D01*
X40197Y-162577D01*
X40197Y-162527D01*
X49821Y-152903D01*
X49891Y-152798D01*
X49891Y-152797D01*
X49916Y-152673D01*
X49916Y-110782D01*
X58963Y-119829D01*
X59068Y-119899D01*
X59069Y-119899D01*
X59193Y-119924D01*
X60363Y-119924D01*
X60398Y-119959D01*
X60554Y-120024D01*
X60723Y-120024D01*
X60879Y-119960D01*
X60999Y-119840D01*
X61064Y-119684D01*
X61064Y-119515D01*
X61000Y-119359D01*
X60880Y-119239D01*
X60724Y-119174D01*
X60555Y-119174D01*
X60399Y-119238D01*
X60363Y-119274D01*
X59328Y-119274D01*
X50218Y-110164D01*
X50218Y-110051D01*
X50330Y-110051D01*
X50486Y-109987D01*
X50606Y-109867D01*
X50671Y-109711D01*
X50671Y-109542D01*
X50607Y-109386D01*
X50571Y-109350D01*
X50571Y-76848D01*
X51181Y-77458D01*
X51181Y-79002D01*
X51206Y-79126D01*
X51276Y-79232D01*
X64262Y-92218D01*
X64262Y-137401D01*
X64227Y-137436D01*
X64162Y-137592D01*
X64162Y-137761D01*
X64226Y-137917D01*
X64346Y-138037D01*
X64502Y-138102D01*
X64671Y-138102D01*
X64827Y-138038D01*
X64947Y-137918D01*
X65012Y-137762D01*
X65012Y-137593D01*
X64948Y-137437D01*
X64912Y-137401D01*
X64912Y-92121D01*
X89097Y-116306D01*
X89097Y-162566D01*
X89062Y-162601D01*
X88997Y-162757D01*
X88997Y-162926D01*
X89061Y-163082D01*
X89181Y-163202D01*
X89337Y-163267D01*
X89506Y-163267D01*
X89662Y-163203D01*
X89782Y-163083D01*
X89847Y-162927D01*
X89847Y-162758D01*
X89783Y-162602D01*
X89747Y-162566D01*
X89747Y-116256D01*
X111533Y-138042D01*
X111639Y-138112D01*
X111763Y-138137D01*
X157927Y-138137D01*
X157962Y-138172D01*
X158118Y-138237D01*
X158287Y-138237D01*
X158443Y-138173D01*
X158563Y-138053D01*
X158628Y-137897D01*
X158628Y-164675D01*
X151750Y-164675D01*
X151750Y-150349D01*
X151750Y-149653D01*
X151484Y-149010D01*
X150992Y-148517D01*
X150349Y-148250D01*
X149653Y-148250D01*
X149010Y-148516D01*
X148517Y-149008D01*
X148250Y-149651D01*
X148250Y-150347D01*
X148516Y-150990D01*
X149008Y-151483D01*
X149651Y-151750D01*
X150347Y-151750D01*
X150990Y-151484D01*
X151483Y-150992D01*
X151750Y-150349D01*
X151750Y-164675D01*
X10549Y-164675D01*
X10325Y-25740D01*
X10325Y-10325D01*
X164675Y-10325D01*
X164675Y-164675D01*
X164675Y-164675D01*
G37*
G54D17*
X164675Y-164675D02*
X158628Y-164675D01*
X158628Y-137897D01*
X158628Y-137728D01*
X158564Y-137572D01*
X158444Y-137452D01*
X158288Y-137387D01*
X158135Y-137387D01*
X158135Y-38035D01*
X158135Y-37866D01*
X158071Y-37710D01*
X157951Y-37590D01*
X157795Y-37525D01*
X157626Y-37525D01*
X157470Y-37589D01*
X157350Y-37709D01*
X157285Y-37865D01*
X157285Y-37915D01*
X151750Y-43450D01*
X151750Y-25349D01*
X151750Y-24653D01*
X151484Y-24010D01*
X150992Y-23517D01*
X150349Y-23250D01*
X149653Y-23250D01*
X149010Y-23516D01*
X148517Y-24008D01*
X148250Y-24651D01*
X148250Y-25347D01*
X148516Y-25990D01*
X149008Y-26483D01*
X149651Y-26750D01*
X150347Y-26750D01*
X150990Y-26484D01*
X151483Y-25992D01*
X151750Y-25349D01*
X151750Y-43450D01*
X120856Y-74344D01*
X115059Y-74344D01*
X115059Y-13313D01*
X115059Y-13144D01*
X114995Y-12988D01*
X114875Y-12868D01*
X114719Y-12803D01*
X114550Y-12803D01*
X114394Y-12867D01*
X114274Y-12987D01*
X114209Y-13143D01*
X114209Y-13312D01*
X114273Y-13468D01*
X114309Y-13504D01*
X114309Y-15792D01*
X55411Y-74690D01*
X55362Y-74690D01*
X55206Y-74754D01*
X55086Y-74874D01*
X55021Y-75030D01*
X55021Y-75199D01*
X55085Y-75355D01*
X55205Y-75475D01*
X55361Y-75540D01*
X55530Y-75540D01*
X55686Y-75476D01*
X55806Y-75356D01*
X55871Y-75200D01*
X55871Y-75149D01*
X114861Y-16158D01*
X114863Y-16157D01*
X114864Y-16157D01*
X114933Y-16052D01*
X114934Y-16051D01*
X114959Y-15927D01*
X114959Y-13504D01*
X114994Y-13469D01*
X115059Y-13313D01*
X115059Y-74344D01*
X79104Y-74344D01*
X79069Y-74309D01*
X78913Y-74244D01*
X78744Y-74244D01*
X78588Y-74308D01*
X78468Y-74428D01*
X78403Y-74584D01*
X78403Y-74753D01*
X78467Y-74909D01*
X78587Y-75029D01*
X78743Y-75094D01*
X78912Y-75094D01*
X79068Y-75030D01*
X79104Y-74994D01*
X120991Y-74994D01*
X121115Y-74969D01*
X121221Y-74899D01*
X157744Y-38375D01*
X157794Y-38375D01*
X157950Y-38311D01*
X158070Y-38191D01*
X158135Y-38035D01*
X158135Y-137387D01*
X158119Y-137387D01*
X157963Y-137451D01*
X157927Y-137487D01*
X111898Y-137487D01*
X86510Y-112099D01*
X86545Y-112106D01*
X87178Y-112106D01*
X87213Y-112141D01*
X87369Y-112206D01*
X87538Y-112206D01*
X87694Y-112142D01*
X87814Y-112022D01*
X87879Y-111866D01*
X87879Y-111697D01*
X87815Y-111541D01*
X87695Y-111421D01*
X87539Y-111356D01*
X87370Y-111356D01*
X87214Y-111420D01*
X87178Y-111456D01*
X86680Y-111456D01*
X63848Y-88624D01*
X115074Y-88624D01*
X139162Y-112711D01*
X139162Y-112761D01*
X139226Y-112917D01*
X139346Y-113037D01*
X139502Y-113102D01*
X139671Y-113102D01*
X139827Y-113038D01*
X139947Y-112918D01*
X140012Y-112762D01*
X140012Y-112593D01*
X139948Y-112437D01*
X139828Y-112317D01*
X139672Y-112252D01*
X139621Y-112252D01*
X115439Y-88069D01*
X115333Y-87999D01*
X115209Y-87974D01*
X114851Y-87974D01*
X114864Y-87945D01*
X114864Y-87776D01*
X114800Y-87620D01*
X114680Y-87500D01*
X114524Y-87435D01*
X114355Y-87435D01*
X114199Y-87499D01*
X114163Y-87535D01*
X66113Y-87535D01*
X58164Y-79585D01*
X58274Y-79476D01*
X58339Y-79320D01*
X58339Y-79270D01*
X65172Y-72437D01*
X65242Y-72332D01*
X65242Y-72331D01*
X65267Y-72207D01*
X65267Y-68805D01*
X65302Y-68770D01*
X65367Y-68614D01*
X65367Y-68445D01*
X65303Y-68289D01*
X65183Y-68169D01*
X65027Y-68104D01*
X64858Y-68104D01*
X64702Y-68168D01*
X64582Y-68288D01*
X64517Y-68444D01*
X64517Y-68613D01*
X64581Y-68769D01*
X64617Y-68805D01*
X64617Y-72072D01*
X57879Y-78810D01*
X57830Y-78810D01*
X57674Y-78874D01*
X57563Y-78984D01*
X49849Y-71270D01*
X49743Y-71200D01*
X49619Y-71175D01*
X49021Y-71175D01*
X49049Y-71109D01*
X49049Y-70891D01*
X48965Y-70689D01*
X48811Y-70535D01*
X48726Y-70500D01*
X48811Y-70465D01*
X48965Y-70311D01*
X49049Y-70109D01*
X49049Y-69891D01*
X49021Y-69825D01*
X57642Y-69825D01*
X57766Y-69800D01*
X57872Y-69730D01*
X64329Y-63272D01*
X64379Y-63272D01*
X64535Y-63208D01*
X64655Y-63088D01*
X64720Y-62932D01*
X64720Y-62763D01*
X64656Y-62607D01*
X64536Y-62487D01*
X64380Y-62422D01*
X64211Y-62422D01*
X64055Y-62486D01*
X63935Y-62606D01*
X63870Y-62762D01*
X63870Y-62812D01*
X57507Y-69175D01*
X49021Y-69175D01*
X49049Y-69109D01*
X49049Y-68891D01*
X48972Y-68708D01*
X90416Y-27265D01*
X90486Y-27160D01*
X90486Y-27159D01*
X90511Y-27035D01*
X90511Y-16203D01*
X90546Y-16168D01*
X90611Y-16012D01*
X90611Y-15843D01*
X90547Y-15687D01*
X90427Y-15567D01*
X90271Y-15502D01*
X90102Y-15502D01*
X89946Y-15566D01*
X89826Y-15686D01*
X89761Y-15842D01*
X89761Y-16011D01*
X89825Y-16167D01*
X89861Y-16203D01*
X89861Y-26900D01*
X49820Y-66941D01*
X49820Y-41682D01*
X49795Y-41558D01*
X49794Y-41557D01*
X49725Y-41452D01*
X49722Y-41450D01*
X47589Y-39316D01*
X47589Y-39267D01*
X47525Y-39111D01*
X47405Y-38991D01*
X47249Y-38926D01*
X47080Y-38926D01*
X46924Y-38990D01*
X46804Y-39110D01*
X46739Y-39266D01*
X46739Y-39435D01*
X46803Y-39591D01*
X46923Y-39711D01*
X47079Y-39776D01*
X47129Y-39776D01*
X49170Y-41816D01*
X49170Y-64193D01*
X49168Y-64191D01*
X49118Y-64240D01*
X49061Y-64143D01*
X48691Y-63993D01*
X48291Y-63997D01*
X47939Y-64143D01*
X47856Y-64285D01*
X48465Y-64894D01*
X48500Y-64929D01*
X48571Y-65000D01*
X48500Y-65071D01*
X48465Y-65106D01*
X48429Y-65142D01*
X48429Y-65000D01*
X47785Y-64356D01*
X47643Y-64439D01*
X47493Y-64809D01*
X47497Y-65209D01*
X47643Y-65561D01*
X47785Y-65644D01*
X48429Y-65000D01*
X48429Y-65142D01*
X47856Y-65715D01*
X47939Y-65857D01*
X48309Y-66007D01*
X48709Y-66003D01*
X49061Y-65857D01*
X49118Y-65759D01*
X49144Y-65785D01*
X49168Y-65809D01*
X49170Y-65807D01*
X49170Y-66870D01*
X49144Y-66895D01*
X49038Y-67001D01*
X49032Y-66866D01*
X48972Y-66719D01*
X48878Y-66692D01*
X48808Y-66762D01*
X48808Y-66622D01*
X48781Y-66528D01*
X48579Y-66457D01*
X48366Y-66468D01*
X48219Y-66528D01*
X48192Y-66622D01*
X48500Y-66929D01*
X48808Y-66622D01*
X48808Y-66762D01*
X48571Y-67000D01*
X48500Y-67071D01*
X48429Y-67141D01*
X48429Y-67000D01*
X48122Y-66692D01*
X48028Y-66719D01*
X48002Y-66792D01*
X47972Y-66719D01*
X47878Y-66692D01*
X47808Y-66762D01*
X47808Y-66622D01*
X47781Y-66528D01*
X47579Y-66457D01*
X47366Y-66468D01*
X47219Y-66528D01*
X47192Y-66622D01*
X47500Y-66929D01*
X47808Y-66622D01*
X47808Y-66762D01*
X47571Y-67000D01*
X47878Y-67308D01*
X47972Y-67281D01*
X47997Y-67207D01*
X48028Y-67281D01*
X48122Y-67308D01*
X48429Y-67000D01*
X48429Y-67141D01*
X48192Y-67378D01*
X48219Y-67472D01*
X48284Y-67495D01*
X48189Y-67535D01*
X48035Y-67689D01*
X48000Y-67773D01*
X47965Y-67689D01*
X47811Y-67535D01*
X47719Y-67497D01*
X47781Y-67472D01*
X47808Y-67378D01*
X47500Y-67071D01*
X47429Y-67141D01*
X47429Y-67000D01*
X47122Y-66692D01*
X47028Y-66719D01*
X46957Y-66921D01*
X46968Y-67134D01*
X47028Y-67281D01*
X47122Y-67308D01*
X47429Y-67000D01*
X47429Y-67141D01*
X47192Y-67378D01*
X47219Y-67472D01*
X47284Y-67495D01*
X47189Y-67535D01*
X47035Y-67689D01*
X46951Y-67891D01*
X46951Y-68109D01*
X47035Y-68311D01*
X47189Y-68465D01*
X47273Y-68500D01*
X47189Y-68535D01*
X47035Y-68689D01*
X46951Y-68891D01*
X46951Y-69109D01*
X47035Y-69311D01*
X47189Y-69465D01*
X47273Y-69500D01*
X47189Y-69535D01*
X47035Y-69689D01*
X46951Y-69891D01*
X46951Y-70109D01*
X46987Y-70196D01*
X46802Y-70196D01*
X46801Y-70196D01*
X46776Y-70201D01*
X46678Y-70221D01*
X46572Y-70291D01*
X46570Y-70293D01*
X46519Y-70344D01*
X46449Y-70450D01*
X46424Y-70574D01*
X46424Y-75951D01*
X46449Y-76075D01*
X46519Y-76181D01*
X47032Y-76694D01*
X46951Y-76891D01*
X46951Y-76991D01*
X46325Y-76365D01*
X46325Y-65725D01*
X46392Y-65754D01*
X46607Y-65754D01*
X46806Y-65672D01*
X46957Y-65520D01*
X47040Y-65322D01*
X47040Y-65107D01*
X47040Y-64679D01*
X46958Y-64480D01*
X46806Y-64329D01*
X46608Y-64246D01*
X46393Y-64246D01*
X46325Y-64274D01*
X46325Y-20068D01*
X46454Y-20016D01*
X46574Y-19896D01*
X46639Y-19740D01*
X46639Y-19571D01*
X46575Y-19415D01*
X46455Y-19295D01*
X46299Y-19230D01*
X46130Y-19230D01*
X45974Y-19294D01*
X45854Y-19414D01*
X45789Y-19570D01*
X45789Y-19620D01*
X45770Y-19639D01*
X45700Y-19745D01*
X45675Y-19869D01*
X45675Y-64274D01*
X45608Y-64246D01*
X45393Y-64246D01*
X45194Y-64328D01*
X45043Y-64480D01*
X45000Y-64582D01*
X44958Y-64480D01*
X44806Y-64329D01*
X44608Y-64246D01*
X44393Y-64246D01*
X44194Y-64328D01*
X44043Y-64480D01*
X44000Y-64582D01*
X43958Y-64480D01*
X43806Y-64329D01*
X43608Y-64246D01*
X43393Y-64246D01*
X43194Y-64328D01*
X43043Y-64480D01*
X43000Y-64582D01*
X42958Y-64480D01*
X42806Y-64329D01*
X42608Y-64246D01*
X42393Y-64246D01*
X42194Y-64328D01*
X42043Y-64480D01*
X42000Y-64582D01*
X41958Y-64480D01*
X41806Y-64329D01*
X41608Y-64246D01*
X41393Y-64246D01*
X41194Y-64328D01*
X41043Y-64480D01*
X41000Y-64582D01*
X40958Y-64480D01*
X40806Y-64329D01*
X40608Y-64246D01*
X40393Y-64246D01*
X40194Y-64328D01*
X40043Y-64480D01*
X40000Y-64582D01*
X39958Y-64480D01*
X39806Y-64329D01*
X39608Y-64246D01*
X39393Y-64246D01*
X39194Y-64328D01*
X39043Y-64480D01*
X38960Y-64678D01*
X38960Y-64893D01*
X38960Y-65321D01*
X39042Y-65520D01*
X39194Y-65671D01*
X39392Y-65754D01*
X39607Y-65754D01*
X39806Y-65672D01*
X39957Y-65520D01*
X39999Y-65417D01*
X40042Y-65520D01*
X40194Y-65671D01*
X40392Y-65754D01*
X40607Y-65754D01*
X40806Y-65672D01*
X40957Y-65520D01*
X40999Y-65417D01*
X41042Y-65520D01*
X41194Y-65671D01*
X41392Y-65754D01*
X41607Y-65754D01*
X41806Y-65672D01*
X41957Y-65520D01*
X41999Y-65417D01*
X42042Y-65520D01*
X42194Y-65671D01*
X42392Y-65754D01*
X42607Y-65754D01*
X42806Y-65672D01*
X42957Y-65520D01*
X42999Y-65417D01*
X43042Y-65520D01*
X43194Y-65671D01*
X43392Y-65754D01*
X43607Y-65754D01*
X43806Y-65672D01*
X43957Y-65520D01*
X43999Y-65417D01*
X44042Y-65520D01*
X44194Y-65671D01*
X44392Y-65754D01*
X44607Y-65754D01*
X44806Y-65672D01*
X44957Y-65520D01*
X44999Y-65417D01*
X45042Y-65520D01*
X45194Y-65671D01*
X45392Y-65754D01*
X45607Y-65754D01*
X45675Y-65725D01*
X45675Y-76500D01*
X45700Y-76624D01*
X45770Y-76730D01*
X46951Y-77911D01*
X46951Y-77991D01*
X35346Y-66386D01*
X35346Y-65734D01*
X35392Y-65754D01*
X35607Y-65754D01*
X35806Y-65672D01*
X35957Y-65520D01*
X35999Y-65417D01*
X36042Y-65520D01*
X36194Y-65671D01*
X36392Y-65754D01*
X36607Y-65754D01*
X36806Y-65672D01*
X36957Y-65520D01*
X36999Y-65417D01*
X37042Y-65520D01*
X37194Y-65671D01*
X37392Y-65754D01*
X37607Y-65754D01*
X37806Y-65672D01*
X37957Y-65520D01*
X38040Y-65322D01*
X38040Y-65107D01*
X38040Y-64679D01*
X37958Y-64480D01*
X37806Y-64329D01*
X37608Y-64246D01*
X37393Y-64246D01*
X37194Y-64328D01*
X37043Y-64480D01*
X37000Y-64582D01*
X36958Y-64480D01*
X36806Y-64329D01*
X36608Y-64246D01*
X36393Y-64246D01*
X36194Y-64328D01*
X36043Y-64480D01*
X36000Y-64582D01*
X35958Y-64480D01*
X35806Y-64329D01*
X35608Y-64246D01*
X35393Y-64246D01*
X35346Y-64265D01*
X35346Y-62373D01*
X35321Y-62249D01*
X35321Y-62248D01*
X35308Y-62229D01*
X35308Y-62228D01*
X35308Y-62151D01*
X35244Y-61995D01*
X35124Y-61875D01*
X34968Y-61810D01*
X34799Y-61810D01*
X34643Y-61874D01*
X34523Y-61994D01*
X34458Y-62150D01*
X34458Y-62319D01*
X34522Y-62475D01*
X34642Y-62595D01*
X34696Y-62617D01*
X34696Y-64282D01*
X34608Y-64246D01*
X34393Y-64246D01*
X34194Y-64328D01*
X34043Y-64480D01*
X34000Y-64582D01*
X33958Y-64480D01*
X33806Y-64329D01*
X33608Y-64246D01*
X33393Y-64246D01*
X33325Y-64274D01*
X33325Y-62316D01*
X45207Y-50434D01*
X45277Y-50328D01*
X45302Y-50204D01*
X45302Y-44595D01*
X45337Y-44560D01*
X45402Y-44404D01*
X45402Y-44235D01*
X45338Y-44079D01*
X45218Y-43959D01*
X45062Y-43894D01*
X44893Y-43894D01*
X44737Y-43958D01*
X44617Y-44078D01*
X44552Y-44234D01*
X44552Y-44403D01*
X44616Y-44559D01*
X44652Y-44595D01*
X44652Y-50069D01*
X44327Y-50394D01*
X44327Y-20856D01*
X44362Y-20821D01*
X44427Y-20665D01*
X44427Y-20496D01*
X44363Y-20340D01*
X44243Y-20220D01*
X44087Y-20155D01*
X43918Y-20155D01*
X43762Y-20219D01*
X43642Y-20339D01*
X43577Y-20495D01*
X43577Y-20664D01*
X43641Y-20820D01*
X43677Y-20856D01*
X43677Y-50486D01*
X29040Y-65123D01*
X29040Y-65107D01*
X29040Y-64679D01*
X28958Y-64480D01*
X28806Y-64329D01*
X28608Y-64246D01*
X28393Y-64246D01*
X28325Y-64274D01*
X28325Y-22337D01*
X28360Y-22302D01*
X28425Y-22146D01*
X28425Y-21977D01*
X28361Y-21821D01*
X28241Y-21701D01*
X28085Y-21636D01*
X27916Y-21636D01*
X27760Y-21700D01*
X27640Y-21820D01*
X27575Y-21976D01*
X27575Y-22145D01*
X27639Y-22301D01*
X27675Y-22337D01*
X27675Y-64278D01*
X27663Y-64272D01*
X27635Y-64268D01*
X27550Y-64315D01*
X27550Y-64900D01*
X27550Y-64950D01*
X27550Y-65050D01*
X27550Y-65100D01*
X27550Y-65685D01*
X27635Y-65732D01*
X27663Y-65728D01*
X27675Y-65721D01*
X27675Y-82087D01*
X26670Y-83092D01*
X26600Y-83198D01*
X26575Y-83322D01*
X26575Y-83347D01*
X26443Y-83480D01*
X26400Y-83582D01*
X26358Y-83480D01*
X26225Y-83347D01*
X26225Y-69199D01*
X27227Y-68196D01*
X27229Y-68195D01*
X27230Y-68195D01*
X27299Y-68090D01*
X27300Y-68089D01*
X27325Y-67965D01*
X27325Y-65721D01*
X27337Y-65728D01*
X27365Y-65732D01*
X27450Y-65685D01*
X27450Y-65100D01*
X27450Y-65050D01*
X27450Y-64950D01*
X27450Y-64900D01*
X27450Y-64315D01*
X27365Y-64268D01*
X27337Y-64272D01*
X27325Y-64278D01*
X27325Y-52004D01*
X27360Y-51969D01*
X27425Y-51813D01*
X27425Y-51644D01*
X27361Y-51488D01*
X27241Y-51368D01*
X27085Y-51303D01*
X26916Y-51303D01*
X26760Y-51367D01*
X26750Y-51377D01*
X26750Y-25349D01*
X26750Y-24653D01*
X26484Y-24010D01*
X25992Y-23517D01*
X25349Y-23250D01*
X24653Y-23250D01*
X24010Y-23516D01*
X23517Y-24008D01*
X23250Y-24651D01*
X23250Y-25347D01*
X23516Y-25990D01*
X24008Y-26483D01*
X24651Y-26750D01*
X25347Y-26750D01*
X25990Y-26484D01*
X26483Y-25992D01*
X26750Y-25349D01*
X26750Y-51377D01*
X26640Y-51487D01*
X26575Y-51643D01*
X26575Y-51812D01*
X26639Y-51968D01*
X26675Y-52004D01*
X26675Y-64278D01*
X26663Y-64272D01*
X26635Y-64268D01*
X26550Y-64315D01*
X26550Y-64900D01*
X26550Y-64950D01*
X26550Y-65050D01*
X26550Y-65100D01*
X26550Y-65685D01*
X26635Y-65732D01*
X26663Y-65728D01*
X26675Y-65721D01*
X26675Y-67830D01*
X26450Y-68055D01*
X26450Y-65685D01*
X26450Y-65100D01*
X26450Y-65050D01*
X26450Y-64950D01*
X26450Y-64900D01*
X26450Y-64315D01*
X26365Y-64268D01*
X26337Y-64272D01*
X26147Y-64375D01*
X26011Y-64543D01*
X25999Y-64581D01*
X25958Y-64480D01*
X25806Y-64329D01*
X25608Y-64246D01*
X25393Y-64246D01*
X25194Y-64328D01*
X25043Y-64480D01*
X25000Y-64582D01*
X24958Y-64480D01*
X24806Y-64329D01*
X24608Y-64246D01*
X24393Y-64246D01*
X24194Y-64328D01*
X24043Y-64480D01*
X24000Y-64582D01*
X23958Y-64480D01*
X23806Y-64329D01*
X23608Y-64246D01*
X23393Y-64246D01*
X23194Y-64328D01*
X23043Y-64480D01*
X22960Y-64678D01*
X22960Y-64893D01*
X22960Y-65321D01*
X23042Y-65520D01*
X23194Y-65671D01*
X23392Y-65754D01*
X23607Y-65754D01*
X23806Y-65672D01*
X23957Y-65520D01*
X23999Y-65417D01*
X24042Y-65520D01*
X24194Y-65671D01*
X24392Y-65754D01*
X24607Y-65754D01*
X24806Y-65672D01*
X24957Y-65520D01*
X24999Y-65417D01*
X25042Y-65520D01*
X25194Y-65671D01*
X25392Y-65754D01*
X25607Y-65754D01*
X25806Y-65672D01*
X25957Y-65520D01*
X25999Y-65418D01*
X26011Y-65457D01*
X26147Y-65625D01*
X26337Y-65728D01*
X26365Y-65732D01*
X26450Y-65685D01*
X26450Y-68055D01*
X25670Y-68835D01*
X25600Y-68941D01*
X25575Y-69065D01*
X25575Y-83347D01*
X25443Y-83480D01*
X25400Y-83582D01*
X25358Y-83480D01*
X25206Y-83329D01*
X25008Y-83246D01*
X24793Y-83246D01*
X24594Y-83328D01*
X24443Y-83480D01*
X24400Y-83582D01*
X24358Y-83480D01*
X24225Y-83347D01*
X24225Y-83322D01*
X24225Y-71248D01*
X24200Y-71124D01*
X24199Y-71123D01*
X24130Y-71018D01*
X24127Y-71016D01*
X16519Y-63407D01*
X16413Y-63337D01*
X16289Y-63312D01*
X16225Y-63312D01*
X16190Y-63277D01*
X16034Y-63212D01*
X15865Y-63212D01*
X15709Y-63276D01*
X15589Y-63396D01*
X15524Y-63552D01*
X15524Y-63721D01*
X15588Y-63877D01*
X15708Y-63997D01*
X15749Y-64014D01*
X15439Y-64143D01*
X15356Y-64285D01*
X15965Y-64894D01*
X16000Y-64929D01*
X16071Y-65000D01*
X16106Y-65035D01*
X16715Y-65644D01*
X16857Y-65561D01*
X17007Y-65191D01*
X17003Y-64811D01*
X23575Y-71382D01*
X23575Y-82533D01*
X23438Y-82533D01*
X23282Y-82597D01*
X23162Y-82717D01*
X23097Y-82873D01*
X23097Y-82923D01*
X23023Y-82997D01*
X21900Y-82997D01*
X21776Y-83022D01*
X21670Y-83092D01*
X21600Y-83198D01*
X21575Y-83322D01*
X21575Y-83347D01*
X21443Y-83480D01*
X21400Y-83581D01*
X21389Y-83543D01*
X21253Y-83375D01*
X21063Y-83272D01*
X21035Y-83268D01*
X20950Y-83315D01*
X20950Y-83900D01*
X20950Y-83950D01*
X20950Y-84050D01*
X20950Y-84100D01*
X20950Y-84685D01*
X21035Y-84732D01*
X21063Y-84728D01*
X21253Y-84625D01*
X21389Y-84457D01*
X21400Y-84418D01*
X21442Y-84520D01*
X21594Y-84671D01*
X21792Y-84754D01*
X22007Y-84754D01*
X22206Y-84672D01*
X22357Y-84520D01*
X22399Y-84417D01*
X22442Y-84520D01*
X22594Y-84671D01*
X22792Y-84754D01*
X23007Y-84754D01*
X23206Y-84672D01*
X23357Y-84520D01*
X23399Y-84417D01*
X23442Y-84520D01*
X23594Y-84671D01*
X23792Y-84754D01*
X24007Y-84754D01*
X24206Y-84672D01*
X24357Y-84520D01*
X24399Y-84417D01*
X24442Y-84520D01*
X24575Y-84652D01*
X24575Y-84678D01*
X24600Y-84802D01*
X24670Y-84908D01*
X24776Y-84978D01*
X24900Y-85003D01*
X28947Y-85003D01*
X29071Y-84978D01*
X29177Y-84908D01*
X29209Y-84876D01*
X29279Y-84771D01*
X29279Y-84770D01*
X29290Y-84711D01*
X29392Y-84754D01*
X29607Y-84754D01*
X29806Y-84672D01*
X29957Y-84520D01*
X29999Y-84417D01*
X30042Y-84520D01*
X30175Y-84652D01*
X30175Y-141631D01*
X30140Y-141666D01*
X30075Y-141822D01*
X30075Y-141991D01*
X30128Y-142122D01*
X29714Y-142122D01*
X29590Y-142147D01*
X29484Y-142217D01*
X29482Y-142219D01*
X20850Y-150851D01*
X20850Y-84685D01*
X20850Y-84100D01*
X20850Y-84050D01*
X20850Y-83950D01*
X20850Y-83900D01*
X20850Y-83315D01*
X20765Y-83268D01*
X20737Y-83272D01*
X20547Y-83375D01*
X20411Y-83543D01*
X20399Y-83581D01*
X20358Y-83480D01*
X20206Y-83329D01*
X20008Y-83246D01*
X19793Y-83246D01*
X19594Y-83328D01*
X19443Y-83480D01*
X19360Y-83678D01*
X19360Y-83893D01*
X19360Y-84321D01*
X19442Y-84520D01*
X19594Y-84671D01*
X19792Y-84754D01*
X20007Y-84754D01*
X20206Y-84672D01*
X20357Y-84520D01*
X20399Y-84418D01*
X20411Y-84457D01*
X20547Y-84625D01*
X20737Y-84728D01*
X20765Y-84732D01*
X20850Y-84685D01*
X20850Y-150851D01*
X17507Y-154194D01*
X17507Y-84191D01*
X17503Y-83791D01*
X17357Y-83439D01*
X17215Y-83356D01*
X17144Y-83427D01*
X17144Y-83285D01*
X17061Y-83143D01*
X16691Y-82993D01*
X16644Y-82993D01*
X16644Y-65715D01*
X16000Y-65071D01*
X15929Y-65142D01*
X15929Y-65000D01*
X15285Y-64356D01*
X15143Y-64439D01*
X14993Y-64809D01*
X14997Y-65209D01*
X15143Y-65561D01*
X15285Y-65644D01*
X15929Y-65000D01*
X15929Y-65142D01*
X15356Y-65715D01*
X15439Y-65857D01*
X15809Y-66007D01*
X16209Y-66003D01*
X16561Y-65857D01*
X16644Y-65715D01*
X16644Y-82993D01*
X16291Y-82997D01*
X15939Y-83143D01*
X15856Y-83285D01*
X16500Y-83929D01*
X17144Y-83285D01*
X17144Y-83427D01*
X16571Y-84000D01*
X17215Y-84644D01*
X17357Y-84561D01*
X17507Y-84191D01*
X17507Y-154194D01*
X17144Y-154557D01*
X17144Y-84715D01*
X16500Y-84071D01*
X16429Y-84142D01*
X16429Y-84000D01*
X15785Y-83356D01*
X15643Y-83439D01*
X15493Y-83809D01*
X15497Y-84209D01*
X15643Y-84561D01*
X15785Y-84644D01*
X16429Y-84000D01*
X16429Y-84142D01*
X15856Y-84715D01*
X15939Y-84857D01*
X16309Y-85007D01*
X16709Y-85003D01*
X17061Y-84857D01*
X17144Y-84715D01*
X17144Y-154557D01*
X17064Y-154637D01*
X16994Y-154743D01*
X16969Y-154867D01*
X16969Y-162513D01*
X16934Y-162548D01*
X16869Y-162704D01*
X16869Y-162873D01*
X16933Y-163029D01*
X17053Y-163149D01*
X17209Y-163214D01*
X17378Y-163214D01*
X17534Y-163150D01*
X17654Y-163030D01*
X17719Y-162874D01*
X17719Y-162705D01*
X17655Y-162549D01*
X17619Y-162513D01*
X17619Y-155001D01*
X23449Y-149171D01*
X23250Y-149651D01*
X23250Y-150347D01*
X23516Y-150990D01*
X24008Y-151483D01*
X24651Y-151750D01*
X25347Y-151750D01*
X25990Y-151484D01*
X26483Y-150992D01*
X26750Y-150349D01*
X26750Y-149653D01*
X26484Y-149010D01*
X25992Y-148517D01*
X25349Y-148250D01*
X24653Y-148250D01*
X24171Y-148449D01*
X29848Y-142772D01*
X30540Y-142772D01*
X30664Y-142747D01*
X30770Y-142677D01*
X32727Y-140718D01*
X32729Y-140717D01*
X32730Y-140717D01*
X32799Y-140612D01*
X32800Y-140611D01*
X32819Y-140513D01*
X32825Y-140488D01*
X32824Y-140487D01*
X32825Y-140487D01*
X32825Y-133582D01*
X43456Y-144213D01*
X43456Y-144262D01*
X43520Y-144418D01*
X43640Y-144538D01*
X43796Y-144603D01*
X43965Y-144603D01*
X44121Y-144539D01*
X44241Y-144419D01*
X44306Y-144263D01*
X44306Y-144094D01*
X44242Y-143938D01*
X44122Y-143818D01*
X43966Y-143753D01*
X43916Y-143753D01*
X33320Y-133157D01*
X33320Y-84723D01*
X33392Y-84754D01*
X33607Y-84754D01*
X33806Y-84672D01*
X33957Y-84520D01*
X33999Y-84417D01*
X34042Y-84520D01*
X34194Y-84671D01*
X34392Y-84754D01*
X34607Y-84754D01*
X34806Y-84672D01*
X34957Y-84520D01*
X34999Y-84417D01*
X35042Y-84520D01*
X35194Y-84671D01*
X35392Y-84754D01*
X35607Y-84754D01*
X35806Y-84672D01*
X35957Y-84520D01*
X36040Y-84322D01*
X36040Y-84107D01*
X36040Y-83679D01*
X35958Y-83480D01*
X35806Y-83329D01*
X35608Y-83246D01*
X35393Y-83246D01*
X35194Y-83328D01*
X35043Y-83480D01*
X35000Y-83582D01*
X34958Y-83480D01*
X34806Y-83329D01*
X34608Y-83246D01*
X34393Y-83246D01*
X34194Y-83328D01*
X34043Y-83480D01*
X34000Y-83582D01*
X33958Y-83480D01*
X33806Y-83329D01*
X33608Y-83246D01*
X33393Y-83246D01*
X33303Y-83282D01*
X33295Y-83241D01*
X33294Y-83240D01*
X33225Y-83135D01*
X33222Y-83133D01*
X33182Y-83092D01*
X33076Y-83022D01*
X32952Y-82997D01*
X31500Y-82997D01*
X31376Y-83022D01*
X31270Y-83092D01*
X31200Y-83198D01*
X31175Y-83322D01*
X31175Y-83347D01*
X31043Y-83480D01*
X31000Y-83582D01*
X30958Y-83480D01*
X30806Y-83329D01*
X30608Y-83246D01*
X30393Y-83246D01*
X30194Y-83328D01*
X30043Y-83480D01*
X30000Y-83582D01*
X29958Y-83480D01*
X29806Y-83329D01*
X29608Y-83246D01*
X29393Y-83246D01*
X29304Y-83282D01*
X29304Y-69557D01*
X33191Y-65669D01*
X33194Y-65671D01*
X33392Y-65754D01*
X33607Y-65754D01*
X33806Y-65672D01*
X33957Y-65520D01*
X33999Y-65417D01*
X34042Y-65520D01*
X34194Y-65671D01*
X34392Y-65754D01*
X34607Y-65754D01*
X34696Y-65717D01*
X34696Y-66521D01*
X34721Y-66645D01*
X34791Y-66751D01*
X46951Y-78910D01*
X46951Y-79109D01*
X47035Y-79311D01*
X47189Y-79465D01*
X47273Y-79500D01*
X47189Y-79535D01*
X47035Y-79689D01*
X46951Y-79891D01*
X46951Y-80109D01*
X47035Y-80311D01*
X47189Y-80465D01*
X47273Y-80500D01*
X47189Y-80535D01*
X47035Y-80689D01*
X46951Y-80891D01*
X46951Y-81109D01*
X47035Y-81311D01*
X47189Y-81465D01*
X47273Y-81500D01*
X47189Y-81535D01*
X47035Y-81689D01*
X46951Y-81891D01*
X46951Y-82109D01*
X47035Y-82311D01*
X47189Y-82465D01*
X47273Y-82500D01*
X47189Y-82535D01*
X47035Y-82689D01*
X46951Y-82891D01*
X46951Y-83109D01*
X46993Y-83211D01*
X46940Y-83222D01*
X46834Y-83292D01*
X46832Y-83294D01*
X46791Y-83335D01*
X46759Y-83382D01*
X46715Y-83356D01*
X46644Y-83427D01*
X46644Y-83285D01*
X46561Y-83143D01*
X46191Y-82993D01*
X45791Y-82997D01*
X45439Y-83143D01*
X45356Y-83285D01*
X46000Y-83929D01*
X46644Y-83285D01*
X46644Y-83427D01*
X46106Y-83965D01*
X46071Y-84000D01*
X46000Y-84071D01*
X45965Y-84106D01*
X45929Y-84142D01*
X45929Y-84000D01*
X45285Y-83356D01*
X45143Y-83439D01*
X45040Y-83693D01*
X45040Y-83679D01*
X44958Y-83480D01*
X44806Y-83329D01*
X44608Y-83246D01*
X44393Y-83246D01*
X44194Y-83328D01*
X44043Y-83480D01*
X44000Y-83582D01*
X43958Y-83480D01*
X43806Y-83329D01*
X43608Y-83246D01*
X43393Y-83246D01*
X43194Y-83328D01*
X43043Y-83480D01*
X43000Y-83582D01*
X42958Y-83480D01*
X42806Y-83329D01*
X42608Y-83246D01*
X42393Y-83246D01*
X42194Y-83328D01*
X42043Y-83480D01*
X42000Y-83582D01*
X41958Y-83480D01*
X41806Y-83329D01*
X41608Y-83246D01*
X41393Y-83246D01*
X41194Y-83328D01*
X41043Y-83480D01*
X41000Y-83582D01*
X40958Y-83480D01*
X40806Y-83329D01*
X40608Y-83246D01*
X40393Y-83246D01*
X40194Y-83328D01*
X40043Y-83480D01*
X40000Y-83582D01*
X39958Y-83480D01*
X39806Y-83329D01*
X39608Y-83246D01*
X39393Y-83246D01*
X39194Y-83328D01*
X39043Y-83480D01*
X39000Y-83582D01*
X38958Y-83480D01*
X38806Y-83329D01*
X38608Y-83246D01*
X38393Y-83246D01*
X38194Y-83328D01*
X38043Y-83480D01*
X38000Y-83582D01*
X37958Y-83480D01*
X37806Y-83329D01*
X37608Y-83246D01*
X37393Y-83246D01*
X37194Y-83328D01*
X37043Y-83480D01*
X36960Y-83678D01*
X36960Y-83893D01*
X36960Y-84321D01*
X37042Y-84520D01*
X37175Y-84652D01*
X37175Y-90944D01*
X35043Y-93076D01*
X34994Y-93076D01*
X34838Y-93140D01*
X34718Y-93260D01*
X34653Y-93416D01*
X34653Y-93585D01*
X34717Y-93741D01*
X34837Y-93861D01*
X34993Y-93926D01*
X35162Y-93926D01*
X35318Y-93862D01*
X35438Y-93742D01*
X35503Y-93586D01*
X35503Y-93536D01*
X37730Y-91309D01*
X37800Y-91204D01*
X37800Y-91203D01*
X37825Y-91079D01*
X37825Y-84652D01*
X37957Y-84520D01*
X37999Y-84417D01*
X38042Y-84520D01*
X38175Y-84652D01*
X38175Y-136775D01*
X38200Y-136899D01*
X38270Y-137005D01*
X39009Y-137743D01*
X39009Y-137793D01*
X39073Y-137949D01*
X39193Y-138069D01*
X39349Y-138134D01*
X39518Y-138134D01*
X39674Y-138070D01*
X39794Y-137950D01*
X39859Y-137794D01*
X39859Y-137625D01*
X39795Y-137469D01*
X39675Y-137349D01*
X39519Y-137284D01*
X39468Y-137284D01*
X38825Y-136640D01*
X38825Y-84652D01*
X38957Y-84520D01*
X38999Y-84417D01*
X39042Y-84520D01*
X39194Y-84671D01*
X39392Y-84754D01*
X39607Y-84754D01*
X39806Y-84672D01*
X39957Y-84520D01*
X39999Y-84417D01*
X40042Y-84520D01*
X40194Y-84671D01*
X40392Y-84754D01*
X40607Y-84754D01*
X40806Y-84672D01*
X40957Y-84520D01*
X40999Y-84417D01*
X41042Y-84520D01*
X41194Y-84671D01*
X41392Y-84754D01*
X41607Y-84754D01*
X41806Y-84672D01*
X41957Y-84520D01*
X41999Y-84417D01*
X42042Y-84520D01*
X42194Y-84671D01*
X42392Y-84754D01*
X42607Y-84754D01*
X42806Y-84672D01*
X42957Y-84520D01*
X42999Y-84417D01*
X43042Y-84520D01*
X43194Y-84671D01*
X43392Y-84754D01*
X43607Y-84754D01*
X43806Y-84672D01*
X43957Y-84520D01*
X43999Y-84417D01*
X44042Y-84520D01*
X44194Y-84671D01*
X44392Y-84754D01*
X44607Y-84754D01*
X44806Y-84672D01*
X44957Y-84520D01*
X45040Y-84322D01*
X45040Y-84312D01*
X45143Y-84561D01*
X45285Y-84644D01*
X45929Y-84000D01*
X45929Y-84142D01*
X45356Y-84715D01*
X45439Y-84857D01*
X45809Y-85007D01*
X46188Y-85003D01*
X43662Y-87530D01*
X41692Y-87530D01*
X41657Y-87495D01*
X41501Y-87430D01*
X41332Y-87430D01*
X41176Y-87494D01*
X41056Y-87614D01*
X40991Y-87770D01*
X40991Y-87939D01*
X41055Y-88095D01*
X41175Y-88215D01*
X41331Y-88280D01*
X41500Y-88280D01*
X41656Y-88216D01*
X41692Y-88180D01*
X43797Y-88180D01*
X43921Y-88155D01*
X44027Y-88085D01*
X47251Y-84861D01*
X47321Y-84756D01*
X47321Y-84755D01*
X47346Y-84631D01*
X47346Y-84530D01*
X47391Y-84549D01*
X47609Y-84549D01*
X47811Y-84465D01*
X47965Y-84311D01*
X48000Y-84226D01*
X48035Y-84311D01*
X48189Y-84465D01*
X48391Y-84549D01*
X48609Y-84549D01*
X48811Y-84465D01*
X48887Y-84389D01*
X48887Y-139214D01*
X48852Y-139249D01*
X48787Y-139405D01*
X48787Y-139574D01*
X48851Y-139730D01*
X48971Y-139850D01*
X49127Y-139915D01*
X49266Y-139915D01*
X49266Y-152538D01*
X39737Y-162067D01*
X39688Y-162067D01*
X39532Y-162131D01*
X39412Y-162251D01*
X39347Y-162407D01*
X39347Y-162576D01*
X39411Y-162732D01*
X39531Y-162852D01*
X39687Y-162917D01*
X39856Y-162917D01*
X40012Y-162853D01*
X40132Y-162733D01*
X40197Y-162577D01*
X40197Y-162527D01*
X49821Y-152903D01*
X49891Y-152798D01*
X49891Y-152797D01*
X49916Y-152673D01*
X49916Y-110782D01*
X58963Y-119829D01*
X59068Y-119899D01*
X59069Y-119899D01*
X59193Y-119924D01*
X60363Y-119924D01*
X60398Y-119959D01*
X60554Y-120024D01*
X60723Y-120024D01*
X60879Y-119960D01*
X60999Y-119840D01*
X61064Y-119684D01*
X61064Y-119515D01*
X61000Y-119359D01*
X60880Y-119239D01*
X60724Y-119174D01*
X60555Y-119174D01*
X60399Y-119238D01*
X60363Y-119274D01*
X59328Y-119274D01*
X50218Y-110164D01*
X50218Y-110051D01*
X50330Y-110051D01*
X50486Y-109987D01*
X50606Y-109867D01*
X50671Y-109711D01*
X50671Y-109542D01*
X50607Y-109386D01*
X50571Y-109350D01*
X50571Y-76848D01*
X51181Y-77458D01*
X51181Y-79002D01*
X51206Y-79126D01*
X51276Y-79232D01*
X64262Y-92218D01*
X64262Y-137401D01*
X64227Y-137436D01*
X64162Y-137592D01*
X64162Y-137761D01*
X64226Y-137917D01*
X64346Y-138037D01*
X64502Y-138102D01*
X64671Y-138102D01*
X64827Y-138038D01*
X64947Y-137918D01*
X65012Y-137762D01*
X65012Y-137593D01*
X64948Y-137437D01*
X64912Y-137401D01*
X64912Y-92121D01*
X89097Y-116306D01*
X89097Y-162566D01*
X89062Y-162601D01*
X88997Y-162757D01*
X88997Y-162926D01*
X89061Y-163082D01*
X89181Y-163202D01*
X89337Y-163267D01*
X89506Y-163267D01*
X89662Y-163203D01*
X89782Y-163083D01*
X89847Y-162927D01*
X89847Y-162758D01*
X89783Y-162602D01*
X89747Y-162566D01*
X89747Y-116256D01*
X111533Y-138042D01*
X111639Y-138112D01*
X111763Y-138137D01*
X157927Y-138137D01*
X157962Y-138172D01*
X158118Y-138237D01*
X158287Y-138237D01*
X158443Y-138173D01*
X158563Y-138053D01*
X158628Y-137897D01*
X158628Y-164675D01*
X151750Y-164675D01*
X151750Y-150349D01*
X151750Y-149653D01*
X151484Y-149010D01*
X150992Y-148517D01*
X150349Y-148250D01*
X149653Y-148250D01*
X149010Y-148516D01*
X148517Y-149008D01*
X148250Y-149651D01*
X148250Y-150347D01*
X148516Y-150990D01*
X149008Y-151483D01*
X149651Y-151750D01*
X150347Y-151750D01*
X150990Y-151484D01*
X151483Y-150992D01*
X151750Y-150349D01*
X151750Y-164675D01*
X10549Y-164675D01*
X10325Y-25740D01*
X10325Y-10325D01*
X164675Y-10325D01*
X164675Y-164675D01*
M02*
