G04 (created by PCBNEW-RS274X (2011-07-19)-testing) date Tue 31 Jan 2012 04:13:43 PM PST*
G01*
G70*
G90*
%MOIN*%
G04 Gerber Fmt 3.4, Leading zero omitted, Abs format*
%FSLAX34Y34*%
G04 APERTURE LIST*
%ADD10C,0.006000*%
%ADD11R,0.083000X0.122000*%
%ADD12R,0.075000X0.055000*%
%ADD13O,0.080000X0.120000*%
%ADD14C,0.175000*%
%ADD15C,0.080000*%
%ADD16C,0.320000*%
G04 APERTURE END LIST*
G54D10*
G54D11*
X113050Y-87500D03*
X111950Y-87500D03*
X138050Y-87500D03*
X136950Y-87500D03*
X163050Y-87500D03*
X161950Y-87500D03*
X13050Y-112500D03*
X11950Y-112500D03*
X38050Y-112500D03*
X36950Y-112500D03*
X63050Y-112500D03*
X61950Y-112500D03*
X88050Y-112500D03*
X86950Y-112500D03*
X113050Y-112500D03*
X111950Y-112500D03*
X138050Y-112500D03*
X136950Y-112500D03*
X163050Y-112500D03*
X161950Y-112500D03*
X13050Y-137500D03*
X11950Y-137500D03*
X38050Y-137500D03*
X36950Y-137500D03*
X63050Y-137500D03*
X61950Y-137500D03*
X88050Y-137500D03*
X86950Y-137500D03*
X113050Y-137500D03*
X111950Y-137500D03*
X138050Y-137500D03*
X136950Y-137500D03*
X163050Y-137500D03*
X161950Y-137500D03*
X13050Y-162500D03*
X11950Y-162500D03*
X38050Y-162500D03*
X36950Y-162500D03*
X63050Y-162500D03*
X61950Y-162500D03*
X88050Y-162500D03*
X86950Y-162500D03*
X113050Y-162500D03*
X111950Y-162500D03*
X138050Y-162500D03*
X136950Y-162500D03*
X163050Y-162500D03*
X161950Y-162500D03*
X13050Y-12500D03*
X11950Y-12500D03*
X38050Y-12500D03*
X36950Y-12500D03*
X63050Y-12500D03*
X61950Y-12500D03*
X88050Y-12500D03*
X86950Y-12500D03*
X113050Y-12500D03*
X111950Y-12500D03*
X138050Y-12500D03*
X136950Y-12500D03*
X163050Y-12500D03*
X161950Y-12500D03*
X13050Y-37500D03*
X11950Y-37500D03*
X38050Y-37500D03*
X36950Y-37500D03*
X63050Y-37500D03*
X61950Y-37500D03*
X88050Y-37500D03*
X86950Y-37500D03*
X113050Y-37500D03*
X111950Y-37500D03*
X88050Y-87500D03*
X86950Y-87500D03*
X63050Y-87500D03*
X61950Y-87500D03*
X38050Y-87500D03*
X36950Y-87500D03*
X13050Y-87500D03*
X11950Y-87500D03*
X163050Y-62500D03*
X161950Y-62500D03*
X138050Y-62500D03*
X136950Y-62500D03*
X113050Y-62500D03*
X111950Y-62500D03*
X88050Y-62500D03*
X86950Y-62500D03*
X63050Y-62500D03*
X61950Y-62500D03*
X38050Y-62500D03*
X36950Y-62500D03*
X13050Y-62500D03*
X11950Y-62500D03*
X163050Y-37500D03*
X161950Y-37500D03*
X138050Y-37500D03*
X136950Y-37500D03*
G54D12*
X40500Y-137875D03*
X40500Y-137125D03*
X15500Y-137875D03*
X15500Y-137125D03*
X159500Y-112875D03*
X159500Y-112125D03*
X140500Y-112875D03*
X140500Y-112125D03*
X115500Y-112875D03*
X115500Y-112125D03*
X90500Y-112125D03*
X90500Y-112875D03*
X65500Y-112875D03*
X65500Y-112125D03*
X40500Y-112875D03*
X40500Y-112125D03*
X15500Y-112875D03*
X15500Y-112125D03*
X159500Y-87875D03*
X159500Y-87125D03*
X140500Y-87875D03*
X140500Y-87125D03*
X115500Y-87875D03*
X115500Y-87125D03*
X65500Y-137875D03*
X65500Y-137125D03*
X90500Y-137875D03*
X90500Y-137125D03*
X115500Y-137875D03*
X115500Y-137125D03*
X140500Y-137875D03*
X140500Y-137125D03*
X159500Y-137875D03*
X159500Y-137125D03*
X15500Y-162875D03*
X15500Y-162125D03*
X40500Y-162875D03*
X40500Y-162125D03*
X65500Y-162875D03*
X65500Y-162125D03*
X90500Y-162875D03*
X90500Y-162125D03*
X115500Y-162875D03*
X115500Y-162125D03*
X140500Y-162875D03*
X140500Y-162125D03*
X159500Y-162875D03*
X159500Y-162125D03*
X15500Y-12875D03*
X15500Y-12125D03*
X40500Y-12875D03*
X40500Y-12125D03*
X65500Y-12875D03*
X65500Y-12125D03*
X90500Y-12875D03*
X90500Y-12125D03*
X115500Y-12875D03*
X115500Y-12125D03*
X140500Y-12875D03*
X140500Y-12125D03*
X159500Y-12875D03*
X159500Y-12125D03*
X15500Y-37875D03*
X15500Y-37125D03*
X40500Y-37875D03*
X40500Y-37125D03*
X65500Y-37875D03*
X65500Y-37125D03*
X90500Y-37875D03*
X90500Y-37125D03*
X115500Y-37875D03*
X115500Y-37125D03*
X140500Y-37875D03*
X140500Y-37125D03*
X159500Y-37875D03*
X159500Y-37125D03*
X15500Y-62875D03*
X15500Y-62125D03*
X40500Y-62875D03*
X40500Y-62125D03*
X65500Y-62875D03*
X65500Y-62125D03*
X90500Y-62875D03*
X90500Y-62125D03*
X115500Y-62875D03*
X115500Y-62125D03*
X140500Y-62875D03*
X140500Y-62125D03*
X159500Y-62875D03*
X159500Y-62125D03*
X15500Y-87875D03*
X15500Y-87125D03*
X40500Y-87875D03*
X40500Y-87125D03*
X65500Y-87875D03*
X65500Y-87125D03*
X90500Y-87875D03*
X90500Y-87125D03*
G54D13*
X37500Y-84000D03*
X38500Y-84000D03*
X39500Y-84000D03*
X40500Y-84000D03*
X41500Y-84000D03*
X42500Y-84000D03*
X43500Y-84000D03*
X44500Y-84000D03*
X46500Y-65000D03*
X45500Y-65000D03*
X44500Y-65000D03*
X43500Y-65000D03*
X39500Y-65000D03*
X37500Y-65000D03*
X36500Y-65000D03*
X40500Y-65000D03*
X41500Y-65000D03*
X42500Y-65000D03*
X35500Y-65000D03*
X34500Y-65000D03*
X33500Y-65000D03*
X30500Y-65000D03*
X31500Y-65000D03*
X32500Y-65000D03*
X28500Y-65000D03*
X27500Y-65000D03*
X26500Y-65000D03*
X24500Y-65000D03*
X23500Y-65000D03*
X35500Y-84000D03*
X34500Y-84000D03*
X33500Y-84000D03*
X32500Y-84000D03*
X31500Y-84000D03*
X30500Y-84000D03*
X29500Y-84000D03*
X28500Y-84000D03*
X26900Y-84000D03*
X25900Y-84000D03*
X24900Y-84000D03*
X23900Y-84000D03*
X22900Y-84000D03*
X21900Y-84000D03*
X20900Y-84000D03*
X19900Y-84000D03*
X25500Y-65000D03*
G54D14*
X48500Y-65000D03*
X46000Y-84000D03*
X16500Y-84000D03*
X16000Y-65000D03*
G54D15*
X47500Y-83000D03*
X48500Y-83000D03*
X47500Y-82000D03*
X48500Y-82000D03*
X47500Y-81000D03*
X48500Y-81000D03*
X47500Y-80000D03*
X48500Y-80000D03*
X47500Y-84000D03*
X48500Y-84000D03*
X48500Y-79000D03*
X47500Y-79000D03*
X47500Y-78000D03*
X48500Y-78000D03*
X47500Y-77000D03*
X48500Y-77000D03*
X47500Y-76000D03*
X48500Y-76000D03*
X47500Y-75000D03*
X48500Y-75000D03*
X47500Y-74000D03*
X48500Y-74000D03*
X47500Y-73000D03*
X48500Y-73000D03*
X47500Y-72000D03*
X48500Y-72000D03*
X47500Y-71000D03*
X48500Y-71000D03*
X47500Y-70000D03*
X48500Y-70000D03*
X47500Y-69000D03*
X48500Y-69000D03*
X47500Y-68000D03*
X48500Y-68000D03*
X47500Y-67000D03*
X48500Y-67000D03*
G54D16*
X25000Y-25000D03*
X150000Y-25000D03*
X25000Y-150000D03*
X150000Y-150000D03*
M02*
