G04 (created by PCBNEW-RS274X (2011-07-19)-testing) date Fri 03 Feb 2012 01:16:17 PM PST*
G01*
G70*
G90*
%MOIN*%
G04 Gerber Fmt 3.4, Leading zero omitted, Abs format*
%FSLAX34Y34*%
G04 APERTURE LIST*
%ADD10C,0.006000*%
%ADD11C,0.005000*%
%ADD12C,0.015000*%
%ADD13C,0.012000*%
G04 APERTURE END LIST*
G54D10*
G54D11*
X22750Y-66250D02*
X22726Y-66492D01*
X22655Y-66726D01*
X22541Y-66941D01*
X22386Y-67130D01*
X22198Y-67286D01*
X21984Y-67402D01*
X21751Y-67474D01*
X21508Y-67499D01*
X21266Y-67477D01*
X21032Y-67408D01*
X20816Y-67295D01*
X20626Y-67143D01*
X20469Y-66956D01*
X20352Y-66742D01*
X20278Y-66509D01*
X20251Y-66267D01*
X20271Y-66025D01*
X20338Y-65790D01*
X20450Y-65573D01*
X20601Y-65382D01*
X20787Y-65224D01*
X21000Y-65105D01*
X21232Y-65030D01*
X21474Y-65001D01*
X21717Y-65019D01*
X21952Y-65085D01*
X22169Y-65195D01*
X22362Y-65345D01*
X22521Y-65530D01*
X22641Y-65742D01*
X22718Y-65974D01*
X22749Y-66216D01*
X22750Y-66250D01*
X19750Y-66250D02*
X19726Y-66492D01*
X19655Y-66726D01*
X19541Y-66941D01*
X19386Y-67130D01*
X19198Y-67286D01*
X18984Y-67402D01*
X18751Y-67474D01*
X18508Y-67499D01*
X18266Y-67477D01*
X18032Y-67408D01*
X17816Y-67295D01*
X17626Y-67143D01*
X17469Y-66956D01*
X17352Y-66742D01*
X17278Y-66509D01*
X17251Y-66267D01*
X17271Y-66025D01*
X17338Y-65790D01*
X17450Y-65573D01*
X17601Y-65382D01*
X17787Y-65224D01*
X18000Y-65105D01*
X18232Y-65030D01*
X18474Y-65001D01*
X18717Y-65019D01*
X18952Y-65085D01*
X19169Y-65195D01*
X19362Y-65345D01*
X19521Y-65530D01*
X19641Y-65742D01*
X19718Y-65974D01*
X19749Y-66216D01*
X19750Y-66250D01*
X10500Y-69000D02*
X15250Y-69000D01*
X15250Y-69000D02*
X15250Y-64000D01*
X10500Y-81500D02*
X14250Y-81500D01*
X14250Y-81500D02*
X14250Y-76500D01*
X14250Y-76500D02*
X10500Y-76500D01*
X35050Y-76500D02*
X35050Y-73500D01*
X35050Y-73500D02*
X37050Y-73500D01*
X37050Y-73500D02*
X37050Y-76500D01*
X37050Y-76500D02*
X35050Y-76500D01*
X40500Y-75000D02*
X40484Y-75155D01*
X40439Y-75304D01*
X40366Y-75442D01*
X40267Y-75563D01*
X40147Y-75663D01*
X40010Y-75737D01*
X39860Y-75783D01*
X39705Y-75799D01*
X39551Y-75785D01*
X39401Y-75741D01*
X39262Y-75669D01*
X39141Y-75571D01*
X39040Y-75451D01*
X38965Y-75315D01*
X38918Y-75166D01*
X38901Y-75011D01*
X38914Y-74856D01*
X38957Y-74706D01*
X39028Y-74567D01*
X39125Y-74445D01*
X39244Y-74344D01*
X39380Y-74267D01*
X39529Y-74219D01*
X39684Y-74201D01*
X39838Y-74213D01*
X39989Y-74255D01*
X40128Y-74325D01*
X40251Y-74421D01*
X40353Y-74539D01*
X40430Y-74675D01*
X40480Y-74823D01*
X40499Y-74978D01*
X40500Y-75000D01*
G54D12*
X49500Y-64000D02*
X10500Y-64000D01*
X49000Y-85000D02*
X10500Y-85000D01*
X49500Y-80000D02*
X49500Y-84500D01*
X49500Y-84500D02*
X49000Y-85000D01*
X10500Y-64000D02*
X10500Y-85000D01*
X49500Y-80000D02*
X50500Y-79000D01*
X50500Y-79000D02*
X50500Y-66000D01*
X50500Y-66000D02*
X49500Y-65000D01*
X49500Y-65000D02*
X49500Y-64000D01*
G54D13*
X52214Y-73271D02*
X52243Y-73357D01*
X52243Y-73500D01*
X52214Y-73557D01*
X52186Y-73586D01*
X52129Y-73614D01*
X52071Y-73614D01*
X52014Y-73586D01*
X51986Y-73557D01*
X51957Y-73500D01*
X51929Y-73386D01*
X51900Y-73328D01*
X51871Y-73300D01*
X51814Y-73271D01*
X51757Y-73271D01*
X51700Y-73300D01*
X51671Y-73328D01*
X51643Y-73386D01*
X51643Y-73528D01*
X51671Y-73614D01*
X52243Y-73871D02*
X51643Y-73871D01*
X51929Y-73871D02*
X51929Y-74214D01*
X52243Y-74214D02*
X51643Y-74214D01*
X52243Y-74500D02*
X51643Y-74500D01*
X51929Y-74786D02*
X51929Y-74986D01*
X52243Y-75072D02*
X52243Y-74786D01*
X51643Y-74786D01*
X51643Y-75072D01*
X52243Y-75615D02*
X52243Y-75329D01*
X51643Y-75329D01*
X52243Y-75815D02*
X51643Y-75815D01*
X51643Y-75958D01*
X51671Y-76043D01*
X51729Y-76101D01*
X51786Y-76129D01*
X51900Y-76158D01*
X51986Y-76158D01*
X52100Y-76129D01*
X52157Y-76101D01*
X52214Y-76043D01*
X52243Y-75958D01*
X52243Y-75815D01*
X52243Y-76729D02*
X52243Y-76386D01*
X52243Y-76558D02*
X51643Y-76558D01*
X51729Y-76501D01*
X51786Y-76443D01*
X51814Y-76386D01*
M02*
