M48
;DRILL file {PCBnew (2011-07-19)-testing} date Fri 03 Feb 2012 01:16:36 PM PST
;FORMAT={2:4/ absolute / inch / suppress trailing zeros}
FMAT,2
INCH,LZ
T1C0.025
T2C0.040
T3C0.125
T4C0.259
%
G90
G05
M72
T1
X015949Y-063637
X017294Y-162789
X023522Y-082958
X027Y-051728
X028Y-022061
X0305Y-141907
X034883Y-062235
X035078Y-093501
X039434Y-137709
X039772Y-162492
X041416Y-087855
X043881Y-144178
X044002Y-02058
X044977Y-044319
X046214Y-019655
X047164Y-039351
X049212Y-13949
X050246Y-109626
X051859Y-077908
X051873Y-078622
X055446Y-075115
X056317Y-080562
X057914Y-079235
X060639Y-119599
X064295Y-062847
X064312Y-087812
X064587Y-137677
X064942Y-068529
X078828Y-074669
X087454Y-111781
X089422Y-162842
X090186Y-015927
X114439Y-08786
X114634Y-013228
X139587Y-112677
X15771Y-03795
X158203Y-137812
T2
X0199Y-084
X0209Y-084
X0219Y-084
X0229Y-084
X0235Y-065
X0239Y-084
X0245Y-065
X0249Y-084
X0255Y-065
X0259Y-084
X0265Y-065
X0269Y-084
X0275Y-065
X0285Y-065
X0285Y-084
X0295Y-084
X0305Y-065
X0305Y-084
X0315Y-065
X0315Y-084
X0325Y-065
X0325Y-084
X0335Y-065
X0335Y-084
X0345Y-065
X0345Y-084
X0355Y-065
X0355Y-084
X0365Y-065
X0375Y-065
X0375Y-084
X0385Y-084
X0395Y-065
X0395Y-084
X0405Y-065
X0405Y-084
X0415Y-065
X0415Y-084
X0425Y-065
X0425Y-084
X0435Y-065
X0435Y-084
X0445Y-065
X0445Y-084
X0455Y-065
X0465Y-065
X0475Y-067
X0475Y-068
X0475Y-069
X0475Y-07
X0475Y-071
X0475Y-072
X0475Y-073
X0475Y-074
X0475Y-075
X0475Y-076
X0475Y-077
X0475Y-078
X0475Y-079
X0475Y-08
X0475Y-081
X0475Y-082
X0475Y-083
X0475Y-084
X0485Y-067
X0485Y-068
X0485Y-069
X0485Y-07
X0485Y-071
X0485Y-072
X0485Y-073
X0485Y-074
X0485Y-075
X0485Y-076
X0485Y-077
X0485Y-078
X0485Y-079
X0485Y-08
X0485Y-081
X0485Y-082
X0485Y-083
X0485Y-084
T3
X016Y-065
X0165Y-084
X046Y-084
X0485Y-065
T4
X025Y-025
X025Y-15
X15Y-025
X15Y-15
T0
M30
