G04 (created by PCBNEW-RS274X (2011-07-19)-testing) date Fri 03 Feb 2012 01:16:17 PM PST*
G01*
G70*
G90*
%MOIN*%
G04 Gerber Fmt 3.4, Leading zero omitted, Abs format*
%FSLAX34Y34*%
G04 APERTURE LIST*
%ADD10C,0.006000*%
%ADD11C,0.012000*%
%ADD12C,0.015000*%
%ADD13C,0.005000*%
G04 APERTURE END LIST*
G54D10*
G54D11*
X71793Y-17324D02*
X71793Y-16524D01*
X72193Y-16524D02*
X72307Y-16524D01*
X72365Y-16562D01*
X72422Y-16638D01*
X72450Y-16790D01*
X72450Y-17057D01*
X72422Y-17210D01*
X72365Y-17286D01*
X72307Y-17324D01*
X72193Y-17324D01*
X72136Y-17286D01*
X72079Y-17210D01*
X72050Y-17057D01*
X72050Y-16790D01*
X72079Y-16638D01*
X72136Y-16562D01*
X72193Y-16524D01*
X73508Y-17324D02*
X73308Y-16943D01*
X73165Y-17324D02*
X73165Y-16524D01*
X73393Y-16524D01*
X73451Y-16562D01*
X73479Y-16600D01*
X73508Y-16676D01*
X73508Y-16790D01*
X73479Y-16867D01*
X73451Y-16905D01*
X73393Y-16943D01*
X73165Y-16943D01*
X73851Y-17324D02*
X73793Y-17286D01*
X73765Y-17248D01*
X73736Y-17171D01*
X73736Y-16943D01*
X73765Y-16867D01*
X73793Y-16829D01*
X73851Y-16790D01*
X73936Y-16790D01*
X73993Y-16829D01*
X74022Y-16867D01*
X74051Y-16943D01*
X74051Y-17171D01*
X74022Y-17248D01*
X73993Y-17286D01*
X73936Y-17324D01*
X73851Y-17324D01*
X74565Y-17324D02*
X74565Y-16524D01*
X74565Y-17286D02*
X74508Y-17324D01*
X74394Y-17324D01*
X74336Y-17286D01*
X74308Y-17248D01*
X74279Y-17171D01*
X74279Y-16943D01*
X74308Y-16867D01*
X74336Y-16829D01*
X74394Y-16790D01*
X74508Y-16790D01*
X74565Y-16829D01*
X75079Y-17286D02*
X75022Y-17324D01*
X74908Y-17324D01*
X74851Y-17286D01*
X74822Y-17210D01*
X74822Y-16905D01*
X74851Y-16829D01*
X74908Y-16790D01*
X75022Y-16790D01*
X75079Y-16829D01*
X75108Y-16905D01*
X75108Y-16981D01*
X74822Y-17057D01*
X75451Y-17324D02*
X75393Y-17286D01*
X75365Y-17248D01*
X75336Y-17171D01*
X75336Y-16943D01*
X75365Y-16867D01*
X75393Y-16829D01*
X75451Y-16790D01*
X75536Y-16790D01*
X75593Y-16829D01*
X75622Y-16867D01*
X75651Y-16943D01*
X75651Y-17171D01*
X75622Y-17248D01*
X75593Y-17286D01*
X75536Y-17324D01*
X75451Y-17324D01*
X76365Y-17324D02*
X76365Y-16524D01*
X76651Y-16790D02*
X76651Y-17324D01*
X76651Y-16867D02*
X76679Y-16829D01*
X76737Y-16790D01*
X76822Y-16790D01*
X76879Y-16829D01*
X76908Y-16905D01*
X76908Y-17324D01*
X77451Y-17286D02*
X77394Y-17324D01*
X77280Y-17324D01*
X77222Y-17286D01*
X77194Y-17248D01*
X77165Y-17171D01*
X77165Y-16943D01*
X77194Y-16867D01*
X77222Y-16829D01*
X77280Y-16790D01*
X77394Y-16790D01*
X77451Y-16829D01*
X77708Y-17248D02*
X77736Y-17286D01*
X77708Y-17324D01*
X77679Y-17286D01*
X77708Y-17248D01*
X77708Y-17324D01*
X67008Y-18564D02*
X67008Y-17764D01*
X67208Y-18335D01*
X67408Y-17764D01*
X67408Y-18564D01*
X68037Y-18488D02*
X68008Y-18526D01*
X67922Y-18564D01*
X67865Y-18564D01*
X67780Y-18526D01*
X67722Y-18450D01*
X67694Y-18373D01*
X67665Y-18221D01*
X67665Y-18107D01*
X67694Y-17954D01*
X67722Y-17878D01*
X67780Y-17802D01*
X67865Y-17764D01*
X67922Y-17764D01*
X68008Y-17802D01*
X68037Y-17840D01*
X68208Y-17764D02*
X68551Y-17764D01*
X68380Y-18564D02*
X68380Y-17764D01*
X69179Y-18335D02*
X69465Y-18335D01*
X69122Y-18564D02*
X69322Y-17764D01*
X69522Y-18564D01*
X69979Y-18526D02*
X69922Y-18564D01*
X69808Y-18564D01*
X69750Y-18526D01*
X69722Y-18488D01*
X69693Y-18411D01*
X69693Y-18183D01*
X69722Y-18107D01*
X69750Y-18069D01*
X69808Y-18030D01*
X69922Y-18030D01*
X69979Y-18069D01*
X70150Y-18030D02*
X70379Y-18030D01*
X70236Y-17764D02*
X70236Y-18450D01*
X70264Y-18526D01*
X70322Y-18564D01*
X70379Y-18564D01*
X70579Y-18564D02*
X70579Y-18030D01*
X70579Y-17764D02*
X70550Y-17802D01*
X70579Y-17840D01*
X70607Y-17802D01*
X70579Y-17764D01*
X70579Y-17840D01*
X70808Y-18030D02*
X70951Y-18564D01*
X71093Y-18030D01*
X71550Y-18526D02*
X71493Y-18564D01*
X71379Y-18564D01*
X71322Y-18526D01*
X71293Y-18450D01*
X71293Y-18145D01*
X71322Y-18069D01*
X71379Y-18030D01*
X71493Y-18030D01*
X71550Y-18069D01*
X71579Y-18145D01*
X71579Y-18221D01*
X71293Y-18297D01*
X72636Y-18488D02*
X72607Y-18526D01*
X72521Y-18564D01*
X72464Y-18564D01*
X72379Y-18526D01*
X72321Y-18450D01*
X72293Y-18373D01*
X72264Y-18221D01*
X72264Y-18107D01*
X72293Y-17954D01*
X72321Y-17878D01*
X72379Y-17802D01*
X72464Y-17764D01*
X72521Y-17764D01*
X72607Y-17802D01*
X72636Y-17840D01*
X73150Y-18564D02*
X73150Y-18145D01*
X73121Y-18069D01*
X73064Y-18030D01*
X72950Y-18030D01*
X72893Y-18069D01*
X73150Y-18526D02*
X73093Y-18564D01*
X72950Y-18564D01*
X72893Y-18526D01*
X72864Y-18450D01*
X72864Y-18373D01*
X72893Y-18297D01*
X72950Y-18259D01*
X73093Y-18259D01*
X73150Y-18221D01*
X73522Y-18564D02*
X73464Y-18526D01*
X73436Y-18450D01*
X73436Y-17764D01*
X73750Y-18564D02*
X73750Y-18030D01*
X73750Y-17764D02*
X73721Y-17802D01*
X73750Y-17840D01*
X73778Y-17802D01*
X73750Y-17764D01*
X73750Y-17840D01*
X74036Y-18564D02*
X74036Y-17764D01*
X74036Y-18069D02*
X74093Y-18030D01*
X74207Y-18030D01*
X74264Y-18069D01*
X74293Y-18107D01*
X74322Y-18183D01*
X74322Y-18411D01*
X74293Y-18488D01*
X74264Y-18526D01*
X74207Y-18564D01*
X74093Y-18564D01*
X74036Y-18526D01*
X74579Y-18564D02*
X74579Y-18030D01*
X74579Y-18183D02*
X74607Y-18107D01*
X74636Y-18069D01*
X74693Y-18030D01*
X74750Y-18030D01*
X75207Y-18564D02*
X75207Y-18145D01*
X75178Y-18069D01*
X75121Y-18030D01*
X75007Y-18030D01*
X74950Y-18069D01*
X75207Y-18526D02*
X75150Y-18564D01*
X75007Y-18564D01*
X74950Y-18526D01*
X74921Y-18450D01*
X74921Y-18373D01*
X74950Y-18297D01*
X75007Y-18259D01*
X75150Y-18259D01*
X75207Y-18221D01*
X75407Y-18030D02*
X75636Y-18030D01*
X75493Y-17764D02*
X75493Y-18450D01*
X75521Y-18526D01*
X75579Y-18564D01*
X75636Y-18564D01*
X75836Y-18564D02*
X75836Y-18030D01*
X75836Y-17764D02*
X75807Y-17802D01*
X75836Y-17840D01*
X75864Y-17802D01*
X75836Y-17764D01*
X75836Y-17840D01*
X76208Y-18564D02*
X76150Y-18526D01*
X76122Y-18488D01*
X76093Y-18411D01*
X76093Y-18183D01*
X76122Y-18107D01*
X76150Y-18069D01*
X76208Y-18030D01*
X76293Y-18030D01*
X76350Y-18069D01*
X76379Y-18107D01*
X76408Y-18183D01*
X76408Y-18411D01*
X76379Y-18488D01*
X76350Y-18526D01*
X76293Y-18564D01*
X76208Y-18564D01*
X76665Y-18030D02*
X76665Y-18564D01*
X76665Y-18107D02*
X76693Y-18069D01*
X76751Y-18030D01*
X76836Y-18030D01*
X76893Y-18069D01*
X76922Y-18145D01*
X76922Y-18564D01*
X77579Y-17764D02*
X77922Y-17764D01*
X77751Y-18564D02*
X77751Y-17764D01*
X78379Y-18564D02*
X78379Y-18145D01*
X78350Y-18069D01*
X78293Y-18030D01*
X78179Y-18030D01*
X78122Y-18069D01*
X78379Y-18526D02*
X78322Y-18564D01*
X78179Y-18564D01*
X78122Y-18526D01*
X78093Y-18450D01*
X78093Y-18373D01*
X78122Y-18297D01*
X78179Y-18259D01*
X78322Y-18259D01*
X78379Y-18221D01*
X78665Y-18564D02*
X78665Y-18030D01*
X78665Y-18183D02*
X78693Y-18107D01*
X78722Y-18069D01*
X78779Y-18030D01*
X78836Y-18030D01*
X79293Y-18030D02*
X79293Y-18678D01*
X79264Y-18754D01*
X79236Y-18792D01*
X79179Y-18830D01*
X79093Y-18830D01*
X79036Y-18792D01*
X79293Y-18526D02*
X79236Y-18564D01*
X79122Y-18564D01*
X79064Y-18526D01*
X79036Y-18488D01*
X79007Y-18411D01*
X79007Y-18183D01*
X79036Y-18107D01*
X79064Y-18069D01*
X79122Y-18030D01*
X79236Y-18030D01*
X79293Y-18069D01*
X79807Y-18526D02*
X79750Y-18564D01*
X79636Y-18564D01*
X79579Y-18526D01*
X79550Y-18450D01*
X79550Y-18145D01*
X79579Y-18069D01*
X79636Y-18030D01*
X79750Y-18030D01*
X79807Y-18069D01*
X79836Y-18145D01*
X79836Y-18221D01*
X79550Y-18297D01*
X80007Y-18030D02*
X80236Y-18030D01*
X80093Y-17764D02*
X80093Y-18450D01*
X80121Y-18526D01*
X80179Y-18564D01*
X80236Y-18564D01*
X80836Y-18030D02*
X80979Y-18564D01*
X81121Y-18030D01*
X81664Y-18564D02*
X81321Y-18564D01*
X81493Y-18564D02*
X81493Y-17764D01*
X81436Y-17878D01*
X81378Y-17954D01*
X81321Y-17992D01*
X81921Y-18488D02*
X81949Y-18526D01*
X81921Y-18564D01*
X81892Y-18526D01*
X81921Y-18488D01*
X81921Y-18564D01*
X82321Y-17764D02*
X82378Y-17764D01*
X82435Y-17802D01*
X82464Y-17840D01*
X82493Y-17916D01*
X82521Y-18069D01*
X82521Y-18259D01*
X82493Y-18411D01*
X82464Y-18488D01*
X82435Y-18526D01*
X82378Y-18564D01*
X82321Y-18564D01*
X82264Y-18526D01*
X82235Y-18488D01*
X82207Y-18411D01*
X82178Y-18259D01*
X82178Y-18069D01*
X82207Y-17916D01*
X82235Y-17840D01*
X82264Y-17802D01*
X82321Y-17764D01*
G54D12*
X111900Y-86400D02*
X111400Y-86800D01*
X113600Y-86400D02*
X111400Y-86400D01*
X111400Y-86400D02*
X111400Y-88600D01*
X111400Y-88600D02*
X113600Y-88600D01*
X113600Y-88600D02*
X113600Y-86400D01*
X136900Y-86400D02*
X136400Y-86800D01*
X138600Y-86400D02*
X136400Y-86400D01*
X136400Y-86400D02*
X136400Y-88600D01*
X136400Y-88600D02*
X138600Y-88600D01*
X138600Y-88600D02*
X138600Y-86400D01*
X161900Y-86400D02*
X161400Y-86800D01*
X163600Y-86400D02*
X161400Y-86400D01*
X161400Y-86400D02*
X161400Y-88600D01*
X161400Y-88600D02*
X163600Y-88600D01*
X163600Y-88600D02*
X163600Y-86400D01*
X11900Y-111400D02*
X11400Y-111800D01*
X13600Y-111400D02*
X11400Y-111400D01*
X11400Y-111400D02*
X11400Y-113600D01*
X11400Y-113600D02*
X13600Y-113600D01*
X13600Y-113600D02*
X13600Y-111400D01*
X36900Y-111400D02*
X36400Y-111800D01*
X38600Y-111400D02*
X36400Y-111400D01*
X36400Y-111400D02*
X36400Y-113600D01*
X36400Y-113600D02*
X38600Y-113600D01*
X38600Y-113600D02*
X38600Y-111400D01*
X61900Y-111400D02*
X61400Y-111800D01*
X63600Y-111400D02*
X61400Y-111400D01*
X61400Y-111400D02*
X61400Y-113600D01*
X61400Y-113600D02*
X63600Y-113600D01*
X63600Y-113600D02*
X63600Y-111400D01*
X86900Y-111400D02*
X86400Y-111800D01*
X88600Y-111400D02*
X86400Y-111400D01*
X86400Y-111400D02*
X86400Y-113600D01*
X86400Y-113600D02*
X88600Y-113600D01*
X88600Y-113600D02*
X88600Y-111400D01*
X111900Y-111400D02*
X111400Y-111800D01*
X113600Y-111400D02*
X111400Y-111400D01*
X111400Y-111400D02*
X111400Y-113600D01*
X111400Y-113600D02*
X113600Y-113600D01*
X113600Y-113600D02*
X113600Y-111400D01*
X136900Y-111400D02*
X136400Y-111800D01*
X138600Y-111400D02*
X136400Y-111400D01*
X136400Y-111400D02*
X136400Y-113600D01*
X136400Y-113600D02*
X138600Y-113600D01*
X138600Y-113600D02*
X138600Y-111400D01*
X161900Y-111400D02*
X161400Y-111800D01*
X163600Y-111400D02*
X161400Y-111400D01*
X161400Y-111400D02*
X161400Y-113600D01*
X161400Y-113600D02*
X163600Y-113600D01*
X163600Y-113600D02*
X163600Y-111400D01*
X11900Y-136400D02*
X11400Y-136800D01*
X13600Y-136400D02*
X11400Y-136400D01*
X11400Y-136400D02*
X11400Y-138600D01*
X11400Y-138600D02*
X13600Y-138600D01*
X13600Y-138600D02*
X13600Y-136400D01*
X36900Y-136400D02*
X36400Y-136800D01*
X38600Y-136400D02*
X36400Y-136400D01*
X36400Y-136400D02*
X36400Y-138600D01*
X36400Y-138600D02*
X38600Y-138600D01*
X38600Y-138600D02*
X38600Y-136400D01*
X61900Y-136400D02*
X61400Y-136800D01*
X63600Y-136400D02*
X61400Y-136400D01*
X61400Y-136400D02*
X61400Y-138600D01*
X61400Y-138600D02*
X63600Y-138600D01*
X63600Y-138600D02*
X63600Y-136400D01*
X86900Y-136400D02*
X86400Y-136800D01*
X88600Y-136400D02*
X86400Y-136400D01*
X86400Y-136400D02*
X86400Y-138600D01*
X86400Y-138600D02*
X88600Y-138600D01*
X88600Y-138600D02*
X88600Y-136400D01*
X111900Y-136400D02*
X111400Y-136800D01*
X113600Y-136400D02*
X111400Y-136400D01*
X111400Y-136400D02*
X111400Y-138600D01*
X111400Y-138600D02*
X113600Y-138600D01*
X113600Y-138600D02*
X113600Y-136400D01*
X136900Y-136400D02*
X136400Y-136800D01*
X138600Y-136400D02*
X136400Y-136400D01*
X136400Y-136400D02*
X136400Y-138600D01*
X136400Y-138600D02*
X138600Y-138600D01*
X138600Y-138600D02*
X138600Y-136400D01*
X161900Y-136400D02*
X161400Y-136800D01*
X163600Y-136400D02*
X161400Y-136400D01*
X161400Y-136400D02*
X161400Y-138600D01*
X161400Y-138600D02*
X163600Y-138600D01*
X163600Y-138600D02*
X163600Y-136400D01*
X11900Y-161400D02*
X11400Y-161800D01*
X13600Y-161400D02*
X11400Y-161400D01*
X11400Y-161400D02*
X11400Y-163600D01*
X11400Y-163600D02*
X13600Y-163600D01*
X13600Y-163600D02*
X13600Y-161400D01*
X36900Y-161400D02*
X36400Y-161800D01*
X38600Y-161400D02*
X36400Y-161400D01*
X36400Y-161400D02*
X36400Y-163600D01*
X36400Y-163600D02*
X38600Y-163600D01*
X38600Y-163600D02*
X38600Y-161400D01*
X61900Y-161400D02*
X61400Y-161800D01*
X63600Y-161400D02*
X61400Y-161400D01*
X61400Y-161400D02*
X61400Y-163600D01*
X61400Y-163600D02*
X63600Y-163600D01*
X63600Y-163600D02*
X63600Y-161400D01*
X86900Y-161400D02*
X86400Y-161800D01*
X88600Y-161400D02*
X86400Y-161400D01*
X86400Y-161400D02*
X86400Y-163600D01*
X86400Y-163600D02*
X88600Y-163600D01*
X88600Y-163600D02*
X88600Y-161400D01*
X111900Y-161400D02*
X111400Y-161800D01*
X113600Y-161400D02*
X111400Y-161400D01*
X111400Y-161400D02*
X111400Y-163600D01*
X111400Y-163600D02*
X113600Y-163600D01*
X113600Y-163600D02*
X113600Y-161400D01*
X136900Y-161400D02*
X136400Y-161800D01*
X138600Y-161400D02*
X136400Y-161400D01*
X136400Y-161400D02*
X136400Y-163600D01*
X136400Y-163600D02*
X138600Y-163600D01*
X138600Y-163600D02*
X138600Y-161400D01*
X161900Y-161400D02*
X161400Y-161800D01*
X163600Y-161400D02*
X161400Y-161400D01*
X161400Y-161400D02*
X161400Y-163600D01*
X161400Y-163600D02*
X163600Y-163600D01*
X163600Y-163600D02*
X163600Y-161400D01*
X11900Y-11400D02*
X11400Y-11800D01*
X13600Y-11400D02*
X11400Y-11400D01*
X11400Y-11400D02*
X11400Y-13600D01*
X11400Y-13600D02*
X13600Y-13600D01*
X13600Y-13600D02*
X13600Y-11400D01*
X36900Y-11400D02*
X36400Y-11800D01*
X38600Y-11400D02*
X36400Y-11400D01*
X36400Y-11400D02*
X36400Y-13600D01*
X36400Y-13600D02*
X38600Y-13600D01*
X38600Y-13600D02*
X38600Y-11400D01*
X61900Y-11400D02*
X61400Y-11800D01*
X63600Y-11400D02*
X61400Y-11400D01*
X61400Y-11400D02*
X61400Y-13600D01*
X61400Y-13600D02*
X63600Y-13600D01*
X63600Y-13600D02*
X63600Y-11400D01*
X86900Y-11400D02*
X86400Y-11800D01*
X88600Y-11400D02*
X86400Y-11400D01*
X86400Y-11400D02*
X86400Y-13600D01*
X86400Y-13600D02*
X88600Y-13600D01*
X88600Y-13600D02*
X88600Y-11400D01*
X111900Y-11400D02*
X111400Y-11800D01*
X113600Y-11400D02*
X111400Y-11400D01*
X111400Y-11400D02*
X111400Y-13600D01*
X111400Y-13600D02*
X113600Y-13600D01*
X113600Y-13600D02*
X113600Y-11400D01*
X136900Y-11400D02*
X136400Y-11800D01*
X138600Y-11400D02*
X136400Y-11400D01*
X136400Y-11400D02*
X136400Y-13600D01*
X136400Y-13600D02*
X138600Y-13600D01*
X138600Y-13600D02*
X138600Y-11400D01*
X161900Y-11400D02*
X161400Y-11800D01*
X163600Y-11400D02*
X161400Y-11400D01*
X161400Y-11400D02*
X161400Y-13600D01*
X161400Y-13600D02*
X163600Y-13600D01*
X163600Y-13600D02*
X163600Y-11400D01*
X11900Y-36400D02*
X11400Y-36800D01*
X13600Y-36400D02*
X11400Y-36400D01*
X11400Y-36400D02*
X11400Y-38600D01*
X11400Y-38600D02*
X13600Y-38600D01*
X13600Y-38600D02*
X13600Y-36400D01*
X36900Y-36400D02*
X36400Y-36800D01*
X38600Y-36400D02*
X36400Y-36400D01*
X36400Y-36400D02*
X36400Y-38600D01*
X36400Y-38600D02*
X38600Y-38600D01*
X38600Y-38600D02*
X38600Y-36400D01*
X61900Y-36400D02*
X61400Y-36800D01*
X63600Y-36400D02*
X61400Y-36400D01*
X61400Y-36400D02*
X61400Y-38600D01*
X61400Y-38600D02*
X63600Y-38600D01*
X63600Y-38600D02*
X63600Y-36400D01*
X86900Y-36400D02*
X86400Y-36800D01*
X88600Y-36400D02*
X86400Y-36400D01*
X86400Y-36400D02*
X86400Y-38600D01*
X86400Y-38600D02*
X88600Y-38600D01*
X88600Y-38600D02*
X88600Y-36400D01*
X111900Y-36400D02*
X111400Y-36800D01*
X113600Y-36400D02*
X111400Y-36400D01*
X111400Y-36400D02*
X111400Y-38600D01*
X111400Y-38600D02*
X113600Y-38600D01*
X113600Y-38600D02*
X113600Y-36400D01*
X86900Y-86400D02*
X86400Y-86800D01*
X88600Y-86400D02*
X86400Y-86400D01*
X86400Y-86400D02*
X86400Y-88600D01*
X86400Y-88600D02*
X88600Y-88600D01*
X88600Y-88600D02*
X88600Y-86400D01*
X61900Y-86400D02*
X61400Y-86800D01*
X63600Y-86400D02*
X61400Y-86400D01*
X61400Y-86400D02*
X61400Y-88600D01*
X61400Y-88600D02*
X63600Y-88600D01*
X63600Y-88600D02*
X63600Y-86400D01*
X36900Y-86400D02*
X36400Y-86800D01*
X38600Y-86400D02*
X36400Y-86400D01*
X36400Y-86400D02*
X36400Y-88600D01*
X36400Y-88600D02*
X38600Y-88600D01*
X38600Y-88600D02*
X38600Y-86400D01*
X11900Y-86400D02*
X11400Y-86800D01*
X13600Y-86400D02*
X11400Y-86400D01*
X11400Y-86400D02*
X11400Y-88600D01*
X11400Y-88600D02*
X13600Y-88600D01*
X13600Y-88600D02*
X13600Y-86400D01*
X161900Y-61400D02*
X161400Y-61800D01*
X163600Y-61400D02*
X161400Y-61400D01*
X161400Y-61400D02*
X161400Y-63600D01*
X161400Y-63600D02*
X163600Y-63600D01*
X163600Y-63600D02*
X163600Y-61400D01*
X136900Y-61400D02*
X136400Y-61800D01*
X138600Y-61400D02*
X136400Y-61400D01*
X136400Y-61400D02*
X136400Y-63600D01*
X136400Y-63600D02*
X138600Y-63600D01*
X138600Y-63600D02*
X138600Y-61400D01*
X111900Y-61400D02*
X111400Y-61800D01*
X113600Y-61400D02*
X111400Y-61400D01*
X111400Y-61400D02*
X111400Y-63600D01*
X111400Y-63600D02*
X113600Y-63600D01*
X113600Y-63600D02*
X113600Y-61400D01*
X86900Y-61400D02*
X86400Y-61800D01*
X88600Y-61400D02*
X86400Y-61400D01*
X86400Y-61400D02*
X86400Y-63600D01*
X86400Y-63600D02*
X88600Y-63600D01*
X88600Y-63600D02*
X88600Y-61400D01*
X61900Y-61400D02*
X61400Y-61800D01*
X63600Y-61400D02*
X61400Y-61400D01*
X61400Y-61400D02*
X61400Y-63600D01*
X61400Y-63600D02*
X63600Y-63600D01*
X63600Y-63600D02*
X63600Y-61400D01*
X36900Y-61400D02*
X36400Y-61800D01*
X38600Y-61400D02*
X36400Y-61400D01*
X36400Y-61400D02*
X36400Y-63600D01*
X36400Y-63600D02*
X38600Y-63600D01*
X38600Y-63600D02*
X38600Y-61400D01*
X11900Y-61400D02*
X11400Y-61800D01*
X13600Y-61400D02*
X11400Y-61400D01*
X11400Y-61400D02*
X11400Y-63600D01*
X11400Y-63600D02*
X13600Y-63600D01*
X13600Y-63600D02*
X13600Y-61400D01*
X161900Y-36400D02*
X161400Y-36800D01*
X163600Y-36400D02*
X161400Y-36400D01*
X161400Y-36400D02*
X161400Y-38600D01*
X161400Y-38600D02*
X163600Y-38600D01*
X163600Y-38600D02*
X163600Y-36400D01*
X136900Y-36400D02*
X136400Y-36800D01*
X138600Y-36400D02*
X136400Y-36400D01*
X136400Y-36400D02*
X136400Y-38600D01*
X136400Y-38600D02*
X138600Y-38600D01*
X138600Y-38600D02*
X138600Y-36400D01*
G54D13*
X40850Y-138150D02*
X40849Y-138159D01*
X40846Y-138169D01*
X40841Y-138177D01*
X40835Y-138185D01*
X40827Y-138191D01*
X40819Y-138196D01*
X40810Y-138198D01*
X40800Y-138199D01*
X40791Y-138199D01*
X40782Y-138196D01*
X40773Y-138191D01*
X40766Y-138185D01*
X40759Y-138178D01*
X40755Y-138169D01*
X40752Y-138160D01*
X40751Y-138150D01*
X40751Y-138141D01*
X40754Y-138132D01*
X40758Y-138123D01*
X40765Y-138116D01*
X40772Y-138109D01*
X40780Y-138105D01*
X40790Y-138102D01*
X40799Y-138101D01*
X40808Y-138101D01*
X40818Y-138104D01*
X40826Y-138108D01*
X40834Y-138114D01*
X40840Y-138122D01*
X40845Y-138130D01*
X40848Y-138139D01*
X40849Y-138149D01*
X40850Y-138150D01*
X40800Y-137700D02*
X40800Y-138100D01*
X40800Y-138100D02*
X40200Y-138100D01*
X40200Y-138100D02*
X40200Y-137700D01*
X40200Y-137300D02*
X40200Y-136900D01*
X40200Y-136900D02*
X40800Y-136900D01*
X40800Y-136900D02*
X40800Y-137300D01*
X15850Y-138150D02*
X15849Y-138159D01*
X15846Y-138169D01*
X15841Y-138177D01*
X15835Y-138185D01*
X15827Y-138191D01*
X15819Y-138196D01*
X15810Y-138198D01*
X15800Y-138199D01*
X15791Y-138199D01*
X15782Y-138196D01*
X15773Y-138191D01*
X15766Y-138185D01*
X15759Y-138178D01*
X15755Y-138169D01*
X15752Y-138160D01*
X15751Y-138150D01*
X15751Y-138141D01*
X15754Y-138132D01*
X15758Y-138123D01*
X15765Y-138116D01*
X15772Y-138109D01*
X15780Y-138105D01*
X15790Y-138102D01*
X15799Y-138101D01*
X15808Y-138101D01*
X15818Y-138104D01*
X15826Y-138108D01*
X15834Y-138114D01*
X15840Y-138122D01*
X15845Y-138130D01*
X15848Y-138139D01*
X15849Y-138149D01*
X15850Y-138150D01*
X15800Y-137700D02*
X15800Y-138100D01*
X15800Y-138100D02*
X15200Y-138100D01*
X15200Y-138100D02*
X15200Y-137700D01*
X15200Y-137300D02*
X15200Y-136900D01*
X15200Y-136900D02*
X15800Y-136900D01*
X15800Y-136900D02*
X15800Y-137300D01*
X159850Y-113150D02*
X159849Y-113159D01*
X159846Y-113169D01*
X159841Y-113177D01*
X159835Y-113185D01*
X159827Y-113191D01*
X159819Y-113196D01*
X159810Y-113198D01*
X159800Y-113199D01*
X159791Y-113199D01*
X159782Y-113196D01*
X159773Y-113191D01*
X159766Y-113185D01*
X159759Y-113178D01*
X159755Y-113169D01*
X159752Y-113160D01*
X159751Y-113150D01*
X159751Y-113141D01*
X159754Y-113132D01*
X159758Y-113123D01*
X159765Y-113116D01*
X159772Y-113109D01*
X159780Y-113105D01*
X159790Y-113102D01*
X159799Y-113101D01*
X159808Y-113101D01*
X159818Y-113104D01*
X159826Y-113108D01*
X159834Y-113114D01*
X159840Y-113122D01*
X159845Y-113130D01*
X159848Y-113139D01*
X159849Y-113149D01*
X159850Y-113150D01*
X159800Y-112700D02*
X159800Y-113100D01*
X159800Y-113100D02*
X159200Y-113100D01*
X159200Y-113100D02*
X159200Y-112700D01*
X159200Y-112300D02*
X159200Y-111900D01*
X159200Y-111900D02*
X159800Y-111900D01*
X159800Y-111900D02*
X159800Y-112300D01*
X140850Y-113150D02*
X140849Y-113159D01*
X140846Y-113169D01*
X140841Y-113177D01*
X140835Y-113185D01*
X140827Y-113191D01*
X140819Y-113196D01*
X140810Y-113198D01*
X140800Y-113199D01*
X140791Y-113199D01*
X140782Y-113196D01*
X140773Y-113191D01*
X140766Y-113185D01*
X140759Y-113178D01*
X140755Y-113169D01*
X140752Y-113160D01*
X140751Y-113150D01*
X140751Y-113141D01*
X140754Y-113132D01*
X140758Y-113123D01*
X140765Y-113116D01*
X140772Y-113109D01*
X140780Y-113105D01*
X140790Y-113102D01*
X140799Y-113101D01*
X140808Y-113101D01*
X140818Y-113104D01*
X140826Y-113108D01*
X140834Y-113114D01*
X140840Y-113122D01*
X140845Y-113130D01*
X140848Y-113139D01*
X140849Y-113149D01*
X140850Y-113150D01*
X140800Y-112700D02*
X140800Y-113100D01*
X140800Y-113100D02*
X140200Y-113100D01*
X140200Y-113100D02*
X140200Y-112700D01*
X140200Y-112300D02*
X140200Y-111900D01*
X140200Y-111900D02*
X140800Y-111900D01*
X140800Y-111900D02*
X140800Y-112300D01*
X115850Y-113150D02*
X115849Y-113159D01*
X115846Y-113169D01*
X115841Y-113177D01*
X115835Y-113185D01*
X115827Y-113191D01*
X115819Y-113196D01*
X115810Y-113198D01*
X115800Y-113199D01*
X115791Y-113199D01*
X115782Y-113196D01*
X115773Y-113191D01*
X115766Y-113185D01*
X115759Y-113178D01*
X115755Y-113169D01*
X115752Y-113160D01*
X115751Y-113150D01*
X115751Y-113141D01*
X115754Y-113132D01*
X115758Y-113123D01*
X115765Y-113116D01*
X115772Y-113109D01*
X115780Y-113105D01*
X115790Y-113102D01*
X115799Y-113101D01*
X115808Y-113101D01*
X115818Y-113104D01*
X115826Y-113108D01*
X115834Y-113114D01*
X115840Y-113122D01*
X115845Y-113130D01*
X115848Y-113139D01*
X115849Y-113149D01*
X115850Y-113150D01*
X115800Y-112700D02*
X115800Y-113100D01*
X115800Y-113100D02*
X115200Y-113100D01*
X115200Y-113100D02*
X115200Y-112700D01*
X115200Y-112300D02*
X115200Y-111900D01*
X115200Y-111900D02*
X115800Y-111900D01*
X115800Y-111900D02*
X115800Y-112300D01*
X90250Y-111850D02*
X90249Y-111859D01*
X90246Y-111869D01*
X90241Y-111877D01*
X90235Y-111885D01*
X90227Y-111891D01*
X90219Y-111896D01*
X90210Y-111898D01*
X90200Y-111899D01*
X90191Y-111899D01*
X90182Y-111896D01*
X90173Y-111891D01*
X90166Y-111885D01*
X90159Y-111878D01*
X90155Y-111869D01*
X90152Y-111860D01*
X90151Y-111850D01*
X90151Y-111841D01*
X90154Y-111832D01*
X90158Y-111823D01*
X90165Y-111816D01*
X90172Y-111809D01*
X90180Y-111805D01*
X90190Y-111802D01*
X90199Y-111801D01*
X90208Y-111801D01*
X90218Y-111804D01*
X90226Y-111808D01*
X90234Y-111814D01*
X90240Y-111822D01*
X90245Y-111830D01*
X90248Y-111839D01*
X90249Y-111849D01*
X90250Y-111850D01*
X90200Y-112300D02*
X90200Y-111900D01*
X90200Y-111900D02*
X90800Y-111900D01*
X90800Y-111900D02*
X90800Y-112300D01*
X90800Y-112700D02*
X90800Y-113100D01*
X90800Y-113100D02*
X90200Y-113100D01*
X90200Y-113100D02*
X90200Y-112700D01*
X65850Y-113150D02*
X65849Y-113159D01*
X65846Y-113169D01*
X65841Y-113177D01*
X65835Y-113185D01*
X65827Y-113191D01*
X65819Y-113196D01*
X65810Y-113198D01*
X65800Y-113199D01*
X65791Y-113199D01*
X65782Y-113196D01*
X65773Y-113191D01*
X65766Y-113185D01*
X65759Y-113178D01*
X65755Y-113169D01*
X65752Y-113160D01*
X65751Y-113150D01*
X65751Y-113141D01*
X65754Y-113132D01*
X65758Y-113123D01*
X65765Y-113116D01*
X65772Y-113109D01*
X65780Y-113105D01*
X65790Y-113102D01*
X65799Y-113101D01*
X65808Y-113101D01*
X65818Y-113104D01*
X65826Y-113108D01*
X65834Y-113114D01*
X65840Y-113122D01*
X65845Y-113130D01*
X65848Y-113139D01*
X65849Y-113149D01*
X65850Y-113150D01*
X65800Y-112700D02*
X65800Y-113100D01*
X65800Y-113100D02*
X65200Y-113100D01*
X65200Y-113100D02*
X65200Y-112700D01*
X65200Y-112300D02*
X65200Y-111900D01*
X65200Y-111900D02*
X65800Y-111900D01*
X65800Y-111900D02*
X65800Y-112300D01*
X40850Y-113150D02*
X40849Y-113159D01*
X40846Y-113169D01*
X40841Y-113177D01*
X40835Y-113185D01*
X40827Y-113191D01*
X40819Y-113196D01*
X40810Y-113198D01*
X40800Y-113199D01*
X40791Y-113199D01*
X40782Y-113196D01*
X40773Y-113191D01*
X40766Y-113185D01*
X40759Y-113178D01*
X40755Y-113169D01*
X40752Y-113160D01*
X40751Y-113150D01*
X40751Y-113141D01*
X40754Y-113132D01*
X40758Y-113123D01*
X40765Y-113116D01*
X40772Y-113109D01*
X40780Y-113105D01*
X40790Y-113102D01*
X40799Y-113101D01*
X40808Y-113101D01*
X40818Y-113104D01*
X40826Y-113108D01*
X40834Y-113114D01*
X40840Y-113122D01*
X40845Y-113130D01*
X40848Y-113139D01*
X40849Y-113149D01*
X40850Y-113150D01*
X40800Y-112700D02*
X40800Y-113100D01*
X40800Y-113100D02*
X40200Y-113100D01*
X40200Y-113100D02*
X40200Y-112700D01*
X40200Y-112300D02*
X40200Y-111900D01*
X40200Y-111900D02*
X40800Y-111900D01*
X40800Y-111900D02*
X40800Y-112300D01*
X15850Y-113150D02*
X15849Y-113159D01*
X15846Y-113169D01*
X15841Y-113177D01*
X15835Y-113185D01*
X15827Y-113191D01*
X15819Y-113196D01*
X15810Y-113198D01*
X15800Y-113199D01*
X15791Y-113199D01*
X15782Y-113196D01*
X15773Y-113191D01*
X15766Y-113185D01*
X15759Y-113178D01*
X15755Y-113169D01*
X15752Y-113160D01*
X15751Y-113150D01*
X15751Y-113141D01*
X15754Y-113132D01*
X15758Y-113123D01*
X15765Y-113116D01*
X15772Y-113109D01*
X15780Y-113105D01*
X15790Y-113102D01*
X15799Y-113101D01*
X15808Y-113101D01*
X15818Y-113104D01*
X15826Y-113108D01*
X15834Y-113114D01*
X15840Y-113122D01*
X15845Y-113130D01*
X15848Y-113139D01*
X15849Y-113149D01*
X15850Y-113150D01*
X15800Y-112700D02*
X15800Y-113100D01*
X15800Y-113100D02*
X15200Y-113100D01*
X15200Y-113100D02*
X15200Y-112700D01*
X15200Y-112300D02*
X15200Y-111900D01*
X15200Y-111900D02*
X15800Y-111900D01*
X15800Y-111900D02*
X15800Y-112300D01*
X159850Y-88150D02*
X159849Y-88159D01*
X159846Y-88169D01*
X159841Y-88177D01*
X159835Y-88185D01*
X159827Y-88191D01*
X159819Y-88196D01*
X159810Y-88198D01*
X159800Y-88199D01*
X159791Y-88199D01*
X159782Y-88196D01*
X159773Y-88191D01*
X159766Y-88185D01*
X159759Y-88178D01*
X159755Y-88169D01*
X159752Y-88160D01*
X159751Y-88150D01*
X159751Y-88141D01*
X159754Y-88132D01*
X159758Y-88123D01*
X159765Y-88116D01*
X159772Y-88109D01*
X159780Y-88105D01*
X159790Y-88102D01*
X159799Y-88101D01*
X159808Y-88101D01*
X159818Y-88104D01*
X159826Y-88108D01*
X159834Y-88114D01*
X159840Y-88122D01*
X159845Y-88130D01*
X159848Y-88139D01*
X159849Y-88149D01*
X159850Y-88150D01*
X159800Y-87700D02*
X159800Y-88100D01*
X159800Y-88100D02*
X159200Y-88100D01*
X159200Y-88100D02*
X159200Y-87700D01*
X159200Y-87300D02*
X159200Y-86900D01*
X159200Y-86900D02*
X159800Y-86900D01*
X159800Y-86900D02*
X159800Y-87300D01*
X140850Y-88150D02*
X140849Y-88159D01*
X140846Y-88169D01*
X140841Y-88177D01*
X140835Y-88185D01*
X140827Y-88191D01*
X140819Y-88196D01*
X140810Y-88198D01*
X140800Y-88199D01*
X140791Y-88199D01*
X140782Y-88196D01*
X140773Y-88191D01*
X140766Y-88185D01*
X140759Y-88178D01*
X140755Y-88169D01*
X140752Y-88160D01*
X140751Y-88150D01*
X140751Y-88141D01*
X140754Y-88132D01*
X140758Y-88123D01*
X140765Y-88116D01*
X140772Y-88109D01*
X140780Y-88105D01*
X140790Y-88102D01*
X140799Y-88101D01*
X140808Y-88101D01*
X140818Y-88104D01*
X140826Y-88108D01*
X140834Y-88114D01*
X140840Y-88122D01*
X140845Y-88130D01*
X140848Y-88139D01*
X140849Y-88149D01*
X140850Y-88150D01*
X140800Y-87700D02*
X140800Y-88100D01*
X140800Y-88100D02*
X140200Y-88100D01*
X140200Y-88100D02*
X140200Y-87700D01*
X140200Y-87300D02*
X140200Y-86900D01*
X140200Y-86900D02*
X140800Y-86900D01*
X140800Y-86900D02*
X140800Y-87300D01*
X115850Y-88150D02*
X115849Y-88159D01*
X115846Y-88169D01*
X115841Y-88177D01*
X115835Y-88185D01*
X115827Y-88191D01*
X115819Y-88196D01*
X115810Y-88198D01*
X115800Y-88199D01*
X115791Y-88199D01*
X115782Y-88196D01*
X115773Y-88191D01*
X115766Y-88185D01*
X115759Y-88178D01*
X115755Y-88169D01*
X115752Y-88160D01*
X115751Y-88150D01*
X115751Y-88141D01*
X115754Y-88132D01*
X115758Y-88123D01*
X115765Y-88116D01*
X115772Y-88109D01*
X115780Y-88105D01*
X115790Y-88102D01*
X115799Y-88101D01*
X115808Y-88101D01*
X115818Y-88104D01*
X115826Y-88108D01*
X115834Y-88114D01*
X115840Y-88122D01*
X115845Y-88130D01*
X115848Y-88139D01*
X115849Y-88149D01*
X115850Y-88150D01*
X115800Y-87700D02*
X115800Y-88100D01*
X115800Y-88100D02*
X115200Y-88100D01*
X115200Y-88100D02*
X115200Y-87700D01*
X115200Y-87300D02*
X115200Y-86900D01*
X115200Y-86900D02*
X115800Y-86900D01*
X115800Y-86900D02*
X115800Y-87300D01*
X65850Y-138150D02*
X65849Y-138159D01*
X65846Y-138169D01*
X65841Y-138177D01*
X65835Y-138185D01*
X65827Y-138191D01*
X65819Y-138196D01*
X65810Y-138198D01*
X65800Y-138199D01*
X65791Y-138199D01*
X65782Y-138196D01*
X65773Y-138191D01*
X65766Y-138185D01*
X65759Y-138178D01*
X65755Y-138169D01*
X65752Y-138160D01*
X65751Y-138150D01*
X65751Y-138141D01*
X65754Y-138132D01*
X65758Y-138123D01*
X65765Y-138116D01*
X65772Y-138109D01*
X65780Y-138105D01*
X65790Y-138102D01*
X65799Y-138101D01*
X65808Y-138101D01*
X65818Y-138104D01*
X65826Y-138108D01*
X65834Y-138114D01*
X65840Y-138122D01*
X65845Y-138130D01*
X65848Y-138139D01*
X65849Y-138149D01*
X65850Y-138150D01*
X65800Y-137700D02*
X65800Y-138100D01*
X65800Y-138100D02*
X65200Y-138100D01*
X65200Y-138100D02*
X65200Y-137700D01*
X65200Y-137300D02*
X65200Y-136900D01*
X65200Y-136900D02*
X65800Y-136900D01*
X65800Y-136900D02*
X65800Y-137300D01*
X90850Y-138150D02*
X90849Y-138159D01*
X90846Y-138169D01*
X90841Y-138177D01*
X90835Y-138185D01*
X90827Y-138191D01*
X90819Y-138196D01*
X90810Y-138198D01*
X90800Y-138199D01*
X90791Y-138199D01*
X90782Y-138196D01*
X90773Y-138191D01*
X90766Y-138185D01*
X90759Y-138178D01*
X90755Y-138169D01*
X90752Y-138160D01*
X90751Y-138150D01*
X90751Y-138141D01*
X90754Y-138132D01*
X90758Y-138123D01*
X90765Y-138116D01*
X90772Y-138109D01*
X90780Y-138105D01*
X90790Y-138102D01*
X90799Y-138101D01*
X90808Y-138101D01*
X90818Y-138104D01*
X90826Y-138108D01*
X90834Y-138114D01*
X90840Y-138122D01*
X90845Y-138130D01*
X90848Y-138139D01*
X90849Y-138149D01*
X90850Y-138150D01*
X90800Y-137700D02*
X90800Y-138100D01*
X90800Y-138100D02*
X90200Y-138100D01*
X90200Y-138100D02*
X90200Y-137700D01*
X90200Y-137300D02*
X90200Y-136900D01*
X90200Y-136900D02*
X90800Y-136900D01*
X90800Y-136900D02*
X90800Y-137300D01*
X115850Y-138150D02*
X115849Y-138159D01*
X115846Y-138169D01*
X115841Y-138177D01*
X115835Y-138185D01*
X115827Y-138191D01*
X115819Y-138196D01*
X115810Y-138198D01*
X115800Y-138199D01*
X115791Y-138199D01*
X115782Y-138196D01*
X115773Y-138191D01*
X115766Y-138185D01*
X115759Y-138178D01*
X115755Y-138169D01*
X115752Y-138160D01*
X115751Y-138150D01*
X115751Y-138141D01*
X115754Y-138132D01*
X115758Y-138123D01*
X115765Y-138116D01*
X115772Y-138109D01*
X115780Y-138105D01*
X115790Y-138102D01*
X115799Y-138101D01*
X115808Y-138101D01*
X115818Y-138104D01*
X115826Y-138108D01*
X115834Y-138114D01*
X115840Y-138122D01*
X115845Y-138130D01*
X115848Y-138139D01*
X115849Y-138149D01*
X115850Y-138150D01*
X115800Y-137700D02*
X115800Y-138100D01*
X115800Y-138100D02*
X115200Y-138100D01*
X115200Y-138100D02*
X115200Y-137700D01*
X115200Y-137300D02*
X115200Y-136900D01*
X115200Y-136900D02*
X115800Y-136900D01*
X115800Y-136900D02*
X115800Y-137300D01*
X140850Y-138150D02*
X140849Y-138159D01*
X140846Y-138169D01*
X140841Y-138177D01*
X140835Y-138185D01*
X140827Y-138191D01*
X140819Y-138196D01*
X140810Y-138198D01*
X140800Y-138199D01*
X140791Y-138199D01*
X140782Y-138196D01*
X140773Y-138191D01*
X140766Y-138185D01*
X140759Y-138178D01*
X140755Y-138169D01*
X140752Y-138160D01*
X140751Y-138150D01*
X140751Y-138141D01*
X140754Y-138132D01*
X140758Y-138123D01*
X140765Y-138116D01*
X140772Y-138109D01*
X140780Y-138105D01*
X140790Y-138102D01*
X140799Y-138101D01*
X140808Y-138101D01*
X140818Y-138104D01*
X140826Y-138108D01*
X140834Y-138114D01*
X140840Y-138122D01*
X140845Y-138130D01*
X140848Y-138139D01*
X140849Y-138149D01*
X140850Y-138150D01*
X140800Y-137700D02*
X140800Y-138100D01*
X140800Y-138100D02*
X140200Y-138100D01*
X140200Y-138100D02*
X140200Y-137700D01*
X140200Y-137300D02*
X140200Y-136900D01*
X140200Y-136900D02*
X140800Y-136900D01*
X140800Y-136900D02*
X140800Y-137300D01*
X159850Y-138150D02*
X159849Y-138159D01*
X159846Y-138169D01*
X159841Y-138177D01*
X159835Y-138185D01*
X159827Y-138191D01*
X159819Y-138196D01*
X159810Y-138198D01*
X159800Y-138199D01*
X159791Y-138199D01*
X159782Y-138196D01*
X159773Y-138191D01*
X159766Y-138185D01*
X159759Y-138178D01*
X159755Y-138169D01*
X159752Y-138160D01*
X159751Y-138150D01*
X159751Y-138141D01*
X159754Y-138132D01*
X159758Y-138123D01*
X159765Y-138116D01*
X159772Y-138109D01*
X159780Y-138105D01*
X159790Y-138102D01*
X159799Y-138101D01*
X159808Y-138101D01*
X159818Y-138104D01*
X159826Y-138108D01*
X159834Y-138114D01*
X159840Y-138122D01*
X159845Y-138130D01*
X159848Y-138139D01*
X159849Y-138149D01*
X159850Y-138150D01*
X159800Y-137700D02*
X159800Y-138100D01*
X159800Y-138100D02*
X159200Y-138100D01*
X159200Y-138100D02*
X159200Y-137700D01*
X159200Y-137300D02*
X159200Y-136900D01*
X159200Y-136900D02*
X159800Y-136900D01*
X159800Y-136900D02*
X159800Y-137300D01*
X15850Y-163150D02*
X15849Y-163159D01*
X15846Y-163169D01*
X15841Y-163177D01*
X15835Y-163185D01*
X15827Y-163191D01*
X15819Y-163196D01*
X15810Y-163198D01*
X15800Y-163199D01*
X15791Y-163199D01*
X15782Y-163196D01*
X15773Y-163191D01*
X15766Y-163185D01*
X15759Y-163178D01*
X15755Y-163169D01*
X15752Y-163160D01*
X15751Y-163150D01*
X15751Y-163141D01*
X15754Y-163132D01*
X15758Y-163123D01*
X15765Y-163116D01*
X15772Y-163109D01*
X15780Y-163105D01*
X15790Y-163102D01*
X15799Y-163101D01*
X15808Y-163101D01*
X15818Y-163104D01*
X15826Y-163108D01*
X15834Y-163114D01*
X15840Y-163122D01*
X15845Y-163130D01*
X15848Y-163139D01*
X15849Y-163149D01*
X15850Y-163150D01*
X15800Y-162700D02*
X15800Y-163100D01*
X15800Y-163100D02*
X15200Y-163100D01*
X15200Y-163100D02*
X15200Y-162700D01*
X15200Y-162300D02*
X15200Y-161900D01*
X15200Y-161900D02*
X15800Y-161900D01*
X15800Y-161900D02*
X15800Y-162300D01*
X40850Y-163150D02*
X40849Y-163159D01*
X40846Y-163169D01*
X40841Y-163177D01*
X40835Y-163185D01*
X40827Y-163191D01*
X40819Y-163196D01*
X40810Y-163198D01*
X40800Y-163199D01*
X40791Y-163199D01*
X40782Y-163196D01*
X40773Y-163191D01*
X40766Y-163185D01*
X40759Y-163178D01*
X40755Y-163169D01*
X40752Y-163160D01*
X40751Y-163150D01*
X40751Y-163141D01*
X40754Y-163132D01*
X40758Y-163123D01*
X40765Y-163116D01*
X40772Y-163109D01*
X40780Y-163105D01*
X40790Y-163102D01*
X40799Y-163101D01*
X40808Y-163101D01*
X40818Y-163104D01*
X40826Y-163108D01*
X40834Y-163114D01*
X40840Y-163122D01*
X40845Y-163130D01*
X40848Y-163139D01*
X40849Y-163149D01*
X40850Y-163150D01*
X40800Y-162700D02*
X40800Y-163100D01*
X40800Y-163100D02*
X40200Y-163100D01*
X40200Y-163100D02*
X40200Y-162700D01*
X40200Y-162300D02*
X40200Y-161900D01*
X40200Y-161900D02*
X40800Y-161900D01*
X40800Y-161900D02*
X40800Y-162300D01*
X65850Y-163150D02*
X65849Y-163159D01*
X65846Y-163169D01*
X65841Y-163177D01*
X65835Y-163185D01*
X65827Y-163191D01*
X65819Y-163196D01*
X65810Y-163198D01*
X65800Y-163199D01*
X65791Y-163199D01*
X65782Y-163196D01*
X65773Y-163191D01*
X65766Y-163185D01*
X65759Y-163178D01*
X65755Y-163169D01*
X65752Y-163160D01*
X65751Y-163150D01*
X65751Y-163141D01*
X65754Y-163132D01*
X65758Y-163123D01*
X65765Y-163116D01*
X65772Y-163109D01*
X65780Y-163105D01*
X65790Y-163102D01*
X65799Y-163101D01*
X65808Y-163101D01*
X65818Y-163104D01*
X65826Y-163108D01*
X65834Y-163114D01*
X65840Y-163122D01*
X65845Y-163130D01*
X65848Y-163139D01*
X65849Y-163149D01*
X65850Y-163150D01*
X65800Y-162700D02*
X65800Y-163100D01*
X65800Y-163100D02*
X65200Y-163100D01*
X65200Y-163100D02*
X65200Y-162700D01*
X65200Y-162300D02*
X65200Y-161900D01*
X65200Y-161900D02*
X65800Y-161900D01*
X65800Y-161900D02*
X65800Y-162300D01*
X90850Y-163150D02*
X90849Y-163159D01*
X90846Y-163169D01*
X90841Y-163177D01*
X90835Y-163185D01*
X90827Y-163191D01*
X90819Y-163196D01*
X90810Y-163198D01*
X90800Y-163199D01*
X90791Y-163199D01*
X90782Y-163196D01*
X90773Y-163191D01*
X90766Y-163185D01*
X90759Y-163178D01*
X90755Y-163169D01*
X90752Y-163160D01*
X90751Y-163150D01*
X90751Y-163141D01*
X90754Y-163132D01*
X90758Y-163123D01*
X90765Y-163116D01*
X90772Y-163109D01*
X90780Y-163105D01*
X90790Y-163102D01*
X90799Y-163101D01*
X90808Y-163101D01*
X90818Y-163104D01*
X90826Y-163108D01*
X90834Y-163114D01*
X90840Y-163122D01*
X90845Y-163130D01*
X90848Y-163139D01*
X90849Y-163149D01*
X90850Y-163150D01*
X90800Y-162700D02*
X90800Y-163100D01*
X90800Y-163100D02*
X90200Y-163100D01*
X90200Y-163100D02*
X90200Y-162700D01*
X90200Y-162300D02*
X90200Y-161900D01*
X90200Y-161900D02*
X90800Y-161900D01*
X90800Y-161900D02*
X90800Y-162300D01*
X115850Y-163150D02*
X115849Y-163159D01*
X115846Y-163169D01*
X115841Y-163177D01*
X115835Y-163185D01*
X115827Y-163191D01*
X115819Y-163196D01*
X115810Y-163198D01*
X115800Y-163199D01*
X115791Y-163199D01*
X115782Y-163196D01*
X115773Y-163191D01*
X115766Y-163185D01*
X115759Y-163178D01*
X115755Y-163169D01*
X115752Y-163160D01*
X115751Y-163150D01*
X115751Y-163141D01*
X115754Y-163132D01*
X115758Y-163123D01*
X115765Y-163116D01*
X115772Y-163109D01*
X115780Y-163105D01*
X115790Y-163102D01*
X115799Y-163101D01*
X115808Y-163101D01*
X115818Y-163104D01*
X115826Y-163108D01*
X115834Y-163114D01*
X115840Y-163122D01*
X115845Y-163130D01*
X115848Y-163139D01*
X115849Y-163149D01*
X115850Y-163150D01*
X115800Y-162700D02*
X115800Y-163100D01*
X115800Y-163100D02*
X115200Y-163100D01*
X115200Y-163100D02*
X115200Y-162700D01*
X115200Y-162300D02*
X115200Y-161900D01*
X115200Y-161900D02*
X115800Y-161900D01*
X115800Y-161900D02*
X115800Y-162300D01*
X140850Y-163150D02*
X140849Y-163159D01*
X140846Y-163169D01*
X140841Y-163177D01*
X140835Y-163185D01*
X140827Y-163191D01*
X140819Y-163196D01*
X140810Y-163198D01*
X140800Y-163199D01*
X140791Y-163199D01*
X140782Y-163196D01*
X140773Y-163191D01*
X140766Y-163185D01*
X140759Y-163178D01*
X140755Y-163169D01*
X140752Y-163160D01*
X140751Y-163150D01*
X140751Y-163141D01*
X140754Y-163132D01*
X140758Y-163123D01*
X140765Y-163116D01*
X140772Y-163109D01*
X140780Y-163105D01*
X140790Y-163102D01*
X140799Y-163101D01*
X140808Y-163101D01*
X140818Y-163104D01*
X140826Y-163108D01*
X140834Y-163114D01*
X140840Y-163122D01*
X140845Y-163130D01*
X140848Y-163139D01*
X140849Y-163149D01*
X140850Y-163150D01*
X140800Y-162700D02*
X140800Y-163100D01*
X140800Y-163100D02*
X140200Y-163100D01*
X140200Y-163100D02*
X140200Y-162700D01*
X140200Y-162300D02*
X140200Y-161900D01*
X140200Y-161900D02*
X140800Y-161900D01*
X140800Y-161900D02*
X140800Y-162300D01*
X159850Y-163150D02*
X159849Y-163159D01*
X159846Y-163169D01*
X159841Y-163177D01*
X159835Y-163185D01*
X159827Y-163191D01*
X159819Y-163196D01*
X159810Y-163198D01*
X159800Y-163199D01*
X159791Y-163199D01*
X159782Y-163196D01*
X159773Y-163191D01*
X159766Y-163185D01*
X159759Y-163178D01*
X159755Y-163169D01*
X159752Y-163160D01*
X159751Y-163150D01*
X159751Y-163141D01*
X159754Y-163132D01*
X159758Y-163123D01*
X159765Y-163116D01*
X159772Y-163109D01*
X159780Y-163105D01*
X159790Y-163102D01*
X159799Y-163101D01*
X159808Y-163101D01*
X159818Y-163104D01*
X159826Y-163108D01*
X159834Y-163114D01*
X159840Y-163122D01*
X159845Y-163130D01*
X159848Y-163139D01*
X159849Y-163149D01*
X159850Y-163150D01*
X159800Y-162700D02*
X159800Y-163100D01*
X159800Y-163100D02*
X159200Y-163100D01*
X159200Y-163100D02*
X159200Y-162700D01*
X159200Y-162300D02*
X159200Y-161900D01*
X159200Y-161900D02*
X159800Y-161900D01*
X159800Y-161900D02*
X159800Y-162300D01*
X15850Y-13150D02*
X15849Y-13159D01*
X15846Y-13169D01*
X15841Y-13177D01*
X15835Y-13185D01*
X15827Y-13191D01*
X15819Y-13196D01*
X15810Y-13198D01*
X15800Y-13199D01*
X15791Y-13199D01*
X15782Y-13196D01*
X15773Y-13191D01*
X15766Y-13185D01*
X15759Y-13178D01*
X15755Y-13169D01*
X15752Y-13160D01*
X15751Y-13150D01*
X15751Y-13141D01*
X15754Y-13132D01*
X15758Y-13123D01*
X15765Y-13116D01*
X15772Y-13109D01*
X15780Y-13105D01*
X15790Y-13102D01*
X15799Y-13101D01*
X15808Y-13101D01*
X15818Y-13104D01*
X15826Y-13108D01*
X15834Y-13114D01*
X15840Y-13122D01*
X15845Y-13130D01*
X15848Y-13139D01*
X15849Y-13149D01*
X15850Y-13150D01*
X15800Y-12700D02*
X15800Y-13100D01*
X15800Y-13100D02*
X15200Y-13100D01*
X15200Y-13100D02*
X15200Y-12700D01*
X15200Y-12300D02*
X15200Y-11900D01*
X15200Y-11900D02*
X15800Y-11900D01*
X15800Y-11900D02*
X15800Y-12300D01*
X40850Y-13150D02*
X40849Y-13159D01*
X40846Y-13169D01*
X40841Y-13177D01*
X40835Y-13185D01*
X40827Y-13191D01*
X40819Y-13196D01*
X40810Y-13198D01*
X40800Y-13199D01*
X40791Y-13199D01*
X40782Y-13196D01*
X40773Y-13191D01*
X40766Y-13185D01*
X40759Y-13178D01*
X40755Y-13169D01*
X40752Y-13160D01*
X40751Y-13150D01*
X40751Y-13141D01*
X40754Y-13132D01*
X40758Y-13123D01*
X40765Y-13116D01*
X40772Y-13109D01*
X40780Y-13105D01*
X40790Y-13102D01*
X40799Y-13101D01*
X40808Y-13101D01*
X40818Y-13104D01*
X40826Y-13108D01*
X40834Y-13114D01*
X40840Y-13122D01*
X40845Y-13130D01*
X40848Y-13139D01*
X40849Y-13149D01*
X40850Y-13150D01*
X40800Y-12700D02*
X40800Y-13100D01*
X40800Y-13100D02*
X40200Y-13100D01*
X40200Y-13100D02*
X40200Y-12700D01*
X40200Y-12300D02*
X40200Y-11900D01*
X40200Y-11900D02*
X40800Y-11900D01*
X40800Y-11900D02*
X40800Y-12300D01*
X65850Y-13150D02*
X65849Y-13159D01*
X65846Y-13169D01*
X65841Y-13177D01*
X65835Y-13185D01*
X65827Y-13191D01*
X65819Y-13196D01*
X65810Y-13198D01*
X65800Y-13199D01*
X65791Y-13199D01*
X65782Y-13196D01*
X65773Y-13191D01*
X65766Y-13185D01*
X65759Y-13178D01*
X65755Y-13169D01*
X65752Y-13160D01*
X65751Y-13150D01*
X65751Y-13141D01*
X65754Y-13132D01*
X65758Y-13123D01*
X65765Y-13116D01*
X65772Y-13109D01*
X65780Y-13105D01*
X65790Y-13102D01*
X65799Y-13101D01*
X65808Y-13101D01*
X65818Y-13104D01*
X65826Y-13108D01*
X65834Y-13114D01*
X65840Y-13122D01*
X65845Y-13130D01*
X65848Y-13139D01*
X65849Y-13149D01*
X65850Y-13150D01*
X65800Y-12700D02*
X65800Y-13100D01*
X65800Y-13100D02*
X65200Y-13100D01*
X65200Y-13100D02*
X65200Y-12700D01*
X65200Y-12300D02*
X65200Y-11900D01*
X65200Y-11900D02*
X65800Y-11900D01*
X65800Y-11900D02*
X65800Y-12300D01*
X90850Y-13150D02*
X90849Y-13159D01*
X90846Y-13169D01*
X90841Y-13177D01*
X90835Y-13185D01*
X90827Y-13191D01*
X90819Y-13196D01*
X90810Y-13198D01*
X90800Y-13199D01*
X90791Y-13199D01*
X90782Y-13196D01*
X90773Y-13191D01*
X90766Y-13185D01*
X90759Y-13178D01*
X90755Y-13169D01*
X90752Y-13160D01*
X90751Y-13150D01*
X90751Y-13141D01*
X90754Y-13132D01*
X90758Y-13123D01*
X90765Y-13116D01*
X90772Y-13109D01*
X90780Y-13105D01*
X90790Y-13102D01*
X90799Y-13101D01*
X90808Y-13101D01*
X90818Y-13104D01*
X90826Y-13108D01*
X90834Y-13114D01*
X90840Y-13122D01*
X90845Y-13130D01*
X90848Y-13139D01*
X90849Y-13149D01*
X90850Y-13150D01*
X90800Y-12700D02*
X90800Y-13100D01*
X90800Y-13100D02*
X90200Y-13100D01*
X90200Y-13100D02*
X90200Y-12700D01*
X90200Y-12300D02*
X90200Y-11900D01*
X90200Y-11900D02*
X90800Y-11900D01*
X90800Y-11900D02*
X90800Y-12300D01*
X115850Y-13150D02*
X115849Y-13159D01*
X115846Y-13169D01*
X115841Y-13177D01*
X115835Y-13185D01*
X115827Y-13191D01*
X115819Y-13196D01*
X115810Y-13198D01*
X115800Y-13199D01*
X115791Y-13199D01*
X115782Y-13196D01*
X115773Y-13191D01*
X115766Y-13185D01*
X115759Y-13178D01*
X115755Y-13169D01*
X115752Y-13160D01*
X115751Y-13150D01*
X115751Y-13141D01*
X115754Y-13132D01*
X115758Y-13123D01*
X115765Y-13116D01*
X115772Y-13109D01*
X115780Y-13105D01*
X115790Y-13102D01*
X115799Y-13101D01*
X115808Y-13101D01*
X115818Y-13104D01*
X115826Y-13108D01*
X115834Y-13114D01*
X115840Y-13122D01*
X115845Y-13130D01*
X115848Y-13139D01*
X115849Y-13149D01*
X115850Y-13150D01*
X115800Y-12700D02*
X115800Y-13100D01*
X115800Y-13100D02*
X115200Y-13100D01*
X115200Y-13100D02*
X115200Y-12700D01*
X115200Y-12300D02*
X115200Y-11900D01*
X115200Y-11900D02*
X115800Y-11900D01*
X115800Y-11900D02*
X115800Y-12300D01*
X140850Y-13150D02*
X140849Y-13159D01*
X140846Y-13169D01*
X140841Y-13177D01*
X140835Y-13185D01*
X140827Y-13191D01*
X140819Y-13196D01*
X140810Y-13198D01*
X140800Y-13199D01*
X140791Y-13199D01*
X140782Y-13196D01*
X140773Y-13191D01*
X140766Y-13185D01*
X140759Y-13178D01*
X140755Y-13169D01*
X140752Y-13160D01*
X140751Y-13150D01*
X140751Y-13141D01*
X140754Y-13132D01*
X140758Y-13123D01*
X140765Y-13116D01*
X140772Y-13109D01*
X140780Y-13105D01*
X140790Y-13102D01*
X140799Y-13101D01*
X140808Y-13101D01*
X140818Y-13104D01*
X140826Y-13108D01*
X140834Y-13114D01*
X140840Y-13122D01*
X140845Y-13130D01*
X140848Y-13139D01*
X140849Y-13149D01*
X140850Y-13150D01*
X140800Y-12700D02*
X140800Y-13100D01*
X140800Y-13100D02*
X140200Y-13100D01*
X140200Y-13100D02*
X140200Y-12700D01*
X140200Y-12300D02*
X140200Y-11900D01*
X140200Y-11900D02*
X140800Y-11900D01*
X140800Y-11900D02*
X140800Y-12300D01*
X159850Y-13150D02*
X159849Y-13159D01*
X159846Y-13169D01*
X159841Y-13177D01*
X159835Y-13185D01*
X159827Y-13191D01*
X159819Y-13196D01*
X159810Y-13198D01*
X159800Y-13199D01*
X159791Y-13199D01*
X159782Y-13196D01*
X159773Y-13191D01*
X159766Y-13185D01*
X159759Y-13178D01*
X159755Y-13169D01*
X159752Y-13160D01*
X159751Y-13150D01*
X159751Y-13141D01*
X159754Y-13132D01*
X159758Y-13123D01*
X159765Y-13116D01*
X159772Y-13109D01*
X159780Y-13105D01*
X159790Y-13102D01*
X159799Y-13101D01*
X159808Y-13101D01*
X159818Y-13104D01*
X159826Y-13108D01*
X159834Y-13114D01*
X159840Y-13122D01*
X159845Y-13130D01*
X159848Y-13139D01*
X159849Y-13149D01*
X159850Y-13150D01*
X159800Y-12700D02*
X159800Y-13100D01*
X159800Y-13100D02*
X159200Y-13100D01*
X159200Y-13100D02*
X159200Y-12700D01*
X159200Y-12300D02*
X159200Y-11900D01*
X159200Y-11900D02*
X159800Y-11900D01*
X159800Y-11900D02*
X159800Y-12300D01*
X15850Y-38150D02*
X15849Y-38159D01*
X15846Y-38169D01*
X15841Y-38177D01*
X15835Y-38185D01*
X15827Y-38191D01*
X15819Y-38196D01*
X15810Y-38198D01*
X15800Y-38199D01*
X15791Y-38199D01*
X15782Y-38196D01*
X15773Y-38191D01*
X15766Y-38185D01*
X15759Y-38178D01*
X15755Y-38169D01*
X15752Y-38160D01*
X15751Y-38150D01*
X15751Y-38141D01*
X15754Y-38132D01*
X15758Y-38123D01*
X15765Y-38116D01*
X15772Y-38109D01*
X15780Y-38105D01*
X15790Y-38102D01*
X15799Y-38101D01*
X15808Y-38101D01*
X15818Y-38104D01*
X15826Y-38108D01*
X15834Y-38114D01*
X15840Y-38122D01*
X15845Y-38130D01*
X15848Y-38139D01*
X15849Y-38149D01*
X15850Y-38150D01*
X15800Y-37700D02*
X15800Y-38100D01*
X15800Y-38100D02*
X15200Y-38100D01*
X15200Y-38100D02*
X15200Y-37700D01*
X15200Y-37300D02*
X15200Y-36900D01*
X15200Y-36900D02*
X15800Y-36900D01*
X15800Y-36900D02*
X15800Y-37300D01*
X40850Y-38150D02*
X40849Y-38159D01*
X40846Y-38169D01*
X40841Y-38177D01*
X40835Y-38185D01*
X40827Y-38191D01*
X40819Y-38196D01*
X40810Y-38198D01*
X40800Y-38199D01*
X40791Y-38199D01*
X40782Y-38196D01*
X40773Y-38191D01*
X40766Y-38185D01*
X40759Y-38178D01*
X40755Y-38169D01*
X40752Y-38160D01*
X40751Y-38150D01*
X40751Y-38141D01*
X40754Y-38132D01*
X40758Y-38123D01*
X40765Y-38116D01*
X40772Y-38109D01*
X40780Y-38105D01*
X40790Y-38102D01*
X40799Y-38101D01*
X40808Y-38101D01*
X40818Y-38104D01*
X40826Y-38108D01*
X40834Y-38114D01*
X40840Y-38122D01*
X40845Y-38130D01*
X40848Y-38139D01*
X40849Y-38149D01*
X40850Y-38150D01*
X40800Y-37700D02*
X40800Y-38100D01*
X40800Y-38100D02*
X40200Y-38100D01*
X40200Y-38100D02*
X40200Y-37700D01*
X40200Y-37300D02*
X40200Y-36900D01*
X40200Y-36900D02*
X40800Y-36900D01*
X40800Y-36900D02*
X40800Y-37300D01*
X65850Y-38150D02*
X65849Y-38159D01*
X65846Y-38169D01*
X65841Y-38177D01*
X65835Y-38185D01*
X65827Y-38191D01*
X65819Y-38196D01*
X65810Y-38198D01*
X65800Y-38199D01*
X65791Y-38199D01*
X65782Y-38196D01*
X65773Y-38191D01*
X65766Y-38185D01*
X65759Y-38178D01*
X65755Y-38169D01*
X65752Y-38160D01*
X65751Y-38150D01*
X65751Y-38141D01*
X65754Y-38132D01*
X65758Y-38123D01*
X65765Y-38116D01*
X65772Y-38109D01*
X65780Y-38105D01*
X65790Y-38102D01*
X65799Y-38101D01*
X65808Y-38101D01*
X65818Y-38104D01*
X65826Y-38108D01*
X65834Y-38114D01*
X65840Y-38122D01*
X65845Y-38130D01*
X65848Y-38139D01*
X65849Y-38149D01*
X65850Y-38150D01*
X65800Y-37700D02*
X65800Y-38100D01*
X65800Y-38100D02*
X65200Y-38100D01*
X65200Y-38100D02*
X65200Y-37700D01*
X65200Y-37300D02*
X65200Y-36900D01*
X65200Y-36900D02*
X65800Y-36900D01*
X65800Y-36900D02*
X65800Y-37300D01*
X90850Y-38150D02*
X90849Y-38159D01*
X90846Y-38169D01*
X90841Y-38177D01*
X90835Y-38185D01*
X90827Y-38191D01*
X90819Y-38196D01*
X90810Y-38198D01*
X90800Y-38199D01*
X90791Y-38199D01*
X90782Y-38196D01*
X90773Y-38191D01*
X90766Y-38185D01*
X90759Y-38178D01*
X90755Y-38169D01*
X90752Y-38160D01*
X90751Y-38150D01*
X90751Y-38141D01*
X90754Y-38132D01*
X90758Y-38123D01*
X90765Y-38116D01*
X90772Y-38109D01*
X90780Y-38105D01*
X90790Y-38102D01*
X90799Y-38101D01*
X90808Y-38101D01*
X90818Y-38104D01*
X90826Y-38108D01*
X90834Y-38114D01*
X90840Y-38122D01*
X90845Y-38130D01*
X90848Y-38139D01*
X90849Y-38149D01*
X90850Y-38150D01*
X90800Y-37700D02*
X90800Y-38100D01*
X90800Y-38100D02*
X90200Y-38100D01*
X90200Y-38100D02*
X90200Y-37700D01*
X90200Y-37300D02*
X90200Y-36900D01*
X90200Y-36900D02*
X90800Y-36900D01*
X90800Y-36900D02*
X90800Y-37300D01*
X115850Y-38150D02*
X115849Y-38159D01*
X115846Y-38169D01*
X115841Y-38177D01*
X115835Y-38185D01*
X115827Y-38191D01*
X115819Y-38196D01*
X115810Y-38198D01*
X115800Y-38199D01*
X115791Y-38199D01*
X115782Y-38196D01*
X115773Y-38191D01*
X115766Y-38185D01*
X115759Y-38178D01*
X115755Y-38169D01*
X115752Y-38160D01*
X115751Y-38150D01*
X115751Y-38141D01*
X115754Y-38132D01*
X115758Y-38123D01*
X115765Y-38116D01*
X115772Y-38109D01*
X115780Y-38105D01*
X115790Y-38102D01*
X115799Y-38101D01*
X115808Y-38101D01*
X115818Y-38104D01*
X115826Y-38108D01*
X115834Y-38114D01*
X115840Y-38122D01*
X115845Y-38130D01*
X115848Y-38139D01*
X115849Y-38149D01*
X115850Y-38150D01*
X115800Y-37700D02*
X115800Y-38100D01*
X115800Y-38100D02*
X115200Y-38100D01*
X115200Y-38100D02*
X115200Y-37700D01*
X115200Y-37300D02*
X115200Y-36900D01*
X115200Y-36900D02*
X115800Y-36900D01*
X115800Y-36900D02*
X115800Y-37300D01*
X140850Y-38150D02*
X140849Y-38159D01*
X140846Y-38169D01*
X140841Y-38177D01*
X140835Y-38185D01*
X140827Y-38191D01*
X140819Y-38196D01*
X140810Y-38198D01*
X140800Y-38199D01*
X140791Y-38199D01*
X140782Y-38196D01*
X140773Y-38191D01*
X140766Y-38185D01*
X140759Y-38178D01*
X140755Y-38169D01*
X140752Y-38160D01*
X140751Y-38150D01*
X140751Y-38141D01*
X140754Y-38132D01*
X140758Y-38123D01*
X140765Y-38116D01*
X140772Y-38109D01*
X140780Y-38105D01*
X140790Y-38102D01*
X140799Y-38101D01*
X140808Y-38101D01*
X140818Y-38104D01*
X140826Y-38108D01*
X140834Y-38114D01*
X140840Y-38122D01*
X140845Y-38130D01*
X140848Y-38139D01*
X140849Y-38149D01*
X140850Y-38150D01*
X140800Y-37700D02*
X140800Y-38100D01*
X140800Y-38100D02*
X140200Y-38100D01*
X140200Y-38100D02*
X140200Y-37700D01*
X140200Y-37300D02*
X140200Y-36900D01*
X140200Y-36900D02*
X140800Y-36900D01*
X140800Y-36900D02*
X140800Y-37300D01*
X159850Y-38150D02*
X159849Y-38159D01*
X159846Y-38169D01*
X159841Y-38177D01*
X159835Y-38185D01*
X159827Y-38191D01*
X159819Y-38196D01*
X159810Y-38198D01*
X159800Y-38199D01*
X159791Y-38199D01*
X159782Y-38196D01*
X159773Y-38191D01*
X159766Y-38185D01*
X159759Y-38178D01*
X159755Y-38169D01*
X159752Y-38160D01*
X159751Y-38150D01*
X159751Y-38141D01*
X159754Y-38132D01*
X159758Y-38123D01*
X159765Y-38116D01*
X159772Y-38109D01*
X159780Y-38105D01*
X159790Y-38102D01*
X159799Y-38101D01*
X159808Y-38101D01*
X159818Y-38104D01*
X159826Y-38108D01*
X159834Y-38114D01*
X159840Y-38122D01*
X159845Y-38130D01*
X159848Y-38139D01*
X159849Y-38149D01*
X159850Y-38150D01*
X159800Y-37700D02*
X159800Y-38100D01*
X159800Y-38100D02*
X159200Y-38100D01*
X159200Y-38100D02*
X159200Y-37700D01*
X159200Y-37300D02*
X159200Y-36900D01*
X159200Y-36900D02*
X159800Y-36900D01*
X159800Y-36900D02*
X159800Y-37300D01*
X15850Y-63150D02*
X15849Y-63159D01*
X15846Y-63169D01*
X15841Y-63177D01*
X15835Y-63185D01*
X15827Y-63191D01*
X15819Y-63196D01*
X15810Y-63198D01*
X15800Y-63199D01*
X15791Y-63199D01*
X15782Y-63196D01*
X15773Y-63191D01*
X15766Y-63185D01*
X15759Y-63178D01*
X15755Y-63169D01*
X15752Y-63160D01*
X15751Y-63150D01*
X15751Y-63141D01*
X15754Y-63132D01*
X15758Y-63123D01*
X15765Y-63116D01*
X15772Y-63109D01*
X15780Y-63105D01*
X15790Y-63102D01*
X15799Y-63101D01*
X15808Y-63101D01*
X15818Y-63104D01*
X15826Y-63108D01*
X15834Y-63114D01*
X15840Y-63122D01*
X15845Y-63130D01*
X15848Y-63139D01*
X15849Y-63149D01*
X15850Y-63150D01*
X15800Y-62700D02*
X15800Y-63100D01*
X15800Y-63100D02*
X15200Y-63100D01*
X15200Y-63100D02*
X15200Y-62700D01*
X15200Y-62300D02*
X15200Y-61900D01*
X15200Y-61900D02*
X15800Y-61900D01*
X15800Y-61900D02*
X15800Y-62300D01*
X40850Y-63150D02*
X40849Y-63159D01*
X40846Y-63169D01*
X40841Y-63177D01*
X40835Y-63185D01*
X40827Y-63191D01*
X40819Y-63196D01*
X40810Y-63198D01*
X40800Y-63199D01*
X40791Y-63199D01*
X40782Y-63196D01*
X40773Y-63191D01*
X40766Y-63185D01*
X40759Y-63178D01*
X40755Y-63169D01*
X40752Y-63160D01*
X40751Y-63150D01*
X40751Y-63141D01*
X40754Y-63132D01*
X40758Y-63123D01*
X40765Y-63116D01*
X40772Y-63109D01*
X40780Y-63105D01*
X40790Y-63102D01*
X40799Y-63101D01*
X40808Y-63101D01*
X40818Y-63104D01*
X40826Y-63108D01*
X40834Y-63114D01*
X40840Y-63122D01*
X40845Y-63130D01*
X40848Y-63139D01*
X40849Y-63149D01*
X40850Y-63150D01*
X40800Y-62700D02*
X40800Y-63100D01*
X40800Y-63100D02*
X40200Y-63100D01*
X40200Y-63100D02*
X40200Y-62700D01*
X40200Y-62300D02*
X40200Y-61900D01*
X40200Y-61900D02*
X40800Y-61900D01*
X40800Y-61900D02*
X40800Y-62300D01*
X65850Y-63150D02*
X65849Y-63159D01*
X65846Y-63169D01*
X65841Y-63177D01*
X65835Y-63185D01*
X65827Y-63191D01*
X65819Y-63196D01*
X65810Y-63198D01*
X65800Y-63199D01*
X65791Y-63199D01*
X65782Y-63196D01*
X65773Y-63191D01*
X65766Y-63185D01*
X65759Y-63178D01*
X65755Y-63169D01*
X65752Y-63160D01*
X65751Y-63150D01*
X65751Y-63141D01*
X65754Y-63132D01*
X65758Y-63123D01*
X65765Y-63116D01*
X65772Y-63109D01*
X65780Y-63105D01*
X65790Y-63102D01*
X65799Y-63101D01*
X65808Y-63101D01*
X65818Y-63104D01*
X65826Y-63108D01*
X65834Y-63114D01*
X65840Y-63122D01*
X65845Y-63130D01*
X65848Y-63139D01*
X65849Y-63149D01*
X65850Y-63150D01*
X65800Y-62700D02*
X65800Y-63100D01*
X65800Y-63100D02*
X65200Y-63100D01*
X65200Y-63100D02*
X65200Y-62700D01*
X65200Y-62300D02*
X65200Y-61900D01*
X65200Y-61900D02*
X65800Y-61900D01*
X65800Y-61900D02*
X65800Y-62300D01*
X90850Y-63150D02*
X90849Y-63159D01*
X90846Y-63169D01*
X90841Y-63177D01*
X90835Y-63185D01*
X90827Y-63191D01*
X90819Y-63196D01*
X90810Y-63198D01*
X90800Y-63199D01*
X90791Y-63199D01*
X90782Y-63196D01*
X90773Y-63191D01*
X90766Y-63185D01*
X90759Y-63178D01*
X90755Y-63169D01*
X90752Y-63160D01*
X90751Y-63150D01*
X90751Y-63141D01*
X90754Y-63132D01*
X90758Y-63123D01*
X90765Y-63116D01*
X90772Y-63109D01*
X90780Y-63105D01*
X90790Y-63102D01*
X90799Y-63101D01*
X90808Y-63101D01*
X90818Y-63104D01*
X90826Y-63108D01*
X90834Y-63114D01*
X90840Y-63122D01*
X90845Y-63130D01*
X90848Y-63139D01*
X90849Y-63149D01*
X90850Y-63150D01*
X90800Y-62700D02*
X90800Y-63100D01*
X90800Y-63100D02*
X90200Y-63100D01*
X90200Y-63100D02*
X90200Y-62700D01*
X90200Y-62300D02*
X90200Y-61900D01*
X90200Y-61900D02*
X90800Y-61900D01*
X90800Y-61900D02*
X90800Y-62300D01*
X115850Y-63150D02*
X115849Y-63159D01*
X115846Y-63169D01*
X115841Y-63177D01*
X115835Y-63185D01*
X115827Y-63191D01*
X115819Y-63196D01*
X115810Y-63198D01*
X115800Y-63199D01*
X115791Y-63199D01*
X115782Y-63196D01*
X115773Y-63191D01*
X115766Y-63185D01*
X115759Y-63178D01*
X115755Y-63169D01*
X115752Y-63160D01*
X115751Y-63150D01*
X115751Y-63141D01*
X115754Y-63132D01*
X115758Y-63123D01*
X115765Y-63116D01*
X115772Y-63109D01*
X115780Y-63105D01*
X115790Y-63102D01*
X115799Y-63101D01*
X115808Y-63101D01*
X115818Y-63104D01*
X115826Y-63108D01*
X115834Y-63114D01*
X115840Y-63122D01*
X115845Y-63130D01*
X115848Y-63139D01*
X115849Y-63149D01*
X115850Y-63150D01*
X115800Y-62700D02*
X115800Y-63100D01*
X115800Y-63100D02*
X115200Y-63100D01*
X115200Y-63100D02*
X115200Y-62700D01*
X115200Y-62300D02*
X115200Y-61900D01*
X115200Y-61900D02*
X115800Y-61900D01*
X115800Y-61900D02*
X115800Y-62300D01*
X140850Y-63150D02*
X140849Y-63159D01*
X140846Y-63169D01*
X140841Y-63177D01*
X140835Y-63185D01*
X140827Y-63191D01*
X140819Y-63196D01*
X140810Y-63198D01*
X140800Y-63199D01*
X140791Y-63199D01*
X140782Y-63196D01*
X140773Y-63191D01*
X140766Y-63185D01*
X140759Y-63178D01*
X140755Y-63169D01*
X140752Y-63160D01*
X140751Y-63150D01*
X140751Y-63141D01*
X140754Y-63132D01*
X140758Y-63123D01*
X140765Y-63116D01*
X140772Y-63109D01*
X140780Y-63105D01*
X140790Y-63102D01*
X140799Y-63101D01*
X140808Y-63101D01*
X140818Y-63104D01*
X140826Y-63108D01*
X140834Y-63114D01*
X140840Y-63122D01*
X140845Y-63130D01*
X140848Y-63139D01*
X140849Y-63149D01*
X140850Y-63150D01*
X140800Y-62700D02*
X140800Y-63100D01*
X140800Y-63100D02*
X140200Y-63100D01*
X140200Y-63100D02*
X140200Y-62700D01*
X140200Y-62300D02*
X140200Y-61900D01*
X140200Y-61900D02*
X140800Y-61900D01*
X140800Y-61900D02*
X140800Y-62300D01*
X159850Y-63150D02*
X159849Y-63159D01*
X159846Y-63169D01*
X159841Y-63177D01*
X159835Y-63185D01*
X159827Y-63191D01*
X159819Y-63196D01*
X159810Y-63198D01*
X159800Y-63199D01*
X159791Y-63199D01*
X159782Y-63196D01*
X159773Y-63191D01*
X159766Y-63185D01*
X159759Y-63178D01*
X159755Y-63169D01*
X159752Y-63160D01*
X159751Y-63150D01*
X159751Y-63141D01*
X159754Y-63132D01*
X159758Y-63123D01*
X159765Y-63116D01*
X159772Y-63109D01*
X159780Y-63105D01*
X159790Y-63102D01*
X159799Y-63101D01*
X159808Y-63101D01*
X159818Y-63104D01*
X159826Y-63108D01*
X159834Y-63114D01*
X159840Y-63122D01*
X159845Y-63130D01*
X159848Y-63139D01*
X159849Y-63149D01*
X159850Y-63150D01*
X159800Y-62700D02*
X159800Y-63100D01*
X159800Y-63100D02*
X159200Y-63100D01*
X159200Y-63100D02*
X159200Y-62700D01*
X159200Y-62300D02*
X159200Y-61900D01*
X159200Y-61900D02*
X159800Y-61900D01*
X159800Y-61900D02*
X159800Y-62300D01*
X15850Y-88150D02*
X15849Y-88159D01*
X15846Y-88169D01*
X15841Y-88177D01*
X15835Y-88185D01*
X15827Y-88191D01*
X15819Y-88196D01*
X15810Y-88198D01*
X15800Y-88199D01*
X15791Y-88199D01*
X15782Y-88196D01*
X15773Y-88191D01*
X15766Y-88185D01*
X15759Y-88178D01*
X15755Y-88169D01*
X15752Y-88160D01*
X15751Y-88150D01*
X15751Y-88141D01*
X15754Y-88132D01*
X15758Y-88123D01*
X15765Y-88116D01*
X15772Y-88109D01*
X15780Y-88105D01*
X15790Y-88102D01*
X15799Y-88101D01*
X15808Y-88101D01*
X15818Y-88104D01*
X15826Y-88108D01*
X15834Y-88114D01*
X15840Y-88122D01*
X15845Y-88130D01*
X15848Y-88139D01*
X15849Y-88149D01*
X15850Y-88150D01*
X15800Y-87700D02*
X15800Y-88100D01*
X15800Y-88100D02*
X15200Y-88100D01*
X15200Y-88100D02*
X15200Y-87700D01*
X15200Y-87300D02*
X15200Y-86900D01*
X15200Y-86900D02*
X15800Y-86900D01*
X15800Y-86900D02*
X15800Y-87300D01*
X40850Y-88150D02*
X40849Y-88159D01*
X40846Y-88169D01*
X40841Y-88177D01*
X40835Y-88185D01*
X40827Y-88191D01*
X40819Y-88196D01*
X40810Y-88198D01*
X40800Y-88199D01*
X40791Y-88199D01*
X40782Y-88196D01*
X40773Y-88191D01*
X40766Y-88185D01*
X40759Y-88178D01*
X40755Y-88169D01*
X40752Y-88160D01*
X40751Y-88150D01*
X40751Y-88141D01*
X40754Y-88132D01*
X40758Y-88123D01*
X40765Y-88116D01*
X40772Y-88109D01*
X40780Y-88105D01*
X40790Y-88102D01*
X40799Y-88101D01*
X40808Y-88101D01*
X40818Y-88104D01*
X40826Y-88108D01*
X40834Y-88114D01*
X40840Y-88122D01*
X40845Y-88130D01*
X40848Y-88139D01*
X40849Y-88149D01*
X40850Y-88150D01*
X40800Y-87700D02*
X40800Y-88100D01*
X40800Y-88100D02*
X40200Y-88100D01*
X40200Y-88100D02*
X40200Y-87700D01*
X40200Y-87300D02*
X40200Y-86900D01*
X40200Y-86900D02*
X40800Y-86900D01*
X40800Y-86900D02*
X40800Y-87300D01*
X65850Y-88150D02*
X65849Y-88159D01*
X65846Y-88169D01*
X65841Y-88177D01*
X65835Y-88185D01*
X65827Y-88191D01*
X65819Y-88196D01*
X65810Y-88198D01*
X65800Y-88199D01*
X65791Y-88199D01*
X65782Y-88196D01*
X65773Y-88191D01*
X65766Y-88185D01*
X65759Y-88178D01*
X65755Y-88169D01*
X65752Y-88160D01*
X65751Y-88150D01*
X65751Y-88141D01*
X65754Y-88132D01*
X65758Y-88123D01*
X65765Y-88116D01*
X65772Y-88109D01*
X65780Y-88105D01*
X65790Y-88102D01*
X65799Y-88101D01*
X65808Y-88101D01*
X65818Y-88104D01*
X65826Y-88108D01*
X65834Y-88114D01*
X65840Y-88122D01*
X65845Y-88130D01*
X65848Y-88139D01*
X65849Y-88149D01*
X65850Y-88150D01*
X65800Y-87700D02*
X65800Y-88100D01*
X65800Y-88100D02*
X65200Y-88100D01*
X65200Y-88100D02*
X65200Y-87700D01*
X65200Y-87300D02*
X65200Y-86900D01*
X65200Y-86900D02*
X65800Y-86900D01*
X65800Y-86900D02*
X65800Y-87300D01*
X90850Y-88150D02*
X90849Y-88159D01*
X90846Y-88169D01*
X90841Y-88177D01*
X90835Y-88185D01*
X90827Y-88191D01*
X90819Y-88196D01*
X90810Y-88198D01*
X90800Y-88199D01*
X90791Y-88199D01*
X90782Y-88196D01*
X90773Y-88191D01*
X90766Y-88185D01*
X90759Y-88178D01*
X90755Y-88169D01*
X90752Y-88160D01*
X90751Y-88150D01*
X90751Y-88141D01*
X90754Y-88132D01*
X90758Y-88123D01*
X90765Y-88116D01*
X90772Y-88109D01*
X90780Y-88105D01*
X90790Y-88102D01*
X90799Y-88101D01*
X90808Y-88101D01*
X90818Y-88104D01*
X90826Y-88108D01*
X90834Y-88114D01*
X90840Y-88122D01*
X90845Y-88130D01*
X90848Y-88139D01*
X90849Y-88149D01*
X90850Y-88150D01*
X90800Y-87700D02*
X90800Y-88100D01*
X90800Y-88100D02*
X90200Y-88100D01*
X90200Y-88100D02*
X90200Y-87700D01*
X90200Y-87300D02*
X90200Y-86900D01*
X90200Y-86900D02*
X90800Y-86900D01*
X90800Y-86900D02*
X90800Y-87300D01*
G54D12*
X27500Y-25000D02*
X27452Y-25485D01*
X27311Y-25952D01*
X27082Y-26383D01*
X26773Y-26761D01*
X26397Y-27072D01*
X25968Y-27304D01*
X25502Y-27448D01*
X25017Y-27499D01*
X24532Y-27455D01*
X24064Y-27317D01*
X23632Y-27091D01*
X23251Y-26786D01*
X22938Y-26412D01*
X22703Y-25984D01*
X22555Y-25519D01*
X22501Y-25034D01*
X22542Y-24549D01*
X22676Y-24080D01*
X22899Y-23646D01*
X23202Y-23264D01*
X23574Y-22948D01*
X24000Y-22710D01*
X24464Y-22559D01*
X24948Y-22501D01*
X25434Y-22538D01*
X25904Y-22670D01*
X26339Y-22890D01*
X26724Y-23190D01*
X27042Y-23559D01*
X27283Y-23984D01*
X27437Y-24447D01*
X27499Y-24931D01*
X27500Y-25000D01*
X152500Y-25000D02*
X152452Y-25485D01*
X152311Y-25952D01*
X152082Y-26383D01*
X151773Y-26761D01*
X151397Y-27072D01*
X150968Y-27304D01*
X150502Y-27448D01*
X150017Y-27499D01*
X149532Y-27455D01*
X149064Y-27317D01*
X148632Y-27091D01*
X148251Y-26786D01*
X147938Y-26412D01*
X147703Y-25984D01*
X147555Y-25519D01*
X147501Y-25034D01*
X147542Y-24549D01*
X147676Y-24080D01*
X147899Y-23646D01*
X148202Y-23264D01*
X148574Y-22948D01*
X149000Y-22710D01*
X149464Y-22559D01*
X149948Y-22501D01*
X150434Y-22538D01*
X150904Y-22670D01*
X151339Y-22890D01*
X151724Y-23190D01*
X152042Y-23559D01*
X152283Y-23984D01*
X152437Y-24447D01*
X152499Y-24931D01*
X152500Y-25000D01*
X27500Y-150000D02*
X27452Y-150485D01*
X27311Y-150952D01*
X27082Y-151383D01*
X26773Y-151761D01*
X26397Y-152072D01*
X25968Y-152304D01*
X25502Y-152448D01*
X25017Y-152499D01*
X24532Y-152455D01*
X24064Y-152317D01*
X23632Y-152091D01*
X23251Y-151786D01*
X22938Y-151412D01*
X22703Y-150984D01*
X22555Y-150519D01*
X22501Y-150034D01*
X22542Y-149549D01*
X22676Y-149080D01*
X22899Y-148646D01*
X23202Y-148264D01*
X23574Y-147948D01*
X24000Y-147710D01*
X24464Y-147559D01*
X24948Y-147501D01*
X25434Y-147538D01*
X25904Y-147670D01*
X26339Y-147890D01*
X26724Y-148190D01*
X27042Y-148559D01*
X27283Y-148984D01*
X27437Y-149447D01*
X27499Y-149931D01*
X27500Y-150000D01*
X152500Y-150000D02*
X152452Y-150485D01*
X152311Y-150952D01*
X152082Y-151383D01*
X151773Y-151761D01*
X151397Y-152072D01*
X150968Y-152304D01*
X150502Y-152448D01*
X150017Y-152499D01*
X149532Y-152455D01*
X149064Y-152317D01*
X148632Y-152091D01*
X148251Y-151786D01*
X147938Y-151412D01*
X147703Y-150984D01*
X147555Y-150519D01*
X147501Y-150034D01*
X147542Y-149549D01*
X147676Y-149080D01*
X147899Y-148646D01*
X148202Y-148264D01*
X148574Y-147948D01*
X149000Y-147710D01*
X149464Y-147559D01*
X149948Y-147501D01*
X150434Y-147538D01*
X150904Y-147670D01*
X151339Y-147890D01*
X151724Y-148190D01*
X152042Y-148559D01*
X152283Y-148984D01*
X152437Y-149447D01*
X152499Y-149931D01*
X152500Y-150000D01*
G54D11*
X111772Y-85743D02*
X111772Y-85143D01*
X111915Y-85143D01*
X112000Y-85171D01*
X112058Y-85229D01*
X112086Y-85286D01*
X112115Y-85400D01*
X112115Y-85486D01*
X112086Y-85600D01*
X112058Y-85657D01*
X112000Y-85714D01*
X111915Y-85743D01*
X111772Y-85743D01*
X112343Y-85200D02*
X112372Y-85171D01*
X112429Y-85143D01*
X112572Y-85143D01*
X112629Y-85171D01*
X112658Y-85200D01*
X112686Y-85257D01*
X112686Y-85314D01*
X112658Y-85400D01*
X112315Y-85743D01*
X112686Y-85743D01*
X113200Y-85143D02*
X113086Y-85143D01*
X113029Y-85171D01*
X113000Y-85200D01*
X112943Y-85286D01*
X112914Y-85400D01*
X112914Y-85629D01*
X112943Y-85686D01*
X112971Y-85714D01*
X113029Y-85743D01*
X113143Y-85743D01*
X113200Y-85714D01*
X113229Y-85686D01*
X113257Y-85629D01*
X113257Y-85486D01*
X113229Y-85429D01*
X113200Y-85400D01*
X113143Y-85371D01*
X113029Y-85371D01*
X112971Y-85400D01*
X112943Y-85429D01*
X112914Y-85486D01*
X136772Y-85743D02*
X136772Y-85143D01*
X136915Y-85143D01*
X137000Y-85171D01*
X137058Y-85229D01*
X137086Y-85286D01*
X137115Y-85400D01*
X137115Y-85486D01*
X137086Y-85600D01*
X137058Y-85657D01*
X137000Y-85714D01*
X136915Y-85743D01*
X136772Y-85743D01*
X137343Y-85200D02*
X137372Y-85171D01*
X137429Y-85143D01*
X137572Y-85143D01*
X137629Y-85171D01*
X137658Y-85200D01*
X137686Y-85257D01*
X137686Y-85314D01*
X137658Y-85400D01*
X137315Y-85743D01*
X137686Y-85743D01*
X137886Y-85143D02*
X138286Y-85143D01*
X138029Y-85743D01*
X161772Y-85743D02*
X161772Y-85143D01*
X161915Y-85143D01*
X162000Y-85171D01*
X162058Y-85229D01*
X162086Y-85286D01*
X162115Y-85400D01*
X162115Y-85486D01*
X162086Y-85600D01*
X162058Y-85657D01*
X162000Y-85714D01*
X161915Y-85743D01*
X161772Y-85743D01*
X162343Y-85200D02*
X162372Y-85171D01*
X162429Y-85143D01*
X162572Y-85143D01*
X162629Y-85171D01*
X162658Y-85200D01*
X162686Y-85257D01*
X162686Y-85314D01*
X162658Y-85400D01*
X162315Y-85743D01*
X162686Y-85743D01*
X163029Y-85400D02*
X162971Y-85371D01*
X162943Y-85343D01*
X162914Y-85286D01*
X162914Y-85257D01*
X162943Y-85200D01*
X162971Y-85171D01*
X163029Y-85143D01*
X163143Y-85143D01*
X163200Y-85171D01*
X163229Y-85200D01*
X163257Y-85257D01*
X163257Y-85286D01*
X163229Y-85343D01*
X163200Y-85371D01*
X163143Y-85400D01*
X163029Y-85400D01*
X162971Y-85429D01*
X162943Y-85457D01*
X162914Y-85514D01*
X162914Y-85629D01*
X162943Y-85686D01*
X162971Y-85714D01*
X163029Y-85743D01*
X163143Y-85743D01*
X163200Y-85714D01*
X163229Y-85686D01*
X163257Y-85629D01*
X163257Y-85514D01*
X163229Y-85457D01*
X163200Y-85429D01*
X163143Y-85400D01*
X11772Y-110743D02*
X11772Y-110143D01*
X11915Y-110143D01*
X12000Y-110171D01*
X12058Y-110229D01*
X12086Y-110286D01*
X12115Y-110400D01*
X12115Y-110486D01*
X12086Y-110600D01*
X12058Y-110657D01*
X12000Y-110714D01*
X11915Y-110743D01*
X11772Y-110743D01*
X12343Y-110200D02*
X12372Y-110171D01*
X12429Y-110143D01*
X12572Y-110143D01*
X12629Y-110171D01*
X12658Y-110200D01*
X12686Y-110257D01*
X12686Y-110314D01*
X12658Y-110400D01*
X12315Y-110743D01*
X12686Y-110743D01*
X12971Y-110743D02*
X13086Y-110743D01*
X13143Y-110714D01*
X13171Y-110686D01*
X13229Y-110600D01*
X13257Y-110486D01*
X13257Y-110257D01*
X13229Y-110200D01*
X13200Y-110171D01*
X13143Y-110143D01*
X13029Y-110143D01*
X12971Y-110171D01*
X12943Y-110200D01*
X12914Y-110257D01*
X12914Y-110400D01*
X12943Y-110457D01*
X12971Y-110486D01*
X13029Y-110514D01*
X13143Y-110514D01*
X13200Y-110486D01*
X13229Y-110457D01*
X13257Y-110400D01*
X36772Y-110743D02*
X36772Y-110143D01*
X36915Y-110143D01*
X37000Y-110171D01*
X37058Y-110229D01*
X37086Y-110286D01*
X37115Y-110400D01*
X37115Y-110486D01*
X37086Y-110600D01*
X37058Y-110657D01*
X37000Y-110714D01*
X36915Y-110743D01*
X36772Y-110743D01*
X37315Y-110143D02*
X37686Y-110143D01*
X37486Y-110371D01*
X37572Y-110371D01*
X37629Y-110400D01*
X37658Y-110429D01*
X37686Y-110486D01*
X37686Y-110629D01*
X37658Y-110686D01*
X37629Y-110714D01*
X37572Y-110743D01*
X37400Y-110743D01*
X37343Y-110714D01*
X37315Y-110686D01*
X38057Y-110143D02*
X38114Y-110143D01*
X38171Y-110171D01*
X38200Y-110200D01*
X38229Y-110257D01*
X38257Y-110371D01*
X38257Y-110514D01*
X38229Y-110629D01*
X38200Y-110686D01*
X38171Y-110714D01*
X38114Y-110743D01*
X38057Y-110743D01*
X38000Y-110714D01*
X37971Y-110686D01*
X37943Y-110629D01*
X37914Y-110514D01*
X37914Y-110371D01*
X37943Y-110257D01*
X37971Y-110200D01*
X38000Y-110171D01*
X38057Y-110143D01*
X61772Y-110743D02*
X61772Y-110143D01*
X61915Y-110143D01*
X62000Y-110171D01*
X62058Y-110229D01*
X62086Y-110286D01*
X62115Y-110400D01*
X62115Y-110486D01*
X62086Y-110600D01*
X62058Y-110657D01*
X62000Y-110714D01*
X61915Y-110743D01*
X61772Y-110743D01*
X62315Y-110143D02*
X62686Y-110143D01*
X62486Y-110371D01*
X62572Y-110371D01*
X62629Y-110400D01*
X62658Y-110429D01*
X62686Y-110486D01*
X62686Y-110629D01*
X62658Y-110686D01*
X62629Y-110714D01*
X62572Y-110743D01*
X62400Y-110743D01*
X62343Y-110714D01*
X62315Y-110686D01*
X63257Y-110743D02*
X62914Y-110743D01*
X63086Y-110743D02*
X63086Y-110143D01*
X63029Y-110229D01*
X62971Y-110286D01*
X62914Y-110314D01*
X86772Y-110743D02*
X86772Y-110143D01*
X86915Y-110143D01*
X87000Y-110171D01*
X87058Y-110229D01*
X87086Y-110286D01*
X87115Y-110400D01*
X87115Y-110486D01*
X87086Y-110600D01*
X87058Y-110657D01*
X87000Y-110714D01*
X86915Y-110743D01*
X86772Y-110743D01*
X87315Y-110143D02*
X87686Y-110143D01*
X87486Y-110371D01*
X87572Y-110371D01*
X87629Y-110400D01*
X87658Y-110429D01*
X87686Y-110486D01*
X87686Y-110629D01*
X87658Y-110686D01*
X87629Y-110714D01*
X87572Y-110743D01*
X87400Y-110743D01*
X87343Y-110714D01*
X87315Y-110686D01*
X87914Y-110200D02*
X87943Y-110171D01*
X88000Y-110143D01*
X88143Y-110143D01*
X88200Y-110171D01*
X88229Y-110200D01*
X88257Y-110257D01*
X88257Y-110314D01*
X88229Y-110400D01*
X87886Y-110743D01*
X88257Y-110743D01*
X111772Y-110743D02*
X111772Y-110143D01*
X111915Y-110143D01*
X112000Y-110171D01*
X112058Y-110229D01*
X112086Y-110286D01*
X112115Y-110400D01*
X112115Y-110486D01*
X112086Y-110600D01*
X112058Y-110657D01*
X112000Y-110714D01*
X111915Y-110743D01*
X111772Y-110743D01*
X112315Y-110143D02*
X112686Y-110143D01*
X112486Y-110371D01*
X112572Y-110371D01*
X112629Y-110400D01*
X112658Y-110429D01*
X112686Y-110486D01*
X112686Y-110629D01*
X112658Y-110686D01*
X112629Y-110714D01*
X112572Y-110743D01*
X112400Y-110743D01*
X112343Y-110714D01*
X112315Y-110686D01*
X112886Y-110143D02*
X113257Y-110143D01*
X113057Y-110371D01*
X113143Y-110371D01*
X113200Y-110400D01*
X113229Y-110429D01*
X113257Y-110486D01*
X113257Y-110629D01*
X113229Y-110686D01*
X113200Y-110714D01*
X113143Y-110743D01*
X112971Y-110743D01*
X112914Y-110714D01*
X112886Y-110686D01*
X136772Y-110743D02*
X136772Y-110143D01*
X136915Y-110143D01*
X137000Y-110171D01*
X137058Y-110229D01*
X137086Y-110286D01*
X137115Y-110400D01*
X137115Y-110486D01*
X137086Y-110600D01*
X137058Y-110657D01*
X137000Y-110714D01*
X136915Y-110743D01*
X136772Y-110743D01*
X137315Y-110143D02*
X137686Y-110143D01*
X137486Y-110371D01*
X137572Y-110371D01*
X137629Y-110400D01*
X137658Y-110429D01*
X137686Y-110486D01*
X137686Y-110629D01*
X137658Y-110686D01*
X137629Y-110714D01*
X137572Y-110743D01*
X137400Y-110743D01*
X137343Y-110714D01*
X137315Y-110686D01*
X138200Y-110343D02*
X138200Y-110743D01*
X138057Y-110114D02*
X137914Y-110543D01*
X138286Y-110543D01*
X161772Y-111043D02*
X161772Y-110443D01*
X161915Y-110443D01*
X162000Y-110471D01*
X162058Y-110529D01*
X162086Y-110586D01*
X162115Y-110700D01*
X162115Y-110786D01*
X162086Y-110900D01*
X162058Y-110957D01*
X162000Y-111014D01*
X161915Y-111043D01*
X161772Y-111043D01*
X162315Y-110443D02*
X162686Y-110443D01*
X162486Y-110671D01*
X162572Y-110671D01*
X162629Y-110700D01*
X162658Y-110729D01*
X162686Y-110786D01*
X162686Y-110929D01*
X162658Y-110986D01*
X162629Y-111014D01*
X162572Y-111043D01*
X162400Y-111043D01*
X162343Y-111014D01*
X162315Y-110986D01*
X163229Y-110443D02*
X162943Y-110443D01*
X162914Y-110729D01*
X162943Y-110700D01*
X163000Y-110671D01*
X163143Y-110671D01*
X163200Y-110700D01*
X163229Y-110729D01*
X163257Y-110786D01*
X163257Y-110929D01*
X163229Y-110986D01*
X163200Y-111014D01*
X163143Y-111043D01*
X163000Y-111043D01*
X162943Y-111014D01*
X162914Y-110986D01*
X11772Y-135743D02*
X11772Y-135143D01*
X11915Y-135143D01*
X12000Y-135171D01*
X12058Y-135229D01*
X12086Y-135286D01*
X12115Y-135400D01*
X12115Y-135486D01*
X12086Y-135600D01*
X12058Y-135657D01*
X12000Y-135714D01*
X11915Y-135743D01*
X11772Y-135743D01*
X12315Y-135143D02*
X12686Y-135143D01*
X12486Y-135371D01*
X12572Y-135371D01*
X12629Y-135400D01*
X12658Y-135429D01*
X12686Y-135486D01*
X12686Y-135629D01*
X12658Y-135686D01*
X12629Y-135714D01*
X12572Y-135743D01*
X12400Y-135743D01*
X12343Y-135714D01*
X12315Y-135686D01*
X13200Y-135143D02*
X13086Y-135143D01*
X13029Y-135171D01*
X13000Y-135200D01*
X12943Y-135286D01*
X12914Y-135400D01*
X12914Y-135629D01*
X12943Y-135686D01*
X12971Y-135714D01*
X13029Y-135743D01*
X13143Y-135743D01*
X13200Y-135714D01*
X13229Y-135686D01*
X13257Y-135629D01*
X13257Y-135486D01*
X13229Y-135429D01*
X13200Y-135400D01*
X13143Y-135371D01*
X13029Y-135371D01*
X12971Y-135400D01*
X12943Y-135429D01*
X12914Y-135486D01*
X36772Y-135743D02*
X36772Y-135143D01*
X36915Y-135143D01*
X37000Y-135171D01*
X37058Y-135229D01*
X37086Y-135286D01*
X37115Y-135400D01*
X37115Y-135486D01*
X37086Y-135600D01*
X37058Y-135657D01*
X37000Y-135714D01*
X36915Y-135743D01*
X36772Y-135743D01*
X37315Y-135143D02*
X37686Y-135143D01*
X37486Y-135371D01*
X37572Y-135371D01*
X37629Y-135400D01*
X37658Y-135429D01*
X37686Y-135486D01*
X37686Y-135629D01*
X37658Y-135686D01*
X37629Y-135714D01*
X37572Y-135743D01*
X37400Y-135743D01*
X37343Y-135714D01*
X37315Y-135686D01*
X37886Y-135143D02*
X38286Y-135143D01*
X38029Y-135743D01*
X61772Y-135743D02*
X61772Y-135143D01*
X61915Y-135143D01*
X62000Y-135171D01*
X62058Y-135229D01*
X62086Y-135286D01*
X62115Y-135400D01*
X62115Y-135486D01*
X62086Y-135600D01*
X62058Y-135657D01*
X62000Y-135714D01*
X61915Y-135743D01*
X61772Y-135743D01*
X62315Y-135143D02*
X62686Y-135143D01*
X62486Y-135371D01*
X62572Y-135371D01*
X62629Y-135400D01*
X62658Y-135429D01*
X62686Y-135486D01*
X62686Y-135629D01*
X62658Y-135686D01*
X62629Y-135714D01*
X62572Y-135743D01*
X62400Y-135743D01*
X62343Y-135714D01*
X62315Y-135686D01*
X63029Y-135400D02*
X62971Y-135371D01*
X62943Y-135343D01*
X62914Y-135286D01*
X62914Y-135257D01*
X62943Y-135200D01*
X62971Y-135171D01*
X63029Y-135143D01*
X63143Y-135143D01*
X63200Y-135171D01*
X63229Y-135200D01*
X63257Y-135257D01*
X63257Y-135286D01*
X63229Y-135343D01*
X63200Y-135371D01*
X63143Y-135400D01*
X63029Y-135400D01*
X62971Y-135429D01*
X62943Y-135457D01*
X62914Y-135514D01*
X62914Y-135629D01*
X62943Y-135686D01*
X62971Y-135714D01*
X63029Y-135743D01*
X63143Y-135743D01*
X63200Y-135714D01*
X63229Y-135686D01*
X63257Y-135629D01*
X63257Y-135514D01*
X63229Y-135457D01*
X63200Y-135429D01*
X63143Y-135400D01*
X86772Y-135743D02*
X86772Y-135143D01*
X86915Y-135143D01*
X87000Y-135171D01*
X87058Y-135229D01*
X87086Y-135286D01*
X87115Y-135400D01*
X87115Y-135486D01*
X87086Y-135600D01*
X87058Y-135657D01*
X87000Y-135714D01*
X86915Y-135743D01*
X86772Y-135743D01*
X87315Y-135143D02*
X87686Y-135143D01*
X87486Y-135371D01*
X87572Y-135371D01*
X87629Y-135400D01*
X87658Y-135429D01*
X87686Y-135486D01*
X87686Y-135629D01*
X87658Y-135686D01*
X87629Y-135714D01*
X87572Y-135743D01*
X87400Y-135743D01*
X87343Y-135714D01*
X87315Y-135686D01*
X87971Y-135743D02*
X88086Y-135743D01*
X88143Y-135714D01*
X88171Y-135686D01*
X88229Y-135600D01*
X88257Y-135486D01*
X88257Y-135257D01*
X88229Y-135200D01*
X88200Y-135171D01*
X88143Y-135143D01*
X88029Y-135143D01*
X87971Y-135171D01*
X87943Y-135200D01*
X87914Y-135257D01*
X87914Y-135400D01*
X87943Y-135457D01*
X87971Y-135486D01*
X88029Y-135514D01*
X88143Y-135514D01*
X88200Y-135486D01*
X88229Y-135457D01*
X88257Y-135400D01*
X111772Y-135743D02*
X111772Y-135143D01*
X111915Y-135143D01*
X112000Y-135171D01*
X112058Y-135229D01*
X112086Y-135286D01*
X112115Y-135400D01*
X112115Y-135486D01*
X112086Y-135600D01*
X112058Y-135657D01*
X112000Y-135714D01*
X111915Y-135743D01*
X111772Y-135743D01*
X112629Y-135343D02*
X112629Y-135743D01*
X112486Y-135114D02*
X112343Y-135543D01*
X112715Y-135543D01*
X113057Y-135143D02*
X113114Y-135143D01*
X113171Y-135171D01*
X113200Y-135200D01*
X113229Y-135257D01*
X113257Y-135371D01*
X113257Y-135514D01*
X113229Y-135629D01*
X113200Y-135686D01*
X113171Y-135714D01*
X113114Y-135743D01*
X113057Y-135743D01*
X113000Y-135714D01*
X112971Y-135686D01*
X112943Y-135629D01*
X112914Y-135514D01*
X112914Y-135371D01*
X112943Y-135257D01*
X112971Y-135200D01*
X113000Y-135171D01*
X113057Y-135143D01*
X136772Y-135743D02*
X136772Y-135143D01*
X136915Y-135143D01*
X137000Y-135171D01*
X137058Y-135229D01*
X137086Y-135286D01*
X137115Y-135400D01*
X137115Y-135486D01*
X137086Y-135600D01*
X137058Y-135657D01*
X137000Y-135714D01*
X136915Y-135743D01*
X136772Y-135743D01*
X137629Y-135343D02*
X137629Y-135743D01*
X137486Y-135114D02*
X137343Y-135543D01*
X137715Y-135543D01*
X138257Y-135743D02*
X137914Y-135743D01*
X138086Y-135743D02*
X138086Y-135143D01*
X138029Y-135229D01*
X137971Y-135286D01*
X137914Y-135314D01*
X161772Y-135743D02*
X161772Y-135143D01*
X161915Y-135143D01*
X162000Y-135171D01*
X162058Y-135229D01*
X162086Y-135286D01*
X162115Y-135400D01*
X162115Y-135486D01*
X162086Y-135600D01*
X162058Y-135657D01*
X162000Y-135714D01*
X161915Y-135743D01*
X161772Y-135743D01*
X162629Y-135343D02*
X162629Y-135743D01*
X162486Y-135114D02*
X162343Y-135543D01*
X162715Y-135543D01*
X162914Y-135200D02*
X162943Y-135171D01*
X163000Y-135143D01*
X163143Y-135143D01*
X163200Y-135171D01*
X163229Y-135200D01*
X163257Y-135257D01*
X163257Y-135314D01*
X163229Y-135400D01*
X162886Y-135743D01*
X163257Y-135743D01*
X11772Y-160743D02*
X11772Y-160143D01*
X11915Y-160143D01*
X12000Y-160171D01*
X12058Y-160229D01*
X12086Y-160286D01*
X12115Y-160400D01*
X12115Y-160486D01*
X12086Y-160600D01*
X12058Y-160657D01*
X12000Y-160714D01*
X11915Y-160743D01*
X11772Y-160743D01*
X12629Y-160343D02*
X12629Y-160743D01*
X12486Y-160114D02*
X12343Y-160543D01*
X12715Y-160543D01*
X12886Y-160143D02*
X13257Y-160143D01*
X13057Y-160371D01*
X13143Y-160371D01*
X13200Y-160400D01*
X13229Y-160429D01*
X13257Y-160486D01*
X13257Y-160629D01*
X13229Y-160686D01*
X13200Y-160714D01*
X13143Y-160743D01*
X12971Y-160743D01*
X12914Y-160714D01*
X12886Y-160686D01*
X36772Y-160743D02*
X36772Y-160143D01*
X36915Y-160143D01*
X37000Y-160171D01*
X37058Y-160229D01*
X37086Y-160286D01*
X37115Y-160400D01*
X37115Y-160486D01*
X37086Y-160600D01*
X37058Y-160657D01*
X37000Y-160714D01*
X36915Y-160743D01*
X36772Y-160743D01*
X37629Y-160343D02*
X37629Y-160743D01*
X37486Y-160114D02*
X37343Y-160543D01*
X37715Y-160543D01*
X38200Y-160343D02*
X38200Y-160743D01*
X38057Y-160114D02*
X37914Y-160543D01*
X38286Y-160543D01*
X61772Y-160743D02*
X61772Y-160143D01*
X61915Y-160143D01*
X62000Y-160171D01*
X62058Y-160229D01*
X62086Y-160286D01*
X62115Y-160400D01*
X62115Y-160486D01*
X62086Y-160600D01*
X62058Y-160657D01*
X62000Y-160714D01*
X61915Y-160743D01*
X61772Y-160743D01*
X62629Y-160343D02*
X62629Y-160743D01*
X62486Y-160114D02*
X62343Y-160543D01*
X62715Y-160543D01*
X63229Y-160143D02*
X62943Y-160143D01*
X62914Y-160429D01*
X62943Y-160400D01*
X63000Y-160371D01*
X63143Y-160371D01*
X63200Y-160400D01*
X63229Y-160429D01*
X63257Y-160486D01*
X63257Y-160629D01*
X63229Y-160686D01*
X63200Y-160714D01*
X63143Y-160743D01*
X63000Y-160743D01*
X62943Y-160714D01*
X62914Y-160686D01*
X86772Y-160743D02*
X86772Y-160143D01*
X86915Y-160143D01*
X87000Y-160171D01*
X87058Y-160229D01*
X87086Y-160286D01*
X87115Y-160400D01*
X87115Y-160486D01*
X87086Y-160600D01*
X87058Y-160657D01*
X87000Y-160714D01*
X86915Y-160743D01*
X86772Y-160743D01*
X87629Y-160343D02*
X87629Y-160743D01*
X87486Y-160114D02*
X87343Y-160543D01*
X87715Y-160543D01*
X88200Y-160143D02*
X88086Y-160143D01*
X88029Y-160171D01*
X88000Y-160200D01*
X87943Y-160286D01*
X87914Y-160400D01*
X87914Y-160629D01*
X87943Y-160686D01*
X87971Y-160714D01*
X88029Y-160743D01*
X88143Y-160743D01*
X88200Y-160714D01*
X88229Y-160686D01*
X88257Y-160629D01*
X88257Y-160486D01*
X88229Y-160429D01*
X88200Y-160400D01*
X88143Y-160371D01*
X88029Y-160371D01*
X87971Y-160400D01*
X87943Y-160429D01*
X87914Y-160486D01*
X111772Y-160743D02*
X111772Y-160143D01*
X111915Y-160143D01*
X112000Y-160171D01*
X112058Y-160229D01*
X112086Y-160286D01*
X112115Y-160400D01*
X112115Y-160486D01*
X112086Y-160600D01*
X112058Y-160657D01*
X112000Y-160714D01*
X111915Y-160743D01*
X111772Y-160743D01*
X112629Y-160343D02*
X112629Y-160743D01*
X112486Y-160114D02*
X112343Y-160543D01*
X112715Y-160543D01*
X112886Y-160143D02*
X113286Y-160143D01*
X113029Y-160743D01*
X136772Y-160743D02*
X136772Y-160143D01*
X136915Y-160143D01*
X137000Y-160171D01*
X137058Y-160229D01*
X137086Y-160286D01*
X137115Y-160400D01*
X137115Y-160486D01*
X137086Y-160600D01*
X137058Y-160657D01*
X137000Y-160714D01*
X136915Y-160743D01*
X136772Y-160743D01*
X137629Y-160343D02*
X137629Y-160743D01*
X137486Y-160114D02*
X137343Y-160543D01*
X137715Y-160543D01*
X138029Y-160400D02*
X137971Y-160371D01*
X137943Y-160343D01*
X137914Y-160286D01*
X137914Y-160257D01*
X137943Y-160200D01*
X137971Y-160171D01*
X138029Y-160143D01*
X138143Y-160143D01*
X138200Y-160171D01*
X138229Y-160200D01*
X138257Y-160257D01*
X138257Y-160286D01*
X138229Y-160343D01*
X138200Y-160371D01*
X138143Y-160400D01*
X138029Y-160400D01*
X137971Y-160429D01*
X137943Y-160457D01*
X137914Y-160514D01*
X137914Y-160629D01*
X137943Y-160686D01*
X137971Y-160714D01*
X138029Y-160743D01*
X138143Y-160743D01*
X138200Y-160714D01*
X138229Y-160686D01*
X138257Y-160629D01*
X138257Y-160514D01*
X138229Y-160457D01*
X138200Y-160429D01*
X138143Y-160400D01*
X161772Y-160743D02*
X161772Y-160143D01*
X161915Y-160143D01*
X162000Y-160171D01*
X162058Y-160229D01*
X162086Y-160286D01*
X162115Y-160400D01*
X162115Y-160486D01*
X162086Y-160600D01*
X162058Y-160657D01*
X162000Y-160714D01*
X161915Y-160743D01*
X161772Y-160743D01*
X162629Y-160343D02*
X162629Y-160743D01*
X162486Y-160114D02*
X162343Y-160543D01*
X162715Y-160543D01*
X162971Y-160743D02*
X163086Y-160743D01*
X163143Y-160714D01*
X163171Y-160686D01*
X163229Y-160600D01*
X163257Y-160486D01*
X163257Y-160257D01*
X163229Y-160200D01*
X163200Y-160171D01*
X163143Y-160143D01*
X163029Y-160143D01*
X162971Y-160171D01*
X162943Y-160200D01*
X162914Y-160257D01*
X162914Y-160400D01*
X162943Y-160457D01*
X162971Y-160486D01*
X163029Y-160514D01*
X163143Y-160514D01*
X163200Y-160486D01*
X163229Y-160457D01*
X163257Y-160400D01*
X12058Y-10993D02*
X12058Y-10393D01*
X12201Y-10393D01*
X12286Y-10421D01*
X12344Y-10479D01*
X12372Y-10536D01*
X12401Y-10650D01*
X12401Y-10736D01*
X12372Y-10850D01*
X12344Y-10907D01*
X12286Y-10964D01*
X12201Y-10993D01*
X12058Y-10993D01*
X12972Y-10993D02*
X12629Y-10993D01*
X12801Y-10993D02*
X12801Y-10393D01*
X12744Y-10479D01*
X12686Y-10536D01*
X12629Y-10564D01*
X37058Y-10993D02*
X37058Y-10393D01*
X37201Y-10393D01*
X37286Y-10421D01*
X37344Y-10479D01*
X37372Y-10536D01*
X37401Y-10650D01*
X37401Y-10736D01*
X37372Y-10850D01*
X37344Y-10907D01*
X37286Y-10964D01*
X37201Y-10993D01*
X37058Y-10993D01*
X37629Y-10450D02*
X37658Y-10421D01*
X37715Y-10393D01*
X37858Y-10393D01*
X37915Y-10421D01*
X37944Y-10450D01*
X37972Y-10507D01*
X37972Y-10564D01*
X37944Y-10650D01*
X37601Y-10993D01*
X37972Y-10993D01*
X62058Y-10993D02*
X62058Y-10393D01*
X62201Y-10393D01*
X62286Y-10421D01*
X62344Y-10479D01*
X62372Y-10536D01*
X62401Y-10650D01*
X62401Y-10736D01*
X62372Y-10850D01*
X62344Y-10907D01*
X62286Y-10964D01*
X62201Y-10993D01*
X62058Y-10993D01*
X62601Y-10393D02*
X62972Y-10393D01*
X62772Y-10621D01*
X62858Y-10621D01*
X62915Y-10650D01*
X62944Y-10679D01*
X62972Y-10736D01*
X62972Y-10879D01*
X62944Y-10936D01*
X62915Y-10964D01*
X62858Y-10993D01*
X62686Y-10993D01*
X62629Y-10964D01*
X62601Y-10936D01*
X87058Y-10993D02*
X87058Y-10393D01*
X87201Y-10393D01*
X87286Y-10421D01*
X87344Y-10479D01*
X87372Y-10536D01*
X87401Y-10650D01*
X87401Y-10736D01*
X87372Y-10850D01*
X87344Y-10907D01*
X87286Y-10964D01*
X87201Y-10993D01*
X87058Y-10993D01*
X87915Y-10593D02*
X87915Y-10993D01*
X87772Y-10364D02*
X87629Y-10793D01*
X88001Y-10793D01*
X112058Y-10993D02*
X112058Y-10393D01*
X112201Y-10393D01*
X112286Y-10421D01*
X112344Y-10479D01*
X112372Y-10536D01*
X112401Y-10650D01*
X112401Y-10736D01*
X112372Y-10850D01*
X112344Y-10907D01*
X112286Y-10964D01*
X112201Y-10993D01*
X112058Y-10993D01*
X112944Y-10393D02*
X112658Y-10393D01*
X112629Y-10679D01*
X112658Y-10650D01*
X112715Y-10621D01*
X112858Y-10621D01*
X112915Y-10650D01*
X112944Y-10679D01*
X112972Y-10736D01*
X112972Y-10879D01*
X112944Y-10936D01*
X112915Y-10964D01*
X112858Y-10993D01*
X112715Y-10993D01*
X112658Y-10964D01*
X112629Y-10936D01*
X137058Y-10993D02*
X137058Y-10393D01*
X137201Y-10393D01*
X137286Y-10421D01*
X137344Y-10479D01*
X137372Y-10536D01*
X137401Y-10650D01*
X137401Y-10736D01*
X137372Y-10850D01*
X137344Y-10907D01*
X137286Y-10964D01*
X137201Y-10993D01*
X137058Y-10993D01*
X137915Y-10393D02*
X137801Y-10393D01*
X137744Y-10421D01*
X137715Y-10450D01*
X137658Y-10536D01*
X137629Y-10650D01*
X137629Y-10879D01*
X137658Y-10936D01*
X137686Y-10964D01*
X137744Y-10993D01*
X137858Y-10993D01*
X137915Y-10964D01*
X137944Y-10936D01*
X137972Y-10879D01*
X137972Y-10736D01*
X137944Y-10679D01*
X137915Y-10650D01*
X137858Y-10621D01*
X137744Y-10621D01*
X137686Y-10650D01*
X137658Y-10679D01*
X137629Y-10736D01*
X162058Y-10993D02*
X162058Y-10393D01*
X162201Y-10393D01*
X162286Y-10421D01*
X162344Y-10479D01*
X162372Y-10536D01*
X162401Y-10650D01*
X162401Y-10736D01*
X162372Y-10850D01*
X162344Y-10907D01*
X162286Y-10964D01*
X162201Y-10993D01*
X162058Y-10993D01*
X162601Y-10393D02*
X163001Y-10393D01*
X162744Y-10993D01*
X12058Y-35743D02*
X12058Y-35143D01*
X12201Y-35143D01*
X12286Y-35171D01*
X12344Y-35229D01*
X12372Y-35286D01*
X12401Y-35400D01*
X12401Y-35486D01*
X12372Y-35600D01*
X12344Y-35657D01*
X12286Y-35714D01*
X12201Y-35743D01*
X12058Y-35743D01*
X12744Y-35400D02*
X12686Y-35371D01*
X12658Y-35343D01*
X12629Y-35286D01*
X12629Y-35257D01*
X12658Y-35200D01*
X12686Y-35171D01*
X12744Y-35143D01*
X12858Y-35143D01*
X12915Y-35171D01*
X12944Y-35200D01*
X12972Y-35257D01*
X12972Y-35286D01*
X12944Y-35343D01*
X12915Y-35371D01*
X12858Y-35400D01*
X12744Y-35400D01*
X12686Y-35429D01*
X12658Y-35457D01*
X12629Y-35514D01*
X12629Y-35629D01*
X12658Y-35686D01*
X12686Y-35714D01*
X12744Y-35743D01*
X12858Y-35743D01*
X12915Y-35714D01*
X12944Y-35686D01*
X12972Y-35629D01*
X12972Y-35514D01*
X12944Y-35457D01*
X12915Y-35429D01*
X12858Y-35400D01*
X37058Y-35743D02*
X37058Y-35143D01*
X37201Y-35143D01*
X37286Y-35171D01*
X37344Y-35229D01*
X37372Y-35286D01*
X37401Y-35400D01*
X37401Y-35486D01*
X37372Y-35600D01*
X37344Y-35657D01*
X37286Y-35714D01*
X37201Y-35743D01*
X37058Y-35743D01*
X37686Y-35743D02*
X37801Y-35743D01*
X37858Y-35714D01*
X37886Y-35686D01*
X37944Y-35600D01*
X37972Y-35486D01*
X37972Y-35257D01*
X37944Y-35200D01*
X37915Y-35171D01*
X37858Y-35143D01*
X37744Y-35143D01*
X37686Y-35171D01*
X37658Y-35200D01*
X37629Y-35257D01*
X37629Y-35400D01*
X37658Y-35457D01*
X37686Y-35486D01*
X37744Y-35514D01*
X37858Y-35514D01*
X37915Y-35486D01*
X37944Y-35457D01*
X37972Y-35400D01*
X61772Y-35743D02*
X61772Y-35143D01*
X61915Y-35143D01*
X62000Y-35171D01*
X62058Y-35229D01*
X62086Y-35286D01*
X62115Y-35400D01*
X62115Y-35486D01*
X62086Y-35600D01*
X62058Y-35657D01*
X62000Y-35714D01*
X61915Y-35743D01*
X61772Y-35743D01*
X62686Y-35743D02*
X62343Y-35743D01*
X62515Y-35743D02*
X62515Y-35143D01*
X62458Y-35229D01*
X62400Y-35286D01*
X62343Y-35314D01*
X63057Y-35143D02*
X63114Y-35143D01*
X63171Y-35171D01*
X63200Y-35200D01*
X63229Y-35257D01*
X63257Y-35371D01*
X63257Y-35514D01*
X63229Y-35629D01*
X63200Y-35686D01*
X63171Y-35714D01*
X63114Y-35743D01*
X63057Y-35743D01*
X63000Y-35714D01*
X62971Y-35686D01*
X62943Y-35629D01*
X62914Y-35514D01*
X62914Y-35371D01*
X62943Y-35257D01*
X62971Y-35200D01*
X63000Y-35171D01*
X63057Y-35143D01*
X86772Y-35743D02*
X86772Y-35143D01*
X86915Y-35143D01*
X87000Y-35171D01*
X87058Y-35229D01*
X87086Y-35286D01*
X87115Y-35400D01*
X87115Y-35486D01*
X87086Y-35600D01*
X87058Y-35657D01*
X87000Y-35714D01*
X86915Y-35743D01*
X86772Y-35743D01*
X87686Y-35743D02*
X87343Y-35743D01*
X87515Y-35743D02*
X87515Y-35143D01*
X87458Y-35229D01*
X87400Y-35286D01*
X87343Y-35314D01*
X88257Y-35743D02*
X87914Y-35743D01*
X88086Y-35743D02*
X88086Y-35143D01*
X88029Y-35229D01*
X87971Y-35286D01*
X87914Y-35314D01*
X111772Y-35743D02*
X111772Y-35143D01*
X111915Y-35143D01*
X112000Y-35171D01*
X112058Y-35229D01*
X112086Y-35286D01*
X112115Y-35400D01*
X112115Y-35486D01*
X112086Y-35600D01*
X112058Y-35657D01*
X112000Y-35714D01*
X111915Y-35743D01*
X111772Y-35743D01*
X112686Y-35743D02*
X112343Y-35743D01*
X112515Y-35743D02*
X112515Y-35143D01*
X112458Y-35229D01*
X112400Y-35286D01*
X112343Y-35314D01*
X112914Y-35200D02*
X112943Y-35171D01*
X113000Y-35143D01*
X113143Y-35143D01*
X113200Y-35171D01*
X113229Y-35200D01*
X113257Y-35257D01*
X113257Y-35314D01*
X113229Y-35400D01*
X112886Y-35743D01*
X113257Y-35743D01*
X86772Y-85743D02*
X86772Y-85143D01*
X86915Y-85143D01*
X87000Y-85171D01*
X87058Y-85229D01*
X87086Y-85286D01*
X87115Y-85400D01*
X87115Y-85486D01*
X87086Y-85600D01*
X87058Y-85657D01*
X87000Y-85714D01*
X86915Y-85743D01*
X86772Y-85743D01*
X87343Y-85200D02*
X87372Y-85171D01*
X87429Y-85143D01*
X87572Y-85143D01*
X87629Y-85171D01*
X87658Y-85200D01*
X87686Y-85257D01*
X87686Y-85314D01*
X87658Y-85400D01*
X87315Y-85743D01*
X87686Y-85743D01*
X88229Y-85143D02*
X87943Y-85143D01*
X87914Y-85429D01*
X87943Y-85400D01*
X88000Y-85371D01*
X88143Y-85371D01*
X88200Y-85400D01*
X88229Y-85429D01*
X88257Y-85486D01*
X88257Y-85629D01*
X88229Y-85686D01*
X88200Y-85714D01*
X88143Y-85743D01*
X88000Y-85743D01*
X87943Y-85714D01*
X87914Y-85686D01*
X61772Y-85743D02*
X61772Y-85143D01*
X61915Y-85143D01*
X62000Y-85171D01*
X62058Y-85229D01*
X62086Y-85286D01*
X62115Y-85400D01*
X62115Y-85486D01*
X62086Y-85600D01*
X62058Y-85657D01*
X62000Y-85714D01*
X61915Y-85743D01*
X61772Y-85743D01*
X62343Y-85200D02*
X62372Y-85171D01*
X62429Y-85143D01*
X62572Y-85143D01*
X62629Y-85171D01*
X62658Y-85200D01*
X62686Y-85257D01*
X62686Y-85314D01*
X62658Y-85400D01*
X62315Y-85743D01*
X62686Y-85743D01*
X63200Y-85343D02*
X63200Y-85743D01*
X63057Y-85114D02*
X62914Y-85543D01*
X63286Y-85543D01*
X36772Y-85743D02*
X36772Y-85143D01*
X36915Y-85143D01*
X37000Y-85171D01*
X37058Y-85229D01*
X37086Y-85286D01*
X37115Y-85400D01*
X37115Y-85486D01*
X37086Y-85600D01*
X37058Y-85657D01*
X37000Y-85714D01*
X36915Y-85743D01*
X36772Y-85743D01*
X37343Y-85200D02*
X37372Y-85171D01*
X37429Y-85143D01*
X37572Y-85143D01*
X37629Y-85171D01*
X37658Y-85200D01*
X37686Y-85257D01*
X37686Y-85314D01*
X37658Y-85400D01*
X37315Y-85743D01*
X37686Y-85743D01*
X37886Y-85143D02*
X38257Y-85143D01*
X38057Y-85371D01*
X38143Y-85371D01*
X38200Y-85400D01*
X38229Y-85429D01*
X38257Y-85486D01*
X38257Y-85629D01*
X38229Y-85686D01*
X38200Y-85714D01*
X38143Y-85743D01*
X37971Y-85743D01*
X37914Y-85714D01*
X37886Y-85686D01*
X11772Y-85743D02*
X11772Y-85143D01*
X11915Y-85143D01*
X12000Y-85171D01*
X12058Y-85229D01*
X12086Y-85286D01*
X12115Y-85400D01*
X12115Y-85486D01*
X12086Y-85600D01*
X12058Y-85657D01*
X12000Y-85714D01*
X11915Y-85743D01*
X11772Y-85743D01*
X12343Y-85200D02*
X12372Y-85171D01*
X12429Y-85143D01*
X12572Y-85143D01*
X12629Y-85171D01*
X12658Y-85200D01*
X12686Y-85257D01*
X12686Y-85314D01*
X12658Y-85400D01*
X12315Y-85743D01*
X12686Y-85743D01*
X12914Y-85200D02*
X12943Y-85171D01*
X13000Y-85143D01*
X13143Y-85143D01*
X13200Y-85171D01*
X13229Y-85200D01*
X13257Y-85257D01*
X13257Y-85314D01*
X13229Y-85400D01*
X12886Y-85743D01*
X13257Y-85743D01*
X161772Y-60743D02*
X161772Y-60143D01*
X161915Y-60143D01*
X162000Y-60171D01*
X162058Y-60229D01*
X162086Y-60286D01*
X162115Y-60400D01*
X162115Y-60486D01*
X162086Y-60600D01*
X162058Y-60657D01*
X162000Y-60714D01*
X161915Y-60743D01*
X161772Y-60743D01*
X162343Y-60200D02*
X162372Y-60171D01*
X162429Y-60143D01*
X162572Y-60143D01*
X162629Y-60171D01*
X162658Y-60200D01*
X162686Y-60257D01*
X162686Y-60314D01*
X162658Y-60400D01*
X162315Y-60743D01*
X162686Y-60743D01*
X163257Y-60743D02*
X162914Y-60743D01*
X163086Y-60743D02*
X163086Y-60143D01*
X163029Y-60229D01*
X162971Y-60286D01*
X162914Y-60314D01*
X136772Y-60743D02*
X136772Y-60143D01*
X136915Y-60143D01*
X137000Y-60171D01*
X137058Y-60229D01*
X137086Y-60286D01*
X137115Y-60400D01*
X137115Y-60486D01*
X137086Y-60600D01*
X137058Y-60657D01*
X137000Y-60714D01*
X136915Y-60743D01*
X136772Y-60743D01*
X137343Y-60200D02*
X137372Y-60171D01*
X137429Y-60143D01*
X137572Y-60143D01*
X137629Y-60171D01*
X137658Y-60200D01*
X137686Y-60257D01*
X137686Y-60314D01*
X137658Y-60400D01*
X137315Y-60743D01*
X137686Y-60743D01*
X138057Y-60143D02*
X138114Y-60143D01*
X138171Y-60171D01*
X138200Y-60200D01*
X138229Y-60257D01*
X138257Y-60371D01*
X138257Y-60514D01*
X138229Y-60629D01*
X138200Y-60686D01*
X138171Y-60714D01*
X138114Y-60743D01*
X138057Y-60743D01*
X138000Y-60714D01*
X137971Y-60686D01*
X137943Y-60629D01*
X137914Y-60514D01*
X137914Y-60371D01*
X137943Y-60257D01*
X137971Y-60200D01*
X138000Y-60171D01*
X138057Y-60143D01*
X111772Y-60743D02*
X111772Y-60143D01*
X111915Y-60143D01*
X112000Y-60171D01*
X112058Y-60229D01*
X112086Y-60286D01*
X112115Y-60400D01*
X112115Y-60486D01*
X112086Y-60600D01*
X112058Y-60657D01*
X112000Y-60714D01*
X111915Y-60743D01*
X111772Y-60743D01*
X112686Y-60743D02*
X112343Y-60743D01*
X112515Y-60743D02*
X112515Y-60143D01*
X112458Y-60229D01*
X112400Y-60286D01*
X112343Y-60314D01*
X112971Y-60743D02*
X113086Y-60743D01*
X113143Y-60714D01*
X113171Y-60686D01*
X113229Y-60600D01*
X113257Y-60486D01*
X113257Y-60257D01*
X113229Y-60200D01*
X113200Y-60171D01*
X113143Y-60143D01*
X113029Y-60143D01*
X112971Y-60171D01*
X112943Y-60200D01*
X112914Y-60257D01*
X112914Y-60400D01*
X112943Y-60457D01*
X112971Y-60486D01*
X113029Y-60514D01*
X113143Y-60514D01*
X113200Y-60486D01*
X113229Y-60457D01*
X113257Y-60400D01*
X86772Y-60743D02*
X86772Y-60143D01*
X86915Y-60143D01*
X87000Y-60171D01*
X87058Y-60229D01*
X87086Y-60286D01*
X87115Y-60400D01*
X87115Y-60486D01*
X87086Y-60600D01*
X87058Y-60657D01*
X87000Y-60714D01*
X86915Y-60743D01*
X86772Y-60743D01*
X87686Y-60743D02*
X87343Y-60743D01*
X87515Y-60743D02*
X87515Y-60143D01*
X87458Y-60229D01*
X87400Y-60286D01*
X87343Y-60314D01*
X88029Y-60400D02*
X87971Y-60371D01*
X87943Y-60343D01*
X87914Y-60286D01*
X87914Y-60257D01*
X87943Y-60200D01*
X87971Y-60171D01*
X88029Y-60143D01*
X88143Y-60143D01*
X88200Y-60171D01*
X88229Y-60200D01*
X88257Y-60257D01*
X88257Y-60286D01*
X88229Y-60343D01*
X88200Y-60371D01*
X88143Y-60400D01*
X88029Y-60400D01*
X87971Y-60429D01*
X87943Y-60457D01*
X87914Y-60514D01*
X87914Y-60629D01*
X87943Y-60686D01*
X87971Y-60714D01*
X88029Y-60743D01*
X88143Y-60743D01*
X88200Y-60714D01*
X88229Y-60686D01*
X88257Y-60629D01*
X88257Y-60514D01*
X88229Y-60457D01*
X88200Y-60429D01*
X88143Y-60400D01*
X61772Y-60743D02*
X61772Y-60143D01*
X61915Y-60143D01*
X62000Y-60171D01*
X62058Y-60229D01*
X62086Y-60286D01*
X62115Y-60400D01*
X62115Y-60486D01*
X62086Y-60600D01*
X62058Y-60657D01*
X62000Y-60714D01*
X61915Y-60743D01*
X61772Y-60743D01*
X62686Y-60743D02*
X62343Y-60743D01*
X62515Y-60743D02*
X62515Y-60143D01*
X62458Y-60229D01*
X62400Y-60286D01*
X62343Y-60314D01*
X62886Y-60143D02*
X63286Y-60143D01*
X63029Y-60743D01*
X36772Y-60743D02*
X36772Y-60143D01*
X36915Y-60143D01*
X37000Y-60171D01*
X37058Y-60229D01*
X37086Y-60286D01*
X37115Y-60400D01*
X37115Y-60486D01*
X37086Y-60600D01*
X37058Y-60657D01*
X37000Y-60714D01*
X36915Y-60743D01*
X36772Y-60743D01*
X37686Y-60743D02*
X37343Y-60743D01*
X37515Y-60743D02*
X37515Y-60143D01*
X37458Y-60229D01*
X37400Y-60286D01*
X37343Y-60314D01*
X38200Y-60143D02*
X38086Y-60143D01*
X38029Y-60171D01*
X38000Y-60200D01*
X37943Y-60286D01*
X37914Y-60400D01*
X37914Y-60629D01*
X37943Y-60686D01*
X37971Y-60714D01*
X38029Y-60743D01*
X38143Y-60743D01*
X38200Y-60714D01*
X38229Y-60686D01*
X38257Y-60629D01*
X38257Y-60486D01*
X38229Y-60429D01*
X38200Y-60400D01*
X38143Y-60371D01*
X38029Y-60371D01*
X37971Y-60400D01*
X37943Y-60429D01*
X37914Y-60486D01*
X11772Y-60743D02*
X11772Y-60143D01*
X11915Y-60143D01*
X12000Y-60171D01*
X12058Y-60229D01*
X12086Y-60286D01*
X12115Y-60400D01*
X12115Y-60486D01*
X12086Y-60600D01*
X12058Y-60657D01*
X12000Y-60714D01*
X11915Y-60743D01*
X11772Y-60743D01*
X12686Y-60743D02*
X12343Y-60743D01*
X12515Y-60743D02*
X12515Y-60143D01*
X12458Y-60229D01*
X12400Y-60286D01*
X12343Y-60314D01*
X13229Y-60143D02*
X12943Y-60143D01*
X12914Y-60429D01*
X12943Y-60400D01*
X13000Y-60371D01*
X13143Y-60371D01*
X13200Y-60400D01*
X13229Y-60429D01*
X13257Y-60486D01*
X13257Y-60629D01*
X13229Y-60686D01*
X13200Y-60714D01*
X13143Y-60743D01*
X13000Y-60743D01*
X12943Y-60714D01*
X12914Y-60686D01*
X161772Y-35743D02*
X161772Y-35143D01*
X161915Y-35143D01*
X162000Y-35171D01*
X162058Y-35229D01*
X162086Y-35286D01*
X162115Y-35400D01*
X162115Y-35486D01*
X162086Y-35600D01*
X162058Y-35657D01*
X162000Y-35714D01*
X161915Y-35743D01*
X161772Y-35743D01*
X162686Y-35743D02*
X162343Y-35743D01*
X162515Y-35743D02*
X162515Y-35143D01*
X162458Y-35229D01*
X162400Y-35286D01*
X162343Y-35314D01*
X163200Y-35343D02*
X163200Y-35743D01*
X163057Y-35114D02*
X162914Y-35543D01*
X163286Y-35543D01*
X136772Y-35743D02*
X136772Y-35143D01*
X136915Y-35143D01*
X137000Y-35171D01*
X137058Y-35229D01*
X137086Y-35286D01*
X137115Y-35400D01*
X137115Y-35486D01*
X137086Y-35600D01*
X137058Y-35657D01*
X137000Y-35714D01*
X136915Y-35743D01*
X136772Y-35743D01*
X137686Y-35743D02*
X137343Y-35743D01*
X137515Y-35743D02*
X137515Y-35143D01*
X137458Y-35229D01*
X137400Y-35286D01*
X137343Y-35314D01*
X137886Y-35143D02*
X138257Y-35143D01*
X138057Y-35371D01*
X138143Y-35371D01*
X138200Y-35400D01*
X138229Y-35429D01*
X138257Y-35486D01*
X138257Y-35629D01*
X138229Y-35686D01*
X138200Y-35714D01*
X138143Y-35743D01*
X137971Y-35743D01*
X137914Y-35714D01*
X137886Y-35686D01*
G54D13*
X40339Y-136601D02*
X40256Y-136482D01*
X40197Y-136601D02*
X40197Y-136351D01*
X40292Y-136351D01*
X40316Y-136363D01*
X40327Y-136375D01*
X40339Y-136399D01*
X40339Y-136435D01*
X40327Y-136458D01*
X40316Y-136470D01*
X40292Y-136482D01*
X40197Y-136482D01*
X40423Y-136351D02*
X40577Y-136351D01*
X40494Y-136446D01*
X40530Y-136446D01*
X40554Y-136458D01*
X40566Y-136470D01*
X40577Y-136494D01*
X40577Y-136554D01*
X40566Y-136577D01*
X40554Y-136589D01*
X40530Y-136601D01*
X40458Y-136601D01*
X40435Y-136589D01*
X40423Y-136577D01*
X40661Y-136351D02*
X40827Y-136351D01*
X40720Y-136601D01*
X15339Y-136601D02*
X15256Y-136482D01*
X15197Y-136601D02*
X15197Y-136351D01*
X15292Y-136351D01*
X15316Y-136363D01*
X15327Y-136375D01*
X15339Y-136399D01*
X15339Y-136435D01*
X15327Y-136458D01*
X15316Y-136470D01*
X15292Y-136482D01*
X15197Y-136482D01*
X15423Y-136351D02*
X15577Y-136351D01*
X15494Y-136446D01*
X15530Y-136446D01*
X15554Y-136458D01*
X15566Y-136470D01*
X15577Y-136494D01*
X15577Y-136554D01*
X15566Y-136577D01*
X15554Y-136589D01*
X15530Y-136601D01*
X15458Y-136601D01*
X15435Y-136589D01*
X15423Y-136577D01*
X15792Y-136351D02*
X15744Y-136351D01*
X15720Y-136363D01*
X15708Y-136375D01*
X15685Y-136411D01*
X15673Y-136458D01*
X15673Y-136554D01*
X15685Y-136577D01*
X15696Y-136589D01*
X15720Y-136601D01*
X15768Y-136601D01*
X15792Y-136589D01*
X15804Y-136577D01*
X15815Y-136554D01*
X15815Y-136494D01*
X15804Y-136470D01*
X15792Y-136458D01*
X15768Y-136446D01*
X15720Y-136446D01*
X15696Y-136458D01*
X15685Y-136470D01*
X15673Y-136494D01*
X159339Y-111601D02*
X159256Y-111482D01*
X159197Y-111601D02*
X159197Y-111351D01*
X159292Y-111351D01*
X159316Y-111363D01*
X159327Y-111375D01*
X159339Y-111399D01*
X159339Y-111435D01*
X159327Y-111458D01*
X159316Y-111470D01*
X159292Y-111482D01*
X159197Y-111482D01*
X159423Y-111351D02*
X159577Y-111351D01*
X159494Y-111446D01*
X159530Y-111446D01*
X159554Y-111458D01*
X159566Y-111470D01*
X159577Y-111494D01*
X159577Y-111554D01*
X159566Y-111577D01*
X159554Y-111589D01*
X159530Y-111601D01*
X159458Y-111601D01*
X159435Y-111589D01*
X159423Y-111577D01*
X159804Y-111351D02*
X159685Y-111351D01*
X159673Y-111470D01*
X159685Y-111458D01*
X159708Y-111446D01*
X159768Y-111446D01*
X159792Y-111458D01*
X159804Y-111470D01*
X159815Y-111494D01*
X159815Y-111554D01*
X159804Y-111577D01*
X159792Y-111589D01*
X159768Y-111601D01*
X159708Y-111601D01*
X159685Y-111589D01*
X159673Y-111577D01*
X140339Y-111601D02*
X140256Y-111482D01*
X140197Y-111601D02*
X140197Y-111351D01*
X140292Y-111351D01*
X140316Y-111363D01*
X140327Y-111375D01*
X140339Y-111399D01*
X140339Y-111435D01*
X140327Y-111458D01*
X140316Y-111470D01*
X140292Y-111482D01*
X140197Y-111482D01*
X140423Y-111351D02*
X140577Y-111351D01*
X140494Y-111446D01*
X140530Y-111446D01*
X140554Y-111458D01*
X140566Y-111470D01*
X140577Y-111494D01*
X140577Y-111554D01*
X140566Y-111577D01*
X140554Y-111589D01*
X140530Y-111601D01*
X140458Y-111601D01*
X140435Y-111589D01*
X140423Y-111577D01*
X140792Y-111435D02*
X140792Y-111601D01*
X140732Y-111339D02*
X140673Y-111518D01*
X140827Y-111518D01*
X115339Y-111601D02*
X115256Y-111482D01*
X115197Y-111601D02*
X115197Y-111351D01*
X115292Y-111351D01*
X115316Y-111363D01*
X115327Y-111375D01*
X115339Y-111399D01*
X115339Y-111435D01*
X115327Y-111458D01*
X115316Y-111470D01*
X115292Y-111482D01*
X115197Y-111482D01*
X115423Y-111351D02*
X115577Y-111351D01*
X115494Y-111446D01*
X115530Y-111446D01*
X115554Y-111458D01*
X115566Y-111470D01*
X115577Y-111494D01*
X115577Y-111554D01*
X115566Y-111577D01*
X115554Y-111589D01*
X115530Y-111601D01*
X115458Y-111601D01*
X115435Y-111589D01*
X115423Y-111577D01*
X115661Y-111351D02*
X115815Y-111351D01*
X115732Y-111446D01*
X115768Y-111446D01*
X115792Y-111458D01*
X115804Y-111470D01*
X115815Y-111494D01*
X115815Y-111554D01*
X115804Y-111577D01*
X115792Y-111589D01*
X115768Y-111601D01*
X115696Y-111601D01*
X115673Y-111589D01*
X115661Y-111577D01*
X90339Y-111601D02*
X90256Y-111482D01*
X90197Y-111601D02*
X90197Y-111351D01*
X90292Y-111351D01*
X90316Y-111363D01*
X90327Y-111375D01*
X90339Y-111399D01*
X90339Y-111435D01*
X90327Y-111458D01*
X90316Y-111470D01*
X90292Y-111482D01*
X90197Y-111482D01*
X90423Y-111351D02*
X90577Y-111351D01*
X90494Y-111446D01*
X90530Y-111446D01*
X90554Y-111458D01*
X90566Y-111470D01*
X90577Y-111494D01*
X90577Y-111554D01*
X90566Y-111577D01*
X90554Y-111589D01*
X90530Y-111601D01*
X90458Y-111601D01*
X90435Y-111589D01*
X90423Y-111577D01*
X90673Y-111375D02*
X90685Y-111363D01*
X90708Y-111351D01*
X90768Y-111351D01*
X90792Y-111363D01*
X90804Y-111375D01*
X90815Y-111399D01*
X90815Y-111423D01*
X90804Y-111458D01*
X90661Y-111601D01*
X90815Y-111601D01*
X65339Y-111601D02*
X65256Y-111482D01*
X65197Y-111601D02*
X65197Y-111351D01*
X65292Y-111351D01*
X65316Y-111363D01*
X65327Y-111375D01*
X65339Y-111399D01*
X65339Y-111435D01*
X65327Y-111458D01*
X65316Y-111470D01*
X65292Y-111482D01*
X65197Y-111482D01*
X65423Y-111351D02*
X65577Y-111351D01*
X65494Y-111446D01*
X65530Y-111446D01*
X65554Y-111458D01*
X65566Y-111470D01*
X65577Y-111494D01*
X65577Y-111554D01*
X65566Y-111577D01*
X65554Y-111589D01*
X65530Y-111601D01*
X65458Y-111601D01*
X65435Y-111589D01*
X65423Y-111577D01*
X65815Y-111601D02*
X65673Y-111601D01*
X65744Y-111601D02*
X65744Y-111351D01*
X65720Y-111387D01*
X65696Y-111411D01*
X65673Y-111423D01*
X40339Y-111601D02*
X40256Y-111482D01*
X40197Y-111601D02*
X40197Y-111351D01*
X40292Y-111351D01*
X40316Y-111363D01*
X40327Y-111375D01*
X40339Y-111399D01*
X40339Y-111435D01*
X40327Y-111458D01*
X40316Y-111470D01*
X40292Y-111482D01*
X40197Y-111482D01*
X40423Y-111351D02*
X40577Y-111351D01*
X40494Y-111446D01*
X40530Y-111446D01*
X40554Y-111458D01*
X40566Y-111470D01*
X40577Y-111494D01*
X40577Y-111554D01*
X40566Y-111577D01*
X40554Y-111589D01*
X40530Y-111601D01*
X40458Y-111601D01*
X40435Y-111589D01*
X40423Y-111577D01*
X40732Y-111351D02*
X40756Y-111351D01*
X40780Y-111363D01*
X40792Y-111375D01*
X40804Y-111399D01*
X40815Y-111446D01*
X40815Y-111506D01*
X40804Y-111554D01*
X40792Y-111577D01*
X40780Y-111589D01*
X40756Y-111601D01*
X40732Y-111601D01*
X40708Y-111589D01*
X40696Y-111577D01*
X40685Y-111554D01*
X40673Y-111506D01*
X40673Y-111446D01*
X40685Y-111399D01*
X40696Y-111375D01*
X40708Y-111363D01*
X40732Y-111351D01*
X15339Y-111601D02*
X15256Y-111482D01*
X15197Y-111601D02*
X15197Y-111351D01*
X15292Y-111351D01*
X15316Y-111363D01*
X15327Y-111375D01*
X15339Y-111399D01*
X15339Y-111435D01*
X15327Y-111458D01*
X15316Y-111470D01*
X15292Y-111482D01*
X15197Y-111482D01*
X15435Y-111375D02*
X15447Y-111363D01*
X15470Y-111351D01*
X15530Y-111351D01*
X15554Y-111363D01*
X15566Y-111375D01*
X15577Y-111399D01*
X15577Y-111423D01*
X15566Y-111458D01*
X15423Y-111601D01*
X15577Y-111601D01*
X15696Y-111601D02*
X15744Y-111601D01*
X15768Y-111589D01*
X15780Y-111577D01*
X15804Y-111542D01*
X15815Y-111494D01*
X15815Y-111399D01*
X15804Y-111375D01*
X15792Y-111363D01*
X15768Y-111351D01*
X15720Y-111351D01*
X15696Y-111363D01*
X15685Y-111375D01*
X15673Y-111399D01*
X15673Y-111458D01*
X15685Y-111482D01*
X15696Y-111494D01*
X15720Y-111506D01*
X15768Y-111506D01*
X15792Y-111494D01*
X15804Y-111482D01*
X15815Y-111458D01*
X159339Y-86601D02*
X159256Y-86482D01*
X159197Y-86601D02*
X159197Y-86351D01*
X159292Y-86351D01*
X159316Y-86363D01*
X159327Y-86375D01*
X159339Y-86399D01*
X159339Y-86435D01*
X159327Y-86458D01*
X159316Y-86470D01*
X159292Y-86482D01*
X159197Y-86482D01*
X159435Y-86375D02*
X159447Y-86363D01*
X159470Y-86351D01*
X159530Y-86351D01*
X159554Y-86363D01*
X159566Y-86375D01*
X159577Y-86399D01*
X159577Y-86423D01*
X159566Y-86458D01*
X159423Y-86601D01*
X159577Y-86601D01*
X159720Y-86458D02*
X159696Y-86446D01*
X159685Y-86435D01*
X159673Y-86411D01*
X159673Y-86399D01*
X159685Y-86375D01*
X159696Y-86363D01*
X159720Y-86351D01*
X159768Y-86351D01*
X159792Y-86363D01*
X159804Y-86375D01*
X159815Y-86399D01*
X159815Y-86411D01*
X159804Y-86435D01*
X159792Y-86446D01*
X159768Y-86458D01*
X159720Y-86458D01*
X159696Y-86470D01*
X159685Y-86482D01*
X159673Y-86506D01*
X159673Y-86554D01*
X159685Y-86577D01*
X159696Y-86589D01*
X159720Y-86601D01*
X159768Y-86601D01*
X159792Y-86589D01*
X159804Y-86577D01*
X159815Y-86554D01*
X159815Y-86506D01*
X159804Y-86482D01*
X159792Y-86470D01*
X159768Y-86458D01*
X140339Y-86601D02*
X140256Y-86482D01*
X140197Y-86601D02*
X140197Y-86351D01*
X140292Y-86351D01*
X140316Y-86363D01*
X140327Y-86375D01*
X140339Y-86399D01*
X140339Y-86435D01*
X140327Y-86458D01*
X140316Y-86470D01*
X140292Y-86482D01*
X140197Y-86482D01*
X140435Y-86375D02*
X140447Y-86363D01*
X140470Y-86351D01*
X140530Y-86351D01*
X140554Y-86363D01*
X140566Y-86375D01*
X140577Y-86399D01*
X140577Y-86423D01*
X140566Y-86458D01*
X140423Y-86601D01*
X140577Y-86601D01*
X140661Y-86351D02*
X140827Y-86351D01*
X140720Y-86601D01*
X115339Y-86601D02*
X115256Y-86482D01*
X115197Y-86601D02*
X115197Y-86351D01*
X115292Y-86351D01*
X115316Y-86363D01*
X115327Y-86375D01*
X115339Y-86399D01*
X115339Y-86435D01*
X115327Y-86458D01*
X115316Y-86470D01*
X115292Y-86482D01*
X115197Y-86482D01*
X115435Y-86375D02*
X115447Y-86363D01*
X115470Y-86351D01*
X115530Y-86351D01*
X115554Y-86363D01*
X115566Y-86375D01*
X115577Y-86399D01*
X115577Y-86423D01*
X115566Y-86458D01*
X115423Y-86601D01*
X115577Y-86601D01*
X115792Y-86351D02*
X115744Y-86351D01*
X115720Y-86363D01*
X115708Y-86375D01*
X115685Y-86411D01*
X115673Y-86458D01*
X115673Y-86554D01*
X115685Y-86577D01*
X115696Y-86589D01*
X115720Y-86601D01*
X115768Y-86601D01*
X115792Y-86589D01*
X115804Y-86577D01*
X115815Y-86554D01*
X115815Y-86494D01*
X115804Y-86470D01*
X115792Y-86458D01*
X115768Y-86446D01*
X115720Y-86446D01*
X115696Y-86458D01*
X115685Y-86470D01*
X115673Y-86494D01*
X65339Y-136601D02*
X65256Y-136482D01*
X65197Y-136601D02*
X65197Y-136351D01*
X65292Y-136351D01*
X65316Y-136363D01*
X65327Y-136375D01*
X65339Y-136399D01*
X65339Y-136435D01*
X65327Y-136458D01*
X65316Y-136470D01*
X65292Y-136482D01*
X65197Y-136482D01*
X65423Y-136351D02*
X65577Y-136351D01*
X65494Y-136446D01*
X65530Y-136446D01*
X65554Y-136458D01*
X65566Y-136470D01*
X65577Y-136494D01*
X65577Y-136554D01*
X65566Y-136577D01*
X65554Y-136589D01*
X65530Y-136601D01*
X65458Y-136601D01*
X65435Y-136589D01*
X65423Y-136577D01*
X65720Y-136458D02*
X65696Y-136446D01*
X65685Y-136435D01*
X65673Y-136411D01*
X65673Y-136399D01*
X65685Y-136375D01*
X65696Y-136363D01*
X65720Y-136351D01*
X65768Y-136351D01*
X65792Y-136363D01*
X65804Y-136375D01*
X65815Y-136399D01*
X65815Y-136411D01*
X65804Y-136435D01*
X65792Y-136446D01*
X65768Y-136458D01*
X65720Y-136458D01*
X65696Y-136470D01*
X65685Y-136482D01*
X65673Y-136506D01*
X65673Y-136554D01*
X65685Y-136577D01*
X65696Y-136589D01*
X65720Y-136601D01*
X65768Y-136601D01*
X65792Y-136589D01*
X65804Y-136577D01*
X65815Y-136554D01*
X65815Y-136506D01*
X65804Y-136482D01*
X65792Y-136470D01*
X65768Y-136458D01*
X90339Y-136601D02*
X90256Y-136482D01*
X90197Y-136601D02*
X90197Y-136351D01*
X90292Y-136351D01*
X90316Y-136363D01*
X90327Y-136375D01*
X90339Y-136399D01*
X90339Y-136435D01*
X90327Y-136458D01*
X90316Y-136470D01*
X90292Y-136482D01*
X90197Y-136482D01*
X90423Y-136351D02*
X90577Y-136351D01*
X90494Y-136446D01*
X90530Y-136446D01*
X90554Y-136458D01*
X90566Y-136470D01*
X90577Y-136494D01*
X90577Y-136554D01*
X90566Y-136577D01*
X90554Y-136589D01*
X90530Y-136601D01*
X90458Y-136601D01*
X90435Y-136589D01*
X90423Y-136577D01*
X90696Y-136601D02*
X90744Y-136601D01*
X90768Y-136589D01*
X90780Y-136577D01*
X90804Y-136542D01*
X90815Y-136494D01*
X90815Y-136399D01*
X90804Y-136375D01*
X90792Y-136363D01*
X90768Y-136351D01*
X90720Y-136351D01*
X90696Y-136363D01*
X90685Y-136375D01*
X90673Y-136399D01*
X90673Y-136458D01*
X90685Y-136482D01*
X90696Y-136494D01*
X90720Y-136506D01*
X90768Y-136506D01*
X90792Y-136494D01*
X90804Y-136482D01*
X90815Y-136458D01*
X115339Y-136601D02*
X115256Y-136482D01*
X115197Y-136601D02*
X115197Y-136351D01*
X115292Y-136351D01*
X115316Y-136363D01*
X115327Y-136375D01*
X115339Y-136399D01*
X115339Y-136435D01*
X115327Y-136458D01*
X115316Y-136470D01*
X115292Y-136482D01*
X115197Y-136482D01*
X115554Y-136435D02*
X115554Y-136601D01*
X115494Y-136339D02*
X115435Y-136518D01*
X115589Y-136518D01*
X115732Y-136351D02*
X115756Y-136351D01*
X115780Y-136363D01*
X115792Y-136375D01*
X115804Y-136399D01*
X115815Y-136446D01*
X115815Y-136506D01*
X115804Y-136554D01*
X115792Y-136577D01*
X115780Y-136589D01*
X115756Y-136601D01*
X115732Y-136601D01*
X115708Y-136589D01*
X115696Y-136577D01*
X115685Y-136554D01*
X115673Y-136506D01*
X115673Y-136446D01*
X115685Y-136399D01*
X115696Y-136375D01*
X115708Y-136363D01*
X115732Y-136351D01*
X140339Y-136601D02*
X140256Y-136482D01*
X140197Y-136601D02*
X140197Y-136351D01*
X140292Y-136351D01*
X140316Y-136363D01*
X140327Y-136375D01*
X140339Y-136399D01*
X140339Y-136435D01*
X140327Y-136458D01*
X140316Y-136470D01*
X140292Y-136482D01*
X140197Y-136482D01*
X140554Y-136435D02*
X140554Y-136601D01*
X140494Y-136339D02*
X140435Y-136518D01*
X140589Y-136518D01*
X140815Y-136601D02*
X140673Y-136601D01*
X140744Y-136601D02*
X140744Y-136351D01*
X140720Y-136387D01*
X140696Y-136411D01*
X140673Y-136423D01*
X159339Y-136601D02*
X159256Y-136482D01*
X159197Y-136601D02*
X159197Y-136351D01*
X159292Y-136351D01*
X159316Y-136363D01*
X159327Y-136375D01*
X159339Y-136399D01*
X159339Y-136435D01*
X159327Y-136458D01*
X159316Y-136470D01*
X159292Y-136482D01*
X159197Y-136482D01*
X159554Y-136435D02*
X159554Y-136601D01*
X159494Y-136339D02*
X159435Y-136518D01*
X159589Y-136518D01*
X159673Y-136375D02*
X159685Y-136363D01*
X159708Y-136351D01*
X159768Y-136351D01*
X159792Y-136363D01*
X159804Y-136375D01*
X159815Y-136399D01*
X159815Y-136423D01*
X159804Y-136458D01*
X159661Y-136601D01*
X159815Y-136601D01*
X15339Y-161601D02*
X15256Y-161482D01*
X15197Y-161601D02*
X15197Y-161351D01*
X15292Y-161351D01*
X15316Y-161363D01*
X15327Y-161375D01*
X15339Y-161399D01*
X15339Y-161435D01*
X15327Y-161458D01*
X15316Y-161470D01*
X15292Y-161482D01*
X15197Y-161482D01*
X15554Y-161435D02*
X15554Y-161601D01*
X15494Y-161339D02*
X15435Y-161518D01*
X15589Y-161518D01*
X15661Y-161351D02*
X15815Y-161351D01*
X15732Y-161446D01*
X15768Y-161446D01*
X15792Y-161458D01*
X15804Y-161470D01*
X15815Y-161494D01*
X15815Y-161554D01*
X15804Y-161577D01*
X15792Y-161589D01*
X15768Y-161601D01*
X15696Y-161601D01*
X15673Y-161589D01*
X15661Y-161577D01*
X40339Y-161601D02*
X40256Y-161482D01*
X40197Y-161601D02*
X40197Y-161351D01*
X40292Y-161351D01*
X40316Y-161363D01*
X40327Y-161375D01*
X40339Y-161399D01*
X40339Y-161435D01*
X40327Y-161458D01*
X40316Y-161470D01*
X40292Y-161482D01*
X40197Y-161482D01*
X40554Y-161435D02*
X40554Y-161601D01*
X40494Y-161339D02*
X40435Y-161518D01*
X40589Y-161518D01*
X40792Y-161435D02*
X40792Y-161601D01*
X40732Y-161339D02*
X40673Y-161518D01*
X40827Y-161518D01*
X65339Y-161601D02*
X65256Y-161482D01*
X65197Y-161601D02*
X65197Y-161351D01*
X65292Y-161351D01*
X65316Y-161363D01*
X65327Y-161375D01*
X65339Y-161399D01*
X65339Y-161435D01*
X65327Y-161458D01*
X65316Y-161470D01*
X65292Y-161482D01*
X65197Y-161482D01*
X65554Y-161435D02*
X65554Y-161601D01*
X65494Y-161339D02*
X65435Y-161518D01*
X65589Y-161518D01*
X65804Y-161351D02*
X65685Y-161351D01*
X65673Y-161470D01*
X65685Y-161458D01*
X65708Y-161446D01*
X65768Y-161446D01*
X65792Y-161458D01*
X65804Y-161470D01*
X65815Y-161494D01*
X65815Y-161554D01*
X65804Y-161577D01*
X65792Y-161589D01*
X65768Y-161601D01*
X65708Y-161601D01*
X65685Y-161589D01*
X65673Y-161577D01*
X90339Y-161601D02*
X90256Y-161482D01*
X90197Y-161601D02*
X90197Y-161351D01*
X90292Y-161351D01*
X90316Y-161363D01*
X90327Y-161375D01*
X90339Y-161399D01*
X90339Y-161435D01*
X90327Y-161458D01*
X90316Y-161470D01*
X90292Y-161482D01*
X90197Y-161482D01*
X90554Y-161435D02*
X90554Y-161601D01*
X90494Y-161339D02*
X90435Y-161518D01*
X90589Y-161518D01*
X90792Y-161351D02*
X90744Y-161351D01*
X90720Y-161363D01*
X90708Y-161375D01*
X90685Y-161411D01*
X90673Y-161458D01*
X90673Y-161554D01*
X90685Y-161577D01*
X90696Y-161589D01*
X90720Y-161601D01*
X90768Y-161601D01*
X90792Y-161589D01*
X90804Y-161577D01*
X90815Y-161554D01*
X90815Y-161494D01*
X90804Y-161470D01*
X90792Y-161458D01*
X90768Y-161446D01*
X90720Y-161446D01*
X90696Y-161458D01*
X90685Y-161470D01*
X90673Y-161494D01*
X115339Y-161601D02*
X115256Y-161482D01*
X115197Y-161601D02*
X115197Y-161351D01*
X115292Y-161351D01*
X115316Y-161363D01*
X115327Y-161375D01*
X115339Y-161399D01*
X115339Y-161435D01*
X115327Y-161458D01*
X115316Y-161470D01*
X115292Y-161482D01*
X115197Y-161482D01*
X115554Y-161435D02*
X115554Y-161601D01*
X115494Y-161339D02*
X115435Y-161518D01*
X115589Y-161518D01*
X115661Y-161351D02*
X115827Y-161351D01*
X115720Y-161601D01*
X140339Y-161601D02*
X140256Y-161482D01*
X140197Y-161601D02*
X140197Y-161351D01*
X140292Y-161351D01*
X140316Y-161363D01*
X140327Y-161375D01*
X140339Y-161399D01*
X140339Y-161435D01*
X140327Y-161458D01*
X140316Y-161470D01*
X140292Y-161482D01*
X140197Y-161482D01*
X140554Y-161435D02*
X140554Y-161601D01*
X140494Y-161339D02*
X140435Y-161518D01*
X140589Y-161518D01*
X140720Y-161458D02*
X140696Y-161446D01*
X140685Y-161435D01*
X140673Y-161411D01*
X140673Y-161399D01*
X140685Y-161375D01*
X140696Y-161363D01*
X140720Y-161351D01*
X140768Y-161351D01*
X140792Y-161363D01*
X140804Y-161375D01*
X140815Y-161399D01*
X140815Y-161411D01*
X140804Y-161435D01*
X140792Y-161446D01*
X140768Y-161458D01*
X140720Y-161458D01*
X140696Y-161470D01*
X140685Y-161482D01*
X140673Y-161506D01*
X140673Y-161554D01*
X140685Y-161577D01*
X140696Y-161589D01*
X140720Y-161601D01*
X140768Y-161601D01*
X140792Y-161589D01*
X140804Y-161577D01*
X140815Y-161554D01*
X140815Y-161506D01*
X140804Y-161482D01*
X140792Y-161470D01*
X140768Y-161458D01*
X159339Y-161601D02*
X159256Y-161482D01*
X159197Y-161601D02*
X159197Y-161351D01*
X159292Y-161351D01*
X159316Y-161363D01*
X159327Y-161375D01*
X159339Y-161399D01*
X159339Y-161435D01*
X159327Y-161458D01*
X159316Y-161470D01*
X159292Y-161482D01*
X159197Y-161482D01*
X159554Y-161435D02*
X159554Y-161601D01*
X159494Y-161339D02*
X159435Y-161518D01*
X159589Y-161518D01*
X159696Y-161601D02*
X159744Y-161601D01*
X159768Y-161589D01*
X159780Y-161577D01*
X159804Y-161542D01*
X159815Y-161494D01*
X159815Y-161399D01*
X159804Y-161375D01*
X159792Y-161363D01*
X159768Y-161351D01*
X159720Y-161351D01*
X159696Y-161363D01*
X159685Y-161375D01*
X159673Y-161399D01*
X159673Y-161458D01*
X159685Y-161482D01*
X159696Y-161494D01*
X159720Y-161506D01*
X159768Y-161506D01*
X159792Y-161494D01*
X159804Y-161482D01*
X159815Y-161458D01*
X15458Y-11601D02*
X15375Y-11482D01*
X15316Y-11601D02*
X15316Y-11351D01*
X15411Y-11351D01*
X15435Y-11363D01*
X15446Y-11375D01*
X15458Y-11399D01*
X15458Y-11435D01*
X15446Y-11458D01*
X15435Y-11470D01*
X15411Y-11482D01*
X15316Y-11482D01*
X15696Y-11601D02*
X15554Y-11601D01*
X15625Y-11601D02*
X15625Y-11351D01*
X15601Y-11387D01*
X15577Y-11411D01*
X15554Y-11423D01*
X40458Y-11601D02*
X40375Y-11482D01*
X40316Y-11601D02*
X40316Y-11351D01*
X40411Y-11351D01*
X40435Y-11363D01*
X40446Y-11375D01*
X40458Y-11399D01*
X40458Y-11435D01*
X40446Y-11458D01*
X40435Y-11470D01*
X40411Y-11482D01*
X40316Y-11482D01*
X40554Y-11375D02*
X40566Y-11363D01*
X40589Y-11351D01*
X40649Y-11351D01*
X40673Y-11363D01*
X40685Y-11375D01*
X40696Y-11399D01*
X40696Y-11423D01*
X40685Y-11458D01*
X40542Y-11601D01*
X40696Y-11601D01*
X65458Y-11601D02*
X65375Y-11482D01*
X65316Y-11601D02*
X65316Y-11351D01*
X65411Y-11351D01*
X65435Y-11363D01*
X65446Y-11375D01*
X65458Y-11399D01*
X65458Y-11435D01*
X65446Y-11458D01*
X65435Y-11470D01*
X65411Y-11482D01*
X65316Y-11482D01*
X65542Y-11351D02*
X65696Y-11351D01*
X65613Y-11446D01*
X65649Y-11446D01*
X65673Y-11458D01*
X65685Y-11470D01*
X65696Y-11494D01*
X65696Y-11554D01*
X65685Y-11577D01*
X65673Y-11589D01*
X65649Y-11601D01*
X65577Y-11601D01*
X65554Y-11589D01*
X65542Y-11577D01*
X90458Y-11601D02*
X90375Y-11482D01*
X90316Y-11601D02*
X90316Y-11351D01*
X90411Y-11351D01*
X90435Y-11363D01*
X90446Y-11375D01*
X90458Y-11399D01*
X90458Y-11435D01*
X90446Y-11458D01*
X90435Y-11470D01*
X90411Y-11482D01*
X90316Y-11482D01*
X90673Y-11435D02*
X90673Y-11601D01*
X90613Y-11339D02*
X90554Y-11518D01*
X90708Y-11518D01*
X115458Y-11601D02*
X115375Y-11482D01*
X115316Y-11601D02*
X115316Y-11351D01*
X115411Y-11351D01*
X115435Y-11363D01*
X115446Y-11375D01*
X115458Y-11399D01*
X115458Y-11435D01*
X115446Y-11458D01*
X115435Y-11470D01*
X115411Y-11482D01*
X115316Y-11482D01*
X115685Y-11351D02*
X115566Y-11351D01*
X115554Y-11470D01*
X115566Y-11458D01*
X115589Y-11446D01*
X115649Y-11446D01*
X115673Y-11458D01*
X115685Y-11470D01*
X115696Y-11494D01*
X115696Y-11554D01*
X115685Y-11577D01*
X115673Y-11589D01*
X115649Y-11601D01*
X115589Y-11601D01*
X115566Y-11589D01*
X115554Y-11577D01*
X140458Y-11601D02*
X140375Y-11482D01*
X140316Y-11601D02*
X140316Y-11351D01*
X140411Y-11351D01*
X140435Y-11363D01*
X140446Y-11375D01*
X140458Y-11399D01*
X140458Y-11435D01*
X140446Y-11458D01*
X140435Y-11470D01*
X140411Y-11482D01*
X140316Y-11482D01*
X140673Y-11351D02*
X140625Y-11351D01*
X140601Y-11363D01*
X140589Y-11375D01*
X140566Y-11411D01*
X140554Y-11458D01*
X140554Y-11554D01*
X140566Y-11577D01*
X140577Y-11589D01*
X140601Y-11601D01*
X140649Y-11601D01*
X140673Y-11589D01*
X140685Y-11577D01*
X140696Y-11554D01*
X140696Y-11494D01*
X140685Y-11470D01*
X140673Y-11458D01*
X140649Y-11446D01*
X140601Y-11446D01*
X140577Y-11458D01*
X140566Y-11470D01*
X140554Y-11494D01*
X159458Y-11601D02*
X159375Y-11482D01*
X159316Y-11601D02*
X159316Y-11351D01*
X159411Y-11351D01*
X159435Y-11363D01*
X159446Y-11375D01*
X159458Y-11399D01*
X159458Y-11435D01*
X159446Y-11458D01*
X159435Y-11470D01*
X159411Y-11482D01*
X159316Y-11482D01*
X159542Y-11351D02*
X159708Y-11351D01*
X159601Y-11601D01*
X15458Y-36601D02*
X15375Y-36482D01*
X15316Y-36601D02*
X15316Y-36351D01*
X15411Y-36351D01*
X15435Y-36363D01*
X15446Y-36375D01*
X15458Y-36399D01*
X15458Y-36435D01*
X15446Y-36458D01*
X15435Y-36470D01*
X15411Y-36482D01*
X15316Y-36482D01*
X15601Y-36458D02*
X15577Y-36446D01*
X15566Y-36435D01*
X15554Y-36411D01*
X15554Y-36399D01*
X15566Y-36375D01*
X15577Y-36363D01*
X15601Y-36351D01*
X15649Y-36351D01*
X15673Y-36363D01*
X15685Y-36375D01*
X15696Y-36399D01*
X15696Y-36411D01*
X15685Y-36435D01*
X15673Y-36446D01*
X15649Y-36458D01*
X15601Y-36458D01*
X15577Y-36470D01*
X15566Y-36482D01*
X15554Y-36506D01*
X15554Y-36554D01*
X15566Y-36577D01*
X15577Y-36589D01*
X15601Y-36601D01*
X15649Y-36601D01*
X15673Y-36589D01*
X15685Y-36577D01*
X15696Y-36554D01*
X15696Y-36506D01*
X15685Y-36482D01*
X15673Y-36470D01*
X15649Y-36458D01*
X40458Y-36601D02*
X40375Y-36482D01*
X40316Y-36601D02*
X40316Y-36351D01*
X40411Y-36351D01*
X40435Y-36363D01*
X40446Y-36375D01*
X40458Y-36399D01*
X40458Y-36435D01*
X40446Y-36458D01*
X40435Y-36470D01*
X40411Y-36482D01*
X40316Y-36482D01*
X40577Y-36601D02*
X40625Y-36601D01*
X40649Y-36589D01*
X40661Y-36577D01*
X40685Y-36542D01*
X40696Y-36494D01*
X40696Y-36399D01*
X40685Y-36375D01*
X40673Y-36363D01*
X40649Y-36351D01*
X40601Y-36351D01*
X40577Y-36363D01*
X40566Y-36375D01*
X40554Y-36399D01*
X40554Y-36458D01*
X40566Y-36482D01*
X40577Y-36494D01*
X40601Y-36506D01*
X40649Y-36506D01*
X40673Y-36494D01*
X40685Y-36482D01*
X40696Y-36458D01*
X65339Y-36601D02*
X65256Y-36482D01*
X65197Y-36601D02*
X65197Y-36351D01*
X65292Y-36351D01*
X65316Y-36363D01*
X65327Y-36375D01*
X65339Y-36399D01*
X65339Y-36435D01*
X65327Y-36458D01*
X65316Y-36470D01*
X65292Y-36482D01*
X65197Y-36482D01*
X65577Y-36601D02*
X65435Y-36601D01*
X65506Y-36601D02*
X65506Y-36351D01*
X65482Y-36387D01*
X65458Y-36411D01*
X65435Y-36423D01*
X65732Y-36351D02*
X65756Y-36351D01*
X65780Y-36363D01*
X65792Y-36375D01*
X65804Y-36399D01*
X65815Y-36446D01*
X65815Y-36506D01*
X65804Y-36554D01*
X65792Y-36577D01*
X65780Y-36589D01*
X65756Y-36601D01*
X65732Y-36601D01*
X65708Y-36589D01*
X65696Y-36577D01*
X65685Y-36554D01*
X65673Y-36506D01*
X65673Y-36446D01*
X65685Y-36399D01*
X65696Y-36375D01*
X65708Y-36363D01*
X65732Y-36351D01*
X90339Y-36601D02*
X90256Y-36482D01*
X90197Y-36601D02*
X90197Y-36351D01*
X90292Y-36351D01*
X90316Y-36363D01*
X90327Y-36375D01*
X90339Y-36399D01*
X90339Y-36435D01*
X90327Y-36458D01*
X90316Y-36470D01*
X90292Y-36482D01*
X90197Y-36482D01*
X90577Y-36601D02*
X90435Y-36601D01*
X90506Y-36601D02*
X90506Y-36351D01*
X90482Y-36387D01*
X90458Y-36411D01*
X90435Y-36423D01*
X90815Y-36601D02*
X90673Y-36601D01*
X90744Y-36601D02*
X90744Y-36351D01*
X90720Y-36387D01*
X90696Y-36411D01*
X90673Y-36423D01*
X115339Y-36601D02*
X115256Y-36482D01*
X115197Y-36601D02*
X115197Y-36351D01*
X115292Y-36351D01*
X115316Y-36363D01*
X115327Y-36375D01*
X115339Y-36399D01*
X115339Y-36435D01*
X115327Y-36458D01*
X115316Y-36470D01*
X115292Y-36482D01*
X115197Y-36482D01*
X115577Y-36601D02*
X115435Y-36601D01*
X115506Y-36601D02*
X115506Y-36351D01*
X115482Y-36387D01*
X115458Y-36411D01*
X115435Y-36423D01*
X115673Y-36375D02*
X115685Y-36363D01*
X115708Y-36351D01*
X115768Y-36351D01*
X115792Y-36363D01*
X115804Y-36375D01*
X115815Y-36399D01*
X115815Y-36423D01*
X115804Y-36458D01*
X115661Y-36601D01*
X115815Y-36601D01*
X140339Y-36601D02*
X140256Y-36482D01*
X140197Y-36601D02*
X140197Y-36351D01*
X140292Y-36351D01*
X140316Y-36363D01*
X140327Y-36375D01*
X140339Y-36399D01*
X140339Y-36435D01*
X140327Y-36458D01*
X140316Y-36470D01*
X140292Y-36482D01*
X140197Y-36482D01*
X140577Y-36601D02*
X140435Y-36601D01*
X140506Y-36601D02*
X140506Y-36351D01*
X140482Y-36387D01*
X140458Y-36411D01*
X140435Y-36423D01*
X140661Y-36351D02*
X140815Y-36351D01*
X140732Y-36446D01*
X140768Y-36446D01*
X140792Y-36458D01*
X140804Y-36470D01*
X140815Y-36494D01*
X140815Y-36554D01*
X140804Y-36577D01*
X140792Y-36589D01*
X140768Y-36601D01*
X140696Y-36601D01*
X140673Y-36589D01*
X140661Y-36577D01*
X159339Y-36601D02*
X159256Y-36482D01*
X159197Y-36601D02*
X159197Y-36351D01*
X159292Y-36351D01*
X159316Y-36363D01*
X159327Y-36375D01*
X159339Y-36399D01*
X159339Y-36435D01*
X159327Y-36458D01*
X159316Y-36470D01*
X159292Y-36482D01*
X159197Y-36482D01*
X159577Y-36601D02*
X159435Y-36601D01*
X159506Y-36601D02*
X159506Y-36351D01*
X159482Y-36387D01*
X159458Y-36411D01*
X159435Y-36423D01*
X159792Y-36435D02*
X159792Y-36601D01*
X159732Y-36339D02*
X159673Y-36518D01*
X159827Y-36518D01*
X15339Y-61601D02*
X15256Y-61482D01*
X15197Y-61601D02*
X15197Y-61351D01*
X15292Y-61351D01*
X15316Y-61363D01*
X15327Y-61375D01*
X15339Y-61399D01*
X15339Y-61435D01*
X15327Y-61458D01*
X15316Y-61470D01*
X15292Y-61482D01*
X15197Y-61482D01*
X15577Y-61601D02*
X15435Y-61601D01*
X15506Y-61601D02*
X15506Y-61351D01*
X15482Y-61387D01*
X15458Y-61411D01*
X15435Y-61423D01*
X15804Y-61351D02*
X15685Y-61351D01*
X15673Y-61470D01*
X15685Y-61458D01*
X15708Y-61446D01*
X15768Y-61446D01*
X15792Y-61458D01*
X15804Y-61470D01*
X15815Y-61494D01*
X15815Y-61554D01*
X15804Y-61577D01*
X15792Y-61589D01*
X15768Y-61601D01*
X15708Y-61601D01*
X15685Y-61589D01*
X15673Y-61577D01*
X40339Y-61601D02*
X40256Y-61482D01*
X40197Y-61601D02*
X40197Y-61351D01*
X40292Y-61351D01*
X40316Y-61363D01*
X40327Y-61375D01*
X40339Y-61399D01*
X40339Y-61435D01*
X40327Y-61458D01*
X40316Y-61470D01*
X40292Y-61482D01*
X40197Y-61482D01*
X40577Y-61601D02*
X40435Y-61601D01*
X40506Y-61601D02*
X40506Y-61351D01*
X40482Y-61387D01*
X40458Y-61411D01*
X40435Y-61423D01*
X40792Y-61351D02*
X40744Y-61351D01*
X40720Y-61363D01*
X40708Y-61375D01*
X40685Y-61411D01*
X40673Y-61458D01*
X40673Y-61554D01*
X40685Y-61577D01*
X40696Y-61589D01*
X40720Y-61601D01*
X40768Y-61601D01*
X40792Y-61589D01*
X40804Y-61577D01*
X40815Y-61554D01*
X40815Y-61494D01*
X40804Y-61470D01*
X40792Y-61458D01*
X40768Y-61446D01*
X40720Y-61446D01*
X40696Y-61458D01*
X40685Y-61470D01*
X40673Y-61494D01*
X65339Y-61601D02*
X65256Y-61482D01*
X65197Y-61601D02*
X65197Y-61351D01*
X65292Y-61351D01*
X65316Y-61363D01*
X65327Y-61375D01*
X65339Y-61399D01*
X65339Y-61435D01*
X65327Y-61458D01*
X65316Y-61470D01*
X65292Y-61482D01*
X65197Y-61482D01*
X65577Y-61601D02*
X65435Y-61601D01*
X65506Y-61601D02*
X65506Y-61351D01*
X65482Y-61387D01*
X65458Y-61411D01*
X65435Y-61423D01*
X65661Y-61351D02*
X65827Y-61351D01*
X65720Y-61601D01*
X90339Y-61601D02*
X90256Y-61482D01*
X90197Y-61601D02*
X90197Y-61351D01*
X90292Y-61351D01*
X90316Y-61363D01*
X90327Y-61375D01*
X90339Y-61399D01*
X90339Y-61435D01*
X90327Y-61458D01*
X90316Y-61470D01*
X90292Y-61482D01*
X90197Y-61482D01*
X90577Y-61601D02*
X90435Y-61601D01*
X90506Y-61601D02*
X90506Y-61351D01*
X90482Y-61387D01*
X90458Y-61411D01*
X90435Y-61423D01*
X90720Y-61458D02*
X90696Y-61446D01*
X90685Y-61435D01*
X90673Y-61411D01*
X90673Y-61399D01*
X90685Y-61375D01*
X90696Y-61363D01*
X90720Y-61351D01*
X90768Y-61351D01*
X90792Y-61363D01*
X90804Y-61375D01*
X90815Y-61399D01*
X90815Y-61411D01*
X90804Y-61435D01*
X90792Y-61446D01*
X90768Y-61458D01*
X90720Y-61458D01*
X90696Y-61470D01*
X90685Y-61482D01*
X90673Y-61506D01*
X90673Y-61554D01*
X90685Y-61577D01*
X90696Y-61589D01*
X90720Y-61601D01*
X90768Y-61601D01*
X90792Y-61589D01*
X90804Y-61577D01*
X90815Y-61554D01*
X90815Y-61506D01*
X90804Y-61482D01*
X90792Y-61470D01*
X90768Y-61458D01*
X115339Y-61601D02*
X115256Y-61482D01*
X115197Y-61601D02*
X115197Y-61351D01*
X115292Y-61351D01*
X115316Y-61363D01*
X115327Y-61375D01*
X115339Y-61399D01*
X115339Y-61435D01*
X115327Y-61458D01*
X115316Y-61470D01*
X115292Y-61482D01*
X115197Y-61482D01*
X115577Y-61601D02*
X115435Y-61601D01*
X115506Y-61601D02*
X115506Y-61351D01*
X115482Y-61387D01*
X115458Y-61411D01*
X115435Y-61423D01*
X115696Y-61601D02*
X115744Y-61601D01*
X115768Y-61589D01*
X115780Y-61577D01*
X115804Y-61542D01*
X115815Y-61494D01*
X115815Y-61399D01*
X115804Y-61375D01*
X115792Y-61363D01*
X115768Y-61351D01*
X115720Y-61351D01*
X115696Y-61363D01*
X115685Y-61375D01*
X115673Y-61399D01*
X115673Y-61458D01*
X115685Y-61482D01*
X115696Y-61494D01*
X115720Y-61506D01*
X115768Y-61506D01*
X115792Y-61494D01*
X115804Y-61482D01*
X115815Y-61458D01*
X140339Y-61601D02*
X140256Y-61482D01*
X140197Y-61601D02*
X140197Y-61351D01*
X140292Y-61351D01*
X140316Y-61363D01*
X140327Y-61375D01*
X140339Y-61399D01*
X140339Y-61435D01*
X140327Y-61458D01*
X140316Y-61470D01*
X140292Y-61482D01*
X140197Y-61482D01*
X140435Y-61375D02*
X140447Y-61363D01*
X140470Y-61351D01*
X140530Y-61351D01*
X140554Y-61363D01*
X140566Y-61375D01*
X140577Y-61399D01*
X140577Y-61423D01*
X140566Y-61458D01*
X140423Y-61601D01*
X140577Y-61601D01*
X140732Y-61351D02*
X140756Y-61351D01*
X140780Y-61363D01*
X140792Y-61375D01*
X140804Y-61399D01*
X140815Y-61446D01*
X140815Y-61506D01*
X140804Y-61554D01*
X140792Y-61577D01*
X140780Y-61589D01*
X140756Y-61601D01*
X140732Y-61601D01*
X140708Y-61589D01*
X140696Y-61577D01*
X140685Y-61554D01*
X140673Y-61506D01*
X140673Y-61446D01*
X140685Y-61399D01*
X140696Y-61375D01*
X140708Y-61363D01*
X140732Y-61351D01*
X159339Y-61601D02*
X159256Y-61482D01*
X159197Y-61601D02*
X159197Y-61351D01*
X159292Y-61351D01*
X159316Y-61363D01*
X159327Y-61375D01*
X159339Y-61399D01*
X159339Y-61435D01*
X159327Y-61458D01*
X159316Y-61470D01*
X159292Y-61482D01*
X159197Y-61482D01*
X159435Y-61375D02*
X159447Y-61363D01*
X159470Y-61351D01*
X159530Y-61351D01*
X159554Y-61363D01*
X159566Y-61375D01*
X159577Y-61399D01*
X159577Y-61423D01*
X159566Y-61458D01*
X159423Y-61601D01*
X159577Y-61601D01*
X159815Y-61601D02*
X159673Y-61601D01*
X159744Y-61601D02*
X159744Y-61351D01*
X159720Y-61387D01*
X159696Y-61411D01*
X159673Y-61423D01*
X15339Y-86601D02*
X15256Y-86482D01*
X15197Y-86601D02*
X15197Y-86351D01*
X15292Y-86351D01*
X15316Y-86363D01*
X15327Y-86375D01*
X15339Y-86399D01*
X15339Y-86435D01*
X15327Y-86458D01*
X15316Y-86470D01*
X15292Y-86482D01*
X15197Y-86482D01*
X15435Y-86375D02*
X15447Y-86363D01*
X15470Y-86351D01*
X15530Y-86351D01*
X15554Y-86363D01*
X15566Y-86375D01*
X15577Y-86399D01*
X15577Y-86423D01*
X15566Y-86458D01*
X15423Y-86601D01*
X15577Y-86601D01*
X15673Y-86375D02*
X15685Y-86363D01*
X15708Y-86351D01*
X15768Y-86351D01*
X15792Y-86363D01*
X15804Y-86375D01*
X15815Y-86399D01*
X15815Y-86423D01*
X15804Y-86458D01*
X15661Y-86601D01*
X15815Y-86601D01*
X40339Y-86601D02*
X40256Y-86482D01*
X40197Y-86601D02*
X40197Y-86351D01*
X40292Y-86351D01*
X40316Y-86363D01*
X40327Y-86375D01*
X40339Y-86399D01*
X40339Y-86435D01*
X40327Y-86458D01*
X40316Y-86470D01*
X40292Y-86482D01*
X40197Y-86482D01*
X40435Y-86375D02*
X40447Y-86363D01*
X40470Y-86351D01*
X40530Y-86351D01*
X40554Y-86363D01*
X40566Y-86375D01*
X40577Y-86399D01*
X40577Y-86423D01*
X40566Y-86458D01*
X40423Y-86601D01*
X40577Y-86601D01*
X40661Y-86351D02*
X40815Y-86351D01*
X40732Y-86446D01*
X40768Y-86446D01*
X40792Y-86458D01*
X40804Y-86470D01*
X40815Y-86494D01*
X40815Y-86554D01*
X40804Y-86577D01*
X40792Y-86589D01*
X40768Y-86601D01*
X40696Y-86601D01*
X40673Y-86589D01*
X40661Y-86577D01*
X65339Y-86601D02*
X65256Y-86482D01*
X65197Y-86601D02*
X65197Y-86351D01*
X65292Y-86351D01*
X65316Y-86363D01*
X65327Y-86375D01*
X65339Y-86399D01*
X65339Y-86435D01*
X65327Y-86458D01*
X65316Y-86470D01*
X65292Y-86482D01*
X65197Y-86482D01*
X65435Y-86375D02*
X65447Y-86363D01*
X65470Y-86351D01*
X65530Y-86351D01*
X65554Y-86363D01*
X65566Y-86375D01*
X65577Y-86399D01*
X65577Y-86423D01*
X65566Y-86458D01*
X65423Y-86601D01*
X65577Y-86601D01*
X65792Y-86435D02*
X65792Y-86601D01*
X65732Y-86339D02*
X65673Y-86518D01*
X65827Y-86518D01*
X90339Y-86601D02*
X90256Y-86482D01*
X90197Y-86601D02*
X90197Y-86351D01*
X90292Y-86351D01*
X90316Y-86363D01*
X90327Y-86375D01*
X90339Y-86399D01*
X90339Y-86435D01*
X90327Y-86458D01*
X90316Y-86470D01*
X90292Y-86482D01*
X90197Y-86482D01*
X90435Y-86375D02*
X90447Y-86363D01*
X90470Y-86351D01*
X90530Y-86351D01*
X90554Y-86363D01*
X90566Y-86375D01*
X90577Y-86399D01*
X90577Y-86423D01*
X90566Y-86458D01*
X90423Y-86601D01*
X90577Y-86601D01*
X90804Y-86351D02*
X90685Y-86351D01*
X90673Y-86470D01*
X90685Y-86458D01*
X90708Y-86446D01*
X90768Y-86446D01*
X90792Y-86458D01*
X90804Y-86470D01*
X90815Y-86494D01*
X90815Y-86554D01*
X90804Y-86577D01*
X90792Y-86589D01*
X90768Y-86601D01*
X90708Y-86601D01*
X90685Y-86589D01*
X90673Y-86577D01*
M02*
