G04 (created by PCBNEW-RS274X (2011-07-19)-testing) date Fri 03 Feb 2012 01:16:17 PM PST*
G01*
G70*
G90*
%MOIN*%
G04 Gerber Fmt 3.4, Leading zero omitted, Abs format*
%FSLAX34Y34*%
G04 APERTURE LIST*
%ADD10C,0.006000*%
%ADD11O,0.080000X0.120000*%
%ADD12C,0.175000*%
%ADD13C,0.080000*%
%ADD14C,0.320000*%
G04 APERTURE END LIST*
G54D10*
G54D11*
X37500Y-84000D03*
X38500Y-84000D03*
X39500Y-84000D03*
X40500Y-84000D03*
X41500Y-84000D03*
X42500Y-84000D03*
X43500Y-84000D03*
X44500Y-84000D03*
X46500Y-65000D03*
X45500Y-65000D03*
X44500Y-65000D03*
X43500Y-65000D03*
X39500Y-65000D03*
X37500Y-65000D03*
X36500Y-65000D03*
X40500Y-65000D03*
X41500Y-65000D03*
X42500Y-65000D03*
X35500Y-65000D03*
X34500Y-65000D03*
X33500Y-65000D03*
X30500Y-65000D03*
X31500Y-65000D03*
X32500Y-65000D03*
X28500Y-65000D03*
X27500Y-65000D03*
X26500Y-65000D03*
X24500Y-65000D03*
X23500Y-65000D03*
X35500Y-84000D03*
X34500Y-84000D03*
X33500Y-84000D03*
X32500Y-84000D03*
X31500Y-84000D03*
X30500Y-84000D03*
X29500Y-84000D03*
X28500Y-84000D03*
X26900Y-84000D03*
X25900Y-84000D03*
X24900Y-84000D03*
X23900Y-84000D03*
X22900Y-84000D03*
X21900Y-84000D03*
X20900Y-84000D03*
X19900Y-84000D03*
X25500Y-65000D03*
G54D12*
X48500Y-65000D03*
X46000Y-84000D03*
X16500Y-84000D03*
X16000Y-65000D03*
G54D13*
X47500Y-83000D03*
X48500Y-83000D03*
X47500Y-82000D03*
X48500Y-82000D03*
X47500Y-81000D03*
X48500Y-81000D03*
X47500Y-80000D03*
X48500Y-80000D03*
X47500Y-84000D03*
X48500Y-84000D03*
X48500Y-79000D03*
X47500Y-79000D03*
X47500Y-78000D03*
X48500Y-78000D03*
X47500Y-77000D03*
X48500Y-77000D03*
X47500Y-76000D03*
X48500Y-76000D03*
X47500Y-75000D03*
X48500Y-75000D03*
X47500Y-74000D03*
X48500Y-74000D03*
X47500Y-73000D03*
X48500Y-73000D03*
X47500Y-72000D03*
X48500Y-72000D03*
X47500Y-71000D03*
X48500Y-71000D03*
X47500Y-70000D03*
X48500Y-70000D03*
X47500Y-69000D03*
X48500Y-69000D03*
X47500Y-68000D03*
X48500Y-68000D03*
X47500Y-67000D03*
X48500Y-67000D03*
G54D14*
X25000Y-25000D03*
X150000Y-25000D03*
X25000Y-150000D03*
X150000Y-150000D03*
M02*
